<svg xmlns="http://www.w3.org/2000/svg" xmlns:xlink="http://www.w3.org/1999/xlink" width="500" zoomAndPan="magnify" viewBox="0 0 375 374.999991" height="500" preserveAspectRatio="xMidYMid meet" version="1.0"><defs><filter x="0%" y="0%" width="100%" height="100%" id="2178c3357d"><feColorMatrix values="0 0 0 0 1 0 0 0 0 1 0 0 0 0 1 0 0 0 1 0" color-interpolation-filters="sRGB"/></filter><clipPath id="f5d591adc2"><path d="M 161.964844 192.765625 L 247.464844 192.765625 L 247.464844 278.265625 L 161.964844 278.265625 Z M 161.964844 192.765625 " clip-rule="nonzero"/></clipPath><clipPath id="1a3fd31e90"><path d="M 190.480469 275.722656 C 194.863281 277.257812 199.847656 278.265625 204.738281 278.265625 C 209.628906 278.265625 214.335938 277.402344 218.671875 275.867188 C 218.765625 275.820312 218.855469 275.820312 218.949219 275.773438 C 235.238281 269.632812 247.234375 253.425781 247.464844 234.988281 L 247.464844 213.878906 C 247.464844 208.277344 245.242188 202.910156 241.28125 198.949219 C 237.320312 194.988281 231.953125 192.765625 226.351562 192.765625 L 183.0625 192.765625 C 171.410156 192.765625 161.964844 202.210938 161.964844 213.863281 L 161.964844 234.957031 C 162.195312 253.519531 174.007812 269.730469 190.480469 275.722656 " clip-rule="nonzero"/></clipPath><clipPath id="70d49c26a3"><path d="M 127.25 192.765625 L 212.75 192.765625 L 212.75 278.265625 L 127.25 278.265625 Z M 127.25 192.765625 " clip-rule="nonzero"/></clipPath><clipPath id="58046738f9"><path d="M 155.765625 275.722656 C 160.152344 277.257812 165.132812 278.265625 170.023438 278.265625 C 174.914062 278.265625 179.621094 277.402344 183.960938 275.867188 C 184.050781 275.820312 184.144531 275.820312 184.234375 275.773438 C 200.523438 269.632812 212.519531 253.425781 212.75 234.988281 L 212.75 213.878906 C 212.75 208.277344 210.527344 202.910156 206.566406 198.949219 C 202.609375 194.988281 197.238281 192.765625 191.640625 192.765625 L 148.347656 192.765625 C 136.695312 192.765625 127.25 202.210938 127.25 213.863281 L 127.25 234.957031 C 127.480469 253.519531 139.292969 269.730469 155.765625 275.722656 " clip-rule="nonzero"/></clipPath><mask id="f54bd023ee"><g filter="url(#2178c3357d)"><rect x="-37.5" width="450" fill="#000000" y="-37.499999" height="449.999989" fill-opacity="0.8"/></g></mask><clipPath id="e7a4121fc6"><path d="M 93.632812 93.765625 L 179.132812 93.765625 L 179.132812 179.265625 L 93.632812 179.265625 Z M 93.632812 93.765625 " clip-rule="nonzero"/></clipPath><clipPath id="a84039bea7"><path d="M 122.148438 176.722656 C 126.53125 178.257812 131.515625 179.265625 136.40625 179.265625 C 141.296875 179.265625 146.003906 178.402344 150.339844 176.867188 C 150.433594 176.820312 150.527344 176.820312 150.617188 176.773438 C 166.90625 170.632812 178.902344 154.425781 179.132812 135.988281 L 179.132812 114.878906 C 179.132812 109.277344 176.910156 103.910156 172.949219 99.949219 C 168.992188 95.988281 163.621094 93.765625 158.023438 93.765625 L 114.730469 93.765625 C 103.078125 93.765625 93.632812 103.210938 93.632812 114.863281 L 93.632812 135.957031 C 93.863281 154.519531 105.675781 170.730469 122.148438 176.722656 " clip-rule="nonzero"/></clipPath><clipPath id="eba6df54cd"><rect x="0" width="274" y="0" height="274"/></clipPath></defs><rect x="-37.5" width="450" fill="#ffffff" y="-37.499999" height="449.999989" fill-opacity="1"/><rect x="-37.5" width="450" fill="#ffffff" y="-37.499999" height="449.999989" fill-opacity="1"/><g clip-path="url(#f5d591adc2)"><g clip-path="url(#1a3fd31e90)"><path stroke-linecap="butt" transform="matrix(0.747541, 0, 0, 0.747541, 161.964925, 192.765926)" fill="none" stroke-linejoin="miter" d="M 38.145792 110.972816 C 44.008765 113.026424 50.676459 114.374594 57.218742 114.374594 C 63.761025 114.374594 70.057712 113.219766 75.857979 111.166158 C 75.98339 111.103453 76.103576 111.103453 76.228987 111.040747 C 98.01918 102.826315 114.066585 81.145857 114.374888 56.481658 L 114.374888 28.243241 C 114.374888 20.749923 111.401598 13.570132 106.102975 8.27151 C 100.804353 2.972888 93.624563 -0.000402308 86.131245 -0.000402308 L 28.222632 -0.000402308 C 12.635068 -0.000402308 -0.000108776 12.634774 -0.000108776 28.222339 L -0.000108776 56.439854 C 0.308194 81.271268 16.110002 102.956951 38.145792 110.972816 " stroke="#3fa796" stroke-width="62" stroke-opacity="1" stroke-miterlimit="4"/></g></g><g clip-path="url(#70d49c26a3)"><g clip-path="url(#58046738f9)"><path stroke-linecap="butt" transform="matrix(0.747541, 0, 0, 0.747541, 127.25169, 192.765926)" fill="none" stroke-linejoin="miter" d="M 38.14364 110.972816 C 44.011838 113.026424 50.674307 114.374594 57.216591 114.374594 C 63.758874 114.374594 70.05556 113.219766 75.861053 111.166158 C 75.981238 111.103453 76.10665 111.103453 76.226835 111.040747 C 98.017028 102.826315 114.064434 81.145857 114.372736 56.481658 L 114.372736 28.243241 C 114.372736 20.749923 111.399446 13.570132 106.100824 8.27151 C 100.807427 2.972888 93.622411 -0.000402308 86.134319 -0.000402308 L 28.220481 -0.000402308 C 12.632916 -0.000402308 -0.0022604 12.634774 -0.0022604 28.222339 L -0.0022604 56.439854 C 0.306042 81.271268 16.107851 102.956951 38.14364 110.972816 " stroke="#2a0944" stroke-width="62" stroke-opacity="1" stroke-miterlimit="4"/></g></g><g mask="url(#f54bd023ee)"><g transform="matrix(1, 0, 0, 1, 68, 99)"><g clip-path="url(#eba6df54cd)"><g clip-path="url(#e7a4121fc6)"><g clip-path="url(#a84039bea7)"><path stroke-linecap="butt" transform="matrix(0.747541, 0, 0, 0.747541, 93.633725, 93.765926)" fill="none" stroke-linejoin="miter" d="M 38.14468 110.972816 C 44.007653 113.026424 50.675347 114.374594 57.21763 114.374594 C 63.759913 114.374594 70.0566 113.219766 75.856867 111.166158 C 75.982278 111.103453 76.107689 111.103453 76.227875 111.040747 C 98.018068 102.826315 114.065473 81.145857 114.373776 56.481658 L 114.373776 28.243241 C 114.373776 20.749923 111.400486 13.570132 106.101863 8.27151 C 100.808466 2.972888 93.623451 -0.000402308 86.135358 -0.000402308 L 28.22152 -0.000402308 C 12.633956 -0.000402308 -0.00122078 12.634774 -0.00122078 28.222339 L -0.00122078 56.439854 C 0.307082 81.271268 16.10889 102.956951 38.14468 110.972816 " stroke="#3fa796" stroke-width="62" stroke-opacity="1" stroke-miterlimit="4"/></g></g></g></g></g></svg>