<svg xmlns="http://www.w3.org/2000/svg" xmlns:xlink="http://www.w3.org/1999/xlink" width="500" zoomAndPan="magnify" viewBox="0 0 375 374.999991" height="500" preserveAspectRatio="xMidYMid meet" version="1.0"><defs><clipPath id="e961edb3ab"><path d="M 127.53125 96.730469 L 213.03125 96.730469 L 213.03125 182.230469 L 127.53125 182.230469 Z M 127.53125 96.730469 " clip-rule="nonzero"/></clipPath><clipPath id="1ffa4fab26"><path d="M 170.28125 182.230469 C 193.894531 182.230469 213.03125 163.09375 213.03125 139.480469 C 213.03125 115.871094 193.894531 96.730469 170.28125 96.730469 C 146.671875 96.730469 127.53125 115.871094 127.53125 139.480469 C 127.53125 163.09375 146.671875 182.230469 170.28125 182.230469 " clip-rule="nonzero"/></clipPath></defs><rect x="-37.5" width="450" fill="#ffffff" y="-37.499999" height="449.999989" fill-opacity="1"/><rect x="-37.5" width="450" fill="#ffffff" y="-37.499999" height="449.999989" fill-opacity="1"/><rect x="-37.5" width="450" fill="#ffffff" y="-37.499999" height="449.999989" fill-opacity="1"/><g clip-path="url(#e961edb3ab)"><g clip-path="url(#1ffa4fab26)"><path stroke-linecap="butt" transform="matrix(-0.747541, -0.000000000000000092, 0.000000000000000092, -0.747541, 213.03295, 182.231911)" fill="none" stroke-linejoin="miter" d="M 57.189776 0.00192964 C 25.601833 0.00192964 0.00227374 25.601488 0.00227374 57.189432 C 0.00227374 88.772149 25.601833 114.376933 57.189776 114.376933 C 88.772493 114.376933 114.377278 88.772149 114.377278 57.189432 C 114.377278 25.601488 88.772493 0.00192964 57.189776 0.00192964 " stroke="#2a0944" stroke-width="62" stroke-opacity="1" stroke-miterlimit="4"/></g></g></svg>