<svg xmlns="http://www.w3.org/2000/svg" xmlns:xlink="http://www.w3.org/1999/xlink" width="500" zoomAndPan="magnify" viewBox="0 0 375 374.999991" height="500" preserveAspectRatio="xMidYMid meet" version="1.0"><defs><filter x="0%" y="0%" width="100%" height="100%" id="aeeda4b7a6"><feColorMatrix values="0 0 0 0 1 0 0 0 0 1 0 0 0 0 1 0 0 0 1 0" color-interpolation-filters="sRGB"/></filter><clipPath id="a83ec94b00"><path d="M 161.964844 96.730469 L 247.464844 96.730469 L 247.464844 182.230469 L 161.964844 182.230469 Z M 161.964844 96.730469 " clip-rule="nonzero"/></clipPath><clipPath id="0a9181dcdf"><path d="M 161.964844 139.480469 C 161.964844 163.09375 181.105469 182.230469 204.714844 182.230469 C 228.324219 182.230469 247.464844 163.09375 247.464844 139.480469 C 247.464844 115.871094 228.324219 96.730469 204.714844 96.730469 C 181.105469 96.730469 161.964844 115.871094 161.964844 139.480469 " clip-rule="nonzero"/></clipPath><mask id="6c3f15e784"><g filter="url(#aeeda4b7a6)"><rect x="-37.5" width="450" fill="#000000" y="-37.499999" height="449.999989" fill-opacity="0.8"/></g></mask><clipPath id="26a62842ce"><path d="M 93.964844 94.0625 L 179.464844 94.0625 L 179.464844 179.5625 L 93.964844 179.5625 Z M 93.964844 94.0625 " clip-rule="nonzero"/></clipPath><clipPath id="59ca8aba63"><path d="M 93.964844 136.8125 C 93.964844 160.421875 113.105469 179.5625 136.714844 179.5625 C 160.324219 179.5625 179.464844 160.421875 179.464844 136.8125 C 179.464844 113.203125 160.324219 94.0625 136.714844 94.0625 C 113.105469 94.0625 93.964844 113.203125 93.964844 136.8125 " clip-rule="nonzero"/></clipPath><clipPath id="f8d59fc537"><rect x="0" width="274" y="0" height="274"/></clipPath></defs><rect x="-37.5" width="450" fill="#ffffff" y="-37.499999" height="449.999989" fill-opacity="1"/><rect x="-37.5" width="450" fill="#ffffff" y="-37.499999" height="449.999989" fill-opacity="1"/><g clip-path="url(#a83ec94b00)"><g clip-path="url(#0a9181dcdf)"><path stroke-linecap="butt" transform="matrix(0.000000000000000046, -0.747541, 0.747541, 0.000000000000000046, 161.964925, 182.231882)" fill="none" stroke-linejoin="miter" d="M 57.189393 -0.000108776 C 25.60145 -0.000108776 0.00189111 25.604676 0.00189111 57.187393 C 0.00189111 88.770111 25.60145 114.374895 57.189393 114.374895 C 88.772111 114.374895 114.376895 88.770111 114.376895 57.187393 C 114.376895 25.604676 88.772111 -0.000108776 57.189393 -0.000108776 " stroke="#fec260" stroke-width="62" stroke-opacity="1" stroke-miterlimit="4"/></g></g><g mask="url(#6c3f15e784)"><g transform="matrix(1, 0, 0, 1, 68, 3)"><g clip-path="url(#f8d59fc537)"><g clip-path="url(#26a62842ce)"><g clip-path="url(#59ca8aba63)"><path stroke-linecap="butt" transform="matrix(0.000000000000000046, -0.747541, 0.747541, 0.000000000000000046, 93.964925, 179.563114)" fill="none" stroke-linejoin="miter" d="M 57.188323 -0.000108776 C 25.605605 -0.000108776 0.00082084 25.604676 0.00082084 57.187393 C 0.00082084 88.770111 25.605605 114.374895 57.188323 114.374895 C 88.77104 114.374895 114.375825 88.770111 114.375825 57.187393 C 114.375825 25.604676 88.77104 -0.000108776 57.188323 -0.000108776 " stroke="#fec260" stroke-width="62" stroke-opacity="1" stroke-miterlimit="4"/></g></g></g></g></g></svg>