<svg xmlns="http://www.w3.org/2000/svg" xmlns:xlink="http://www.w3.org/1999/xlink" width="500" zoomAndPan="magnify" viewBox="0 0 375 374.999991" height="500" preserveAspectRatio="xMidYMid meet" version="1.0"><defs><clipPath id="ef7c4ae97e"><path d="M 37.523438 38.363281 L 97.523438 38.363281 L 97.523438 98.363281 L 37.523438 98.363281 Z M 37.523438 38.363281 " clip-rule="nonzero"/></clipPath><clipPath id="fe2079f43f"><path d="M 117.328125 38.28125 L 177.328125 38.28125 L 177.328125 98.28125 L 117.328125 98.28125 Z M 117.328125 38.28125 " clip-rule="nonzero"/></clipPath><clipPath id="45b6a83f06"><path d="M 197.359375 38.363281 L 257.359375 38.363281 L 257.359375 98.363281 L 197.359375 98.363281 Z M 197.359375 38.363281 " clip-rule="nonzero"/></clipPath><clipPath id="1eca0f9450"><path d="M 277.347656 38.28125 L 337.347656 38.28125 L 337.347656 98.28125 L 277.347656 98.28125 Z M 277.347656 38.28125 " clip-rule="nonzero"/></clipPath><clipPath id="6dce4f11ae"><path d="M 37.554688 117.851562 L 97.554688 117.851562 L 97.554688 177.851562 L 37.554688 177.851562 Z M 37.554688 117.851562 " clip-rule="nonzero"/></clipPath><clipPath id="772d25f915"><path d="M 117.296875 117.820312 L 177.296875 117.820312 L 177.296875 177.820312 L 117.296875 177.820312 Z M 117.296875 117.820312 " clip-rule="nonzero"/></clipPath><clipPath id="0d17264e4d"><path d="M 197.445312 117.796875 L 257.445312 117.796875 L 257.445312 177.796875 L 197.445312 177.796875 Z M 197.445312 117.796875 " clip-rule="nonzero"/></clipPath><clipPath id="596fbce744"><path d="M 277.261719 117.875 L 337.261719 117.875 L 337.261719 177.875 L 277.261719 177.875 Z M 277.261719 117.875 " clip-rule="nonzero"/></clipPath><clipPath id="a57aa4e4e7"><path d="M 37.523438 197.253906 L 97.523438 197.253906 L 97.523438 257.253906 L 37.523438 257.253906 Z M 37.523438 197.253906 " clip-rule="nonzero"/></clipPath><clipPath id="8abf4fcc1f"><path d="M 117.328125 197.171875 L 177.328125 197.171875 L 177.328125 257.171875 L 117.328125 257.171875 Z M 117.328125 197.171875 " clip-rule="nonzero"/></clipPath><clipPath id="b96bb232a1"><path d="M 197.359375 197.253906 L 257.359375 197.253906 L 257.359375 257.253906 L 197.359375 257.253906 Z M 197.359375 197.253906 " clip-rule="nonzero"/></clipPath><clipPath id="6ea8e9cb18"><path d="M 277.347656 197.171875 L 337.347656 197.171875 L 337.347656 257.171875 L 277.347656 257.171875 Z M 277.347656 197.171875 " clip-rule="nonzero"/></clipPath><clipPath id="c58c017c69"><path d="M 37.5 276.605469 L 97.5 276.605469 L 97.5 336.605469 L 37.5 336.605469 Z M 37.5 276.605469 " clip-rule="nonzero"/></clipPath><clipPath id="036855e1cc"><path d="M 117.242188 276.574219 L 177.242188 276.574219 L 177.242188 336.574219 L 117.242188 336.574219 Z M 117.242188 276.574219 " clip-rule="nonzero"/></clipPath><clipPath id="9a97b47d79"><path d="M 197.390625 276.550781 L 257.390625 276.550781 L 257.390625 336.550781 L 197.390625 336.550781 Z M 197.390625 276.550781 " clip-rule="nonzero"/></clipPath><clipPath id="13bf573dfc"><path d="M 277.207031 276.628906 L 337.207031 276.628906 L 337.207031 336.628906 L 277.207031 336.628906 Z M 277.207031 276.628906 " clip-rule="nonzero"/></clipPath></defs><rect x="-37.5" width="450" fill="#ffffff" y="-37.499999" height="449.999989" fill-opacity="1"/><rect x="-37.5" width="450" fill="#ffffff" y="-37.499999" height="449.999989" fill-opacity="1"/><g clip-path="url(#ef7c4ae97e)"><path fill="#3fa796" d="M 37.570312 68.363281 C 37.570312 60.347656 40.691406 52.820312 46.339844 47.148438 C 52.003906 41.488281 59.527344 38.363281 67.53125 38.363281 C 67.613281 38.363281 67.699219 38.363281 67.78125 38.363281 C 71.089844 38.390625 73.765625 41.105469 73.730469 44.421875 C 73.707031 47.734375 70.996094 50.402344 67.6875 50.378906 C 67.640625 50.378906 67.578125 50.378906 67.53125 50.378906 C 57.628906 50.378906 49.578125 58.445312 49.578125 68.363281 C 49.578125 78.285156 57.628906 86.351562 67.53125 86.351562 C 77.433594 86.351562 85.484375 78.285156 85.484375 68.363281 C 85.484375 66.976562 85.328125 65.601562 85.019531 64.273438 C 84.265625 61.042969 86.273438 57.8125 89.5 57.058594 C 92.722656 56.304688 95.949219 58.3125 96.703125 61.542969 C 97.214844 63.78125 97.480469 66.066406 97.480469 68.363281 C 97.480469 76.382812 94.359375 83.910156 88.710938 89.582031 C 83.046875 95.253906 75.535156 98.363281 67.53125 98.363281 C 59.527344 98.363281 52.003906 95.253906 46.351562 89.582031 C 40.691406 83.921875 37.570312 76.382812 37.570312 68.363281 Z M 37.570312 68.363281 " fill-opacity="1" fill-rule="nonzero"/></g><g clip-path="url(#fe2079f43f)"><path fill="#3fa796" d="M 177.28125 68.28125 C 177.28125 76.300781 174.164062 83.828125 168.511719 89.5 C 162.851562 95.160156 155.324219 98.28125 147.320312 98.28125 C 147.238281 98.28125 147.152344 98.28125 147.070312 98.28125 C 143.761719 98.257812 141.085938 95.542969 141.121094 92.226562 C 141.144531 88.914062 143.855469 86.246094 147.164062 86.269531 C 147.214844 86.269531 147.273438 86.269531 147.320312 86.269531 C 157.222656 86.269531 165.273438 78.203125 165.273438 68.28125 C 165.273438 58.363281 157.222656 50.296875 147.320312 50.296875 C 137.417969 50.296875 129.367188 58.363281 129.367188 68.28125 C 129.367188 69.671875 129.523438 71.046875 129.832031 72.375 C 130.585938 75.605469 128.578125 78.835938 125.355469 79.589844 C 122.128906 80.34375 118.902344 78.335938 118.152344 75.105469 C 117.636719 72.867188 117.375 70.582031 117.375 68.28125 C 117.375 60.265625 120.492188 52.738281 126.140625 47.066406 C 131.804688 41.394531 139.316406 38.28125 147.320312 38.28125 C 155.324219 38.28125 162.851562 41.394531 168.5 47.066406 C 174.164062 52.726562 177.28125 60.265625 177.28125 68.28125 Z M 177.28125 68.28125 " fill-opacity="1" fill-rule="nonzero"/></g><g clip-path="url(#45b6a83f06)"><path fill="#3fa796" d="M 197.40625 68.363281 C 197.40625 60.347656 200.523438 52.820312 206.175781 47.148438 C 211.835938 41.488281 219.363281 38.363281 227.367188 38.363281 C 227.449219 38.363281 227.535156 38.363281 227.617188 38.363281 C 230.925781 38.390625 233.601562 41.105469 233.566406 44.421875 C 233.542969 47.734375 230.832031 50.402344 227.519531 50.378906 C 227.472656 50.378906 227.414062 50.378906 227.367188 50.378906 C 217.464844 50.378906 209.410156 58.445312 209.410156 68.363281 C 209.410156 78.285156 217.464844 86.351562 227.367188 86.351562 C 237.269531 86.351562 245.320312 78.285156 245.320312 68.363281 C 245.320312 66.976562 245.164062 65.601562 244.855469 64.273438 C 244.101562 61.042969 246.109375 57.8125 249.332031 57.058594 C 252.558594 56.304688 255.785156 58.3125 256.535156 61.542969 C 257.050781 63.78125 257.3125 66.066406 257.3125 68.363281 C 257.3125 76.382812 254.195312 83.910156 248.546875 89.582031 C 242.882812 95.253906 235.371094 98.363281 227.367188 98.363281 C 219.363281 98.363281 211.835938 95.253906 206.1875 89.582031 C 200.523438 83.921875 197.40625 76.382812 197.40625 68.363281 Z M 197.40625 68.363281 " fill-opacity="1" fill-rule="nonzero"/></g><g clip-path="url(#1eca0f9450)"><path fill="#3fa796" d="M 337.300781 68.28125 C 337.300781 76.300781 334.179688 83.828125 328.53125 89.5 C 322.871094 95.160156 315.34375 98.28125 307.339844 98.28125 C 307.257812 98.28125 307.171875 98.28125 307.089844 98.28125 C 303.78125 98.257812 301.105469 95.542969 301.140625 92.226562 C 301.164062 88.914062 303.875 86.246094 307.183594 86.269531 C 307.234375 86.269531 307.292969 86.269531 307.339844 86.269531 C 317.242188 86.269531 325.292969 78.203125 325.292969 68.28125 C 325.292969 58.363281 317.242188 50.296875 307.339844 50.296875 C 297.4375 50.296875 289.386719 58.363281 289.386719 68.28125 C 289.386719 69.671875 289.542969 71.046875 289.851562 72.375 C 290.605469 75.605469 288.597656 78.835938 285.371094 79.589844 C 282.148438 80.34375 278.921875 78.335938 278.167969 75.105469 C 277.65625 72.867188 277.394531 70.582031 277.394531 68.28125 C 277.394531 60.265625 280.511719 52.738281 286.160156 47.066406 C 291.824219 41.394531 299.335938 38.28125 307.339844 38.28125 C 315.34375 38.28125 322.871094 41.394531 328.519531 47.066406 C 334.179688 52.726562 337.300781 60.265625 337.300781 68.28125 Z M 337.300781 68.28125 " fill-opacity="1" fill-rule="nonzero"/></g><g clip-path="url(#6dce4f11ae)"><path fill="#3fa796" d="M 67.554688 177.804688 C 59.535156 177.804688 52.011719 174.6875 46.339844 169.035156 C 40.679688 163.375 37.554688 155.847656 37.554688 147.84375 C 37.554688 147.761719 37.554688 147.679688 37.554688 147.59375 C 37.578125 144.285156 40.292969 141.609375 43.609375 141.644531 C 46.925781 141.667969 49.59375 144.382812 49.570312 147.691406 C 49.570312 147.738281 49.570312 147.796875 49.570312 147.84375 C 49.570312 157.75 57.632812 165.800781 67.554688 165.800781 C 77.476562 165.800781 85.539062 157.75 85.539062 147.84375 C 85.539062 137.941406 77.476562 129.890625 67.554688 129.890625 C 66.167969 129.890625 64.789062 130.046875 63.460938 130.359375 C 60.230469 131.109375 57 129.101562 56.246094 125.878906 C 55.492188 122.652344 57.503906 119.425781 60.734375 118.675781 C 62.972656 118.160156 65.257812 117.898438 67.554688 117.898438 C 75.570312 117.898438 83.097656 121.015625 88.769531 126.667969 C 94.441406 132.328125 97.554688 139.84375 97.554688 147.84375 C 97.554688 155.847656 94.441406 163.375 88.769531 169.023438 C 83.109375 174.6875 75.570312 177.804688 67.554688 177.804688 Z M 67.554688 177.804688 " fill-opacity="1" fill-rule="nonzero"/></g><g clip-path="url(#772d25f915)"><path fill="#3fa796" d="M 147.296875 117.867188 C 155.316406 117.867188 162.84375 120.984375 168.515625 126.636719 C 174.175781 132.296875 177.296875 139.824219 177.296875 147.828125 C 177.296875 147.910156 177.296875 147.992188 177.296875 148.078125 C 177.273438 151.386719 174.558594 154.0625 171.242188 154.027344 C 167.929688 154.003906 165.257812 151.289062 165.285156 147.980469 C 165.285156 147.933594 165.285156 147.875 165.285156 147.828125 C 165.285156 137.921875 157.21875 129.871094 147.296875 129.871094 C 137.378906 129.871094 129.3125 137.921875 129.3125 147.828125 C 129.3125 157.730469 137.378906 165.78125 147.296875 165.78125 C 148.6875 165.78125 150.0625 165.625 151.390625 165.316406 C 154.621094 164.5625 157.851562 166.570312 158.605469 169.792969 C 159.359375 173.019531 157.351562 176.246094 154.117188 176.996094 C 151.882812 177.511719 149.59375 177.773438 147.296875 177.773438 C 139.28125 177.773438 131.753906 174.65625 126.082031 169.003906 C 120.410156 163.34375 117.296875 155.828125 117.296875 147.828125 C 117.296875 139.824219 120.410156 132.296875 126.082031 126.648438 C 131.742188 120.984375 139.28125 117.867188 147.296875 117.867188 Z M 147.296875 117.867188 " fill-opacity="1" fill-rule="nonzero"/></g><g clip-path="url(#0d17264e4d)"><path fill="#3fa796" d="M 227.445312 177.75 C 219.425781 177.75 211.898438 174.632812 206.226562 168.980469 C 200.566406 163.320312 197.445312 155.792969 197.445312 147.792969 C 197.445312 147.707031 197.445312 147.625 197.445312 147.539062 C 197.46875 144.230469 200.183594 141.554688 203.5 141.589844 C 206.8125 141.617188 209.480469 144.328125 209.457031 147.636719 C 209.457031 147.683594 209.457031 147.742188 209.457031 147.792969 C 209.457031 157.695312 217.523438 165.746094 227.445312 165.746094 C 237.363281 165.746094 245.429688 157.695312 245.429688 147.792969 C 245.429688 137.886719 237.363281 129.835938 227.445312 129.835938 C 226.054688 129.835938 224.679688 129.992188 223.351562 130.304688 C 220.121094 131.054688 216.890625 129.046875 216.136719 125.824219 C 215.382812 122.597656 217.390625 119.371094 220.625 118.621094 C 222.859375 118.105469 225.144531 117.84375 227.445312 117.84375 C 235.460938 117.84375 242.988281 120.960938 248.660156 126.613281 C 254.332031 132.273438 257.445312 139.789062 257.445312 147.792969 C 257.445312 155.792969 254.332031 163.320312 248.660156 168.96875 C 243 174.632812 235.460938 177.75 227.445312 177.75 Z M 227.445312 177.75 " fill-opacity="1" fill-rule="nonzero"/></g><g clip-path="url(#596fbce744)"><path fill="#3fa796" d="M 307.261719 117.921875 C 315.28125 117.921875 322.808594 121.039062 328.480469 126.691406 C 334.140625 132.351562 337.261719 139.878906 337.261719 147.882812 C 337.261719 147.964844 337.261719 148.046875 337.261719 148.132812 C 337.238281 151.441406 334.523438 154.117188 331.207031 154.082031 C 327.890625 154.058594 325.222656 151.34375 325.246094 148.035156 C 325.246094 147.988281 325.246094 147.929688 325.246094 147.882812 C 325.246094 137.976562 317.183594 129.925781 307.261719 129.925781 C 297.34375 129.925781 289.277344 137.976562 289.277344 147.882812 C 289.277344 157.785156 297.34375 165.835938 307.261719 165.835938 C 308.648438 165.835938 310.027344 165.679688 311.355469 165.371094 C 314.585938 164.617188 317.816406 166.625 318.570312 169.847656 C 319.324219 173.074219 317.3125 176.300781 314.082031 177.050781 C 311.84375 177.566406 309.558594 177.828125 307.261719 177.828125 C 299.246094 177.828125 291.71875 174.710938 286.046875 169.058594 C 280.375 163.398438 277.261719 155.882812 277.261719 147.882812 C 277.261719 139.878906 280.375 132.351562 286.046875 126.703125 C 291.707031 121.039062 299.246094 117.921875 307.261719 117.921875 Z M 307.261719 117.921875 " fill-opacity="1" fill-rule="nonzero"/></g><g clip-path="url(#a57aa4e4e7)"><path fill="#3fa796" d="M 37.570312 227.253906 C 37.570312 219.234375 40.691406 211.710938 46.339844 206.035156 C 52.003906 200.375 59.527344 197.253906 67.53125 197.253906 C 67.613281 197.253906 67.699219 197.253906 67.78125 197.253906 C 71.089844 197.277344 73.765625 199.992188 73.730469 203.308594 C 73.707031 206.625 70.996094 209.292969 67.6875 209.269531 C 67.640625 209.269531 67.578125 209.269531 67.53125 209.269531 C 57.628906 209.269531 49.578125 217.332031 49.578125 227.253906 C 49.578125 237.175781 57.628906 245.238281 67.53125 245.238281 C 77.433594 245.238281 85.484375 237.175781 85.484375 227.253906 C 85.484375 225.867188 85.328125 224.488281 85.019531 223.160156 C 84.265625 219.929688 86.273438 216.699219 89.5 215.945312 C 92.722656 215.191406 95.949219 217.203125 96.703125 220.433594 C 97.214844 222.671875 97.480469 224.957031 97.480469 227.253906 C 97.480469 235.269531 94.359375 242.796875 88.710938 248.46875 C 83.046875 254.140625 75.535156 257.253906 67.53125 257.253906 C 59.527344 257.253906 52.003906 254.140625 46.351562 248.46875 C 40.691406 242.808594 37.570312 235.269531 37.570312 227.253906 Z M 37.570312 227.253906 " fill-opacity="1" fill-rule="nonzero"/></g><g clip-path="url(#8abf4fcc1f)"><path fill="#3fa796" d="M 177.28125 227.171875 C 177.28125 235.1875 174.164062 242.714844 168.511719 248.386719 C 162.851562 254.046875 155.324219 257.171875 147.320312 257.171875 C 147.238281 257.171875 147.152344 257.171875 147.070312 257.171875 C 143.761719 257.148438 141.085938 254.429688 141.121094 251.117188 C 141.144531 247.800781 143.855469 245.132812 147.164062 245.15625 C 147.214844 245.15625 147.273438 245.15625 147.320312 245.15625 C 157.222656 245.15625 165.273438 237.09375 165.273438 227.171875 C 165.273438 217.25 157.222656 209.1875 147.320312 209.1875 C 137.417969 209.1875 129.367188 217.25 129.367188 227.171875 C 129.367188 228.558594 129.523438 229.9375 129.832031 231.265625 C 130.585938 234.496094 128.578125 237.726562 125.355469 238.480469 C 122.128906 239.234375 118.902344 237.222656 118.152344 233.992188 C 117.636719 231.753906 117.375 229.46875 117.375 227.171875 C 117.375 219.152344 120.492188 211.628906 126.140625 205.953125 C 131.804688 200.28125 139.316406 197.171875 147.320312 197.171875 C 155.324219 197.171875 162.851562 200.28125 168.5 205.953125 C 174.164062 211.613281 177.28125 219.152344 177.28125 227.171875 Z M 177.28125 227.171875 " fill-opacity="1" fill-rule="nonzero"/></g><g clip-path="url(#b96bb232a1)"><path fill="#3fa796" d="M 197.40625 227.253906 C 197.40625 219.234375 200.523438 211.710938 206.175781 206.035156 C 211.835938 200.375 219.363281 197.253906 227.367188 197.253906 C 227.449219 197.253906 227.535156 197.253906 227.617188 197.253906 C 230.925781 197.277344 233.601562 199.992188 233.566406 203.308594 C 233.542969 206.625 230.832031 209.292969 227.519531 209.269531 C 227.472656 209.269531 227.414062 209.269531 227.367188 209.269531 C 217.464844 209.269531 209.410156 217.332031 209.410156 227.253906 C 209.410156 237.175781 217.464844 245.238281 227.367188 245.238281 C 237.269531 245.238281 245.320312 237.175781 245.320312 227.253906 C 245.320312 225.867188 245.164062 224.488281 244.855469 223.160156 C 244.101562 219.929688 246.109375 216.699219 249.332031 215.945312 C 252.558594 215.191406 255.785156 217.203125 256.535156 220.433594 C 257.050781 222.671875 257.3125 224.957031 257.3125 227.253906 C 257.3125 235.269531 254.195312 242.796875 248.546875 248.46875 C 242.882812 254.140625 235.371094 257.253906 227.367188 257.253906 C 219.363281 257.253906 211.835938 254.140625 206.1875 248.46875 C 200.523438 242.808594 197.40625 235.269531 197.40625 227.253906 Z M 197.40625 227.253906 " fill-opacity="1" fill-rule="nonzero"/></g><g clip-path="url(#6ea8e9cb18)"><path fill="#3fa796" d="M 337.300781 227.171875 C 337.300781 235.1875 334.179688 242.714844 328.53125 248.386719 C 322.871094 254.046875 315.34375 257.171875 307.339844 257.171875 C 307.257812 257.171875 307.171875 257.171875 307.089844 257.171875 C 303.78125 257.148438 301.105469 254.429688 301.140625 251.117188 C 301.164062 247.800781 303.875 245.132812 307.183594 245.15625 C 307.234375 245.15625 307.292969 245.15625 307.339844 245.15625 C 317.242188 245.15625 325.292969 237.09375 325.292969 227.171875 C 325.292969 217.25 317.242188 209.1875 307.339844 209.1875 C 297.4375 209.1875 289.386719 217.25 289.386719 227.171875 C 289.386719 228.558594 289.542969 229.9375 289.851562 231.265625 C 290.605469 234.496094 288.597656 237.726562 285.371094 238.480469 C 282.148438 239.234375 278.921875 237.222656 278.167969 233.992188 C 277.65625 231.753906 277.394531 229.46875 277.394531 227.171875 C 277.394531 219.152344 280.511719 211.628906 286.160156 205.953125 C 291.824219 200.28125 299.335938 197.171875 307.339844 197.171875 C 315.34375 197.171875 322.871094 200.28125 328.519531 205.953125 C 334.179688 211.613281 337.300781 219.152344 337.300781 227.171875 Z M 337.300781 227.171875 " fill-opacity="1" fill-rule="nonzero"/></g><g clip-path="url(#c58c017c69)"><path fill="#3fa796" d="M 67.5 336.558594 C 59.484375 336.558594 51.957031 333.441406 46.285156 327.789062 C 40.625 322.128906 37.5 314.601562 37.5 306.597656 C 37.5 306.515625 37.5 306.433594 37.5 306.347656 C 37.523438 303.039062 40.242188 300.363281 43.554688 300.398438 C 46.871094 300.421875 49.539062 303.132812 49.515625 306.445312 C 49.515625 306.492188 49.515625 306.550781 49.515625 306.597656 C 49.515625 316.5 57.578125 324.554688 67.5 324.554688 C 77.421875 324.554688 85.484375 316.5 85.484375 306.597656 C 85.484375 296.695312 77.421875 288.644531 67.5 288.644531 C 66.113281 288.644531 64.734375 288.800781 63.40625 289.109375 C 60.175781 289.863281 56.945312 287.855469 56.191406 284.632812 C 55.4375 281.40625 57.449219 278.179688 60.679688 277.429688 C 62.917969 276.914062 65.203125 276.652344 67.5 276.652344 C 75.515625 276.652344 83.042969 279.769531 88.714844 285.417969 C 94.390625 291.082031 97.5 298.59375 97.5 306.597656 C 97.5 314.601562 94.390625 322.128906 88.714844 327.777344 C 83.054688 333.441406 75.515625 336.558594 67.5 336.558594 Z M 67.5 336.558594 " fill-opacity="1" fill-rule="nonzero"/></g><g clip-path="url(#036855e1cc)"><path fill="#3fa796" d="M 147.242188 276.621094 C 155.261719 276.621094 162.789062 279.738281 168.460938 285.386719 C 174.121094 291.050781 177.242188 298.578125 177.242188 306.578125 C 177.242188 306.664062 177.242188 306.746094 177.242188 306.832031 C 177.21875 310.140625 174.503906 312.816406 171.1875 312.78125 C 167.875 312.753906 165.207031 310.042969 165.230469 306.734375 C 165.230469 306.6875 165.230469 306.628906 165.230469 306.578125 C 165.230469 296.675781 157.164062 288.625 147.242188 288.625 C 137.324219 288.625 129.257812 296.675781 129.257812 306.578125 C 129.257812 316.484375 137.324219 324.535156 147.242188 324.535156 C 148.632812 324.535156 150.007812 324.378906 151.335938 324.066406 C 154.566406 323.316406 157.796875 325.324219 158.550781 328.546875 C 159.304688 331.773438 157.296875 335 154.0625 335.75 C 151.828125 336.265625 149.539062 336.527344 147.242188 336.527344 C 139.226562 336.527344 131.699219 333.410156 126.027344 327.757812 C 120.355469 322.097656 117.242188 314.582031 117.242188 306.578125 C 117.242188 298.578125 120.355469 291.050781 126.027344 285.402344 C 131.6875 279.738281 139.226562 276.621094 147.242188 276.621094 Z M 147.242188 276.621094 " fill-opacity="1" fill-rule="nonzero"/></g><g clip-path="url(#9a97b47d79)"><path fill="#3fa796" d="M 227.390625 336.503906 C 219.371094 336.503906 211.84375 333.386719 206.171875 327.734375 C 200.511719 322.074219 197.390625 314.546875 197.390625 306.542969 C 197.390625 306.460938 197.390625 306.378906 197.390625 306.292969 C 197.414062 302.984375 200.128906 300.308594 203.445312 300.34375 C 206.757812 300.367188 209.425781 303.082031 209.402344 306.390625 C 209.402344 306.4375 209.402344 306.496094 209.402344 306.542969 C 209.402344 316.445312 217.46875 324.5 227.390625 324.5 C 237.308594 324.5 245.375 316.445312 245.375 306.542969 C 245.375 296.640625 237.308594 288.589844 227.390625 288.589844 C 226 288.589844 224.625 288.746094 223.296875 289.054688 C 220.066406 289.808594 216.835938 287.800781 216.082031 284.578125 C 215.328125 281.351562 217.335938 278.125 220.570312 277.375 C 222.804688 276.859375 225.09375 276.597656 227.390625 276.597656 C 235.40625 276.597656 242.933594 279.714844 248.605469 285.363281 C 254.277344 291.027344 257.390625 298.539062 257.390625 306.542969 C 257.390625 314.546875 254.277344 322.074219 248.605469 327.722656 C 242.945312 333.386719 235.40625 336.503906 227.390625 336.503906 Z M 227.390625 336.503906 " fill-opacity="1" fill-rule="nonzero"/></g><g clip-path="url(#13bf573dfc)"><path fill="#3fa796" d="M 307.207031 276.675781 C 315.226562 276.675781 322.753906 279.792969 328.425781 285.441406 C 334.085938 291.105469 337.207031 298.632812 337.207031 306.632812 C 337.207031 306.71875 337.207031 306.800781 337.207031 306.886719 C 337.183594 310.195312 334.46875 312.871094 331.152344 312.835938 C 327.839844 312.808594 325.167969 310.097656 325.191406 306.789062 C 325.191406 306.742188 325.191406 306.683594 325.191406 306.632812 C 325.191406 296.730469 317.128906 288.679688 307.207031 288.679688 C 297.289062 288.679688 289.222656 296.730469 289.222656 306.632812 C 289.222656 316.539062 297.289062 324.589844 307.207031 324.589844 C 308.597656 324.589844 309.972656 324.433594 311.300781 324.121094 C 314.53125 323.371094 317.761719 325.375 318.515625 328.601562 C 319.269531 331.828125 317.257812 335.050781 314.027344 335.804688 C 311.789062 336.320312 309.503906 336.582031 307.207031 336.582031 C 299.191406 336.582031 291.664062 333.464844 285.992188 327.8125 C 280.320312 322.152344 277.207031 314.636719 277.207031 306.632812 C 277.207031 298.632812 280.320312 291.105469 285.992188 285.453125 C 291.652344 279.792969 299.191406 276.675781 307.207031 276.675781 Z M 307.207031 276.675781 " fill-opacity="1" fill-rule="nonzero"/></g></svg>