<svg xmlns="http://www.w3.org/2000/svg" xmlns:xlink="http://www.w3.org/1999/xlink" width="500" zoomAndPan="magnify" viewBox="0 0 375 374.999991" height="500" preserveAspectRatio="xMidYMid meet" version="1.0"><defs><g/></defs><rect x="-37.5" width="450" fill="#ffffff" y="-37.499999" height="449.999989" fill-opacity="1"/><rect x="-37.5" width="450" fill="#ffffff" y="-37.499999" height="449.999989" fill-opacity="1"/><g fill="#3fa796" fill-opacity="1"><g transform="translate(98.512519, 211.45501)"><g><path d="M 3.375 0.09375 C 2.738281 0.09375 2.175781 -0.0351562 1.6875 -0.296875 C 1.207031 -0.566406 0.863281 -0.929688 0.65625 -1.390625 C 0.625 -1.429688 0.609375 -1.484375 0.609375 -1.546875 C 0.609375 -1.640625 0.644531 -1.71875 0.71875 -1.78125 C 0.789062 -1.84375 0.882812 -1.875 1 -1.875 C 1.082031 -1.875 1.15625 -1.851562 1.21875 -1.8125 C 1.289062 -1.769531 1.34375 -1.707031 1.375 -1.625 C 1.53125 -1.320312 1.785156 -1.082031 2.140625 -0.90625 C 2.492188 -0.726562 2.90625 -0.640625 3.375 -0.640625 C 3.914062 -0.640625 4.347656 -0.769531 4.671875 -1.03125 C 5.003906 -1.289062 5.171875 -1.65625 5.171875 -2.125 C 5.171875 -2.539062 5.015625 -2.890625 4.703125 -3.171875 C 4.398438 -3.453125 3.941406 -3.632812 3.328125 -3.71875 C 2.554688 -3.8125 1.953125 -4.050781 1.515625 -4.4375 C 1.078125 -4.820312 0.859375 -5.296875 0.859375 -5.859375 C 0.859375 -6.253906 0.960938 -6.597656 1.171875 -6.890625 C 1.390625 -7.191406 1.6875 -7.421875 2.0625 -7.578125 C 2.445312 -7.742188 2.882812 -7.828125 3.375 -7.828125 C 3.894531 -7.828125 4.351562 -7.710938 4.75 -7.484375 C 5.144531 -7.253906 5.453125 -6.957031 5.671875 -6.59375 C 5.722656 -6.519531 5.75 -6.4375 5.75 -6.34375 C 5.75 -6.21875 5.6875 -6.117188 5.5625 -6.046875 C 5.507812 -6.023438 5.453125 -6.015625 5.390625 -6.015625 C 5.316406 -6.015625 5.25 -6.03125 5.1875 -6.0625 C 5.125 -6.101562 5.070312 -6.15625 5.03125 -6.21875 C 4.664062 -6.800781 4.109375 -7.097656 3.359375 -7.109375 C 2.828125 -7.109375 2.40625 -6.992188 2.09375 -6.765625 C 1.78125 -6.535156 1.625 -6.21875 1.625 -5.8125 C 1.625 -5.03125 2.25 -4.554688 3.5 -4.390625 C 4.3125 -4.273438 4.921875 -4.023438 5.328125 -3.640625 C 5.734375 -3.265625 5.9375 -2.757812 5.9375 -2.125 C 5.9375 -1.664062 5.820312 -1.265625 5.59375 -0.921875 C 5.375 -0.585938 5.066406 -0.332031 4.671875 -0.15625 C 4.285156 0.0078125 3.851562 0.09375 3.375 0.09375 Z M 3.375 0.09375 "/></g></g></g><g fill="#3fa796" fill-opacity="1"><g transform="translate(109.753705, 211.45501)"><g><path d="M 4.5625 0.09375 C 3.8125 0.09375 3.132812 -0.078125 2.53125 -0.421875 C 1.9375 -0.765625 1.46875 -1.238281 1.125 -1.84375 C 0.78125 -2.445312 0.609375 -3.125 0.609375 -3.875 C 0.609375 -4.625 0.78125 -5.300781 1.125 -5.90625 C 1.46875 -6.507812 1.9375 -6.976562 2.53125 -7.3125 C 3.132812 -7.65625 3.8125 -7.828125 4.5625 -7.828125 C 5.3125 -7.828125 5.988281 -7.65625 6.59375 -7.3125 C 7.195312 -6.976562 7.664062 -6.507812 8 -5.90625 C 8.34375 -5.300781 8.515625 -4.625 8.515625 -3.875 C 8.515625 -3.125 8.34375 -2.445312 8 -1.84375 C 7.664062 -1.238281 7.195312 -0.765625 6.59375 -0.421875 C 5.988281 -0.078125 5.3125 0.09375 4.5625 0.09375 Z M 4.5625 -0.640625 C 5.164062 -0.640625 5.707031 -0.78125 6.1875 -1.0625 C 6.675781 -1.34375 7.054688 -1.726562 7.328125 -2.21875 C 7.609375 -2.71875 7.75 -3.269531 7.75 -3.875 C 7.75 -4.476562 7.609375 -5.023438 7.328125 -5.515625 C 7.054688 -6.003906 6.675781 -6.390625 6.1875 -6.671875 C 5.707031 -6.960938 5.164062 -7.109375 4.5625 -7.109375 C 3.957031 -7.109375 3.410156 -6.960938 2.921875 -6.671875 C 2.441406 -6.390625 2.0625 -6.003906 1.78125 -5.515625 C 1.5 -5.023438 1.359375 -4.476562 1.359375 -3.875 C 1.359375 -3.269531 1.5 -2.71875 1.78125 -2.21875 C 2.0625 -1.726562 2.441406 -1.34375 2.921875 -1.0625 C 3.410156 -0.78125 3.957031 -0.640625 4.5625 -0.640625 Z M 4.5625 -0.640625 "/></g></g></g><g fill="#3fa796" fill-opacity="1"><g transform="translate(123.555915, 211.45501)"><g><path d="M 1.375 0 C 1.269531 0 1.175781 -0.0351562 1.09375 -0.109375 C 1.019531 -0.191406 0.984375 -0.285156 0.984375 -0.390625 L 0.984375 -7.34375 C 0.984375 -7.457031 1.019531 -7.550781 1.09375 -7.625 C 1.175781 -7.695312 1.269531 -7.734375 1.375 -7.734375 C 1.488281 -7.734375 1.582031 -7.695312 1.65625 -7.625 C 1.726562 -7.550781 1.765625 -7.457031 1.765625 -7.34375 L 1.765625 -0.734375 L 5.640625 -0.734375 C 5.753906 -0.734375 5.84375 -0.695312 5.90625 -0.625 C 5.976562 -0.5625 6.015625 -0.472656 6.015625 -0.359375 C 6.015625 -0.253906 5.976562 -0.164062 5.90625 -0.09375 C 5.84375 -0.03125 5.753906 0 5.640625 0 Z M 1.375 0 "/></g></g></g><g fill="#3fa796" fill-opacity="1"><g transform="translate(134.510358, 211.45501)"><g><path d="M 4.078125 0.15625 C 3.484375 0.15625 2.945312 0.0390625 2.46875 -0.1875 C 2 -0.414062 1.632812 -0.734375 1.375 -1.140625 C 1.113281 -1.554688 0.984375 -2.03125 0.984375 -2.5625 L 0.984375 -7.34375 C 0.984375 -7.457031 1.019531 -7.550781 1.09375 -7.625 C 1.164062 -7.695312 1.257812 -7.734375 1.375 -7.734375 C 1.488281 -7.734375 1.582031 -7.695312 1.65625 -7.625 C 1.726562 -7.550781 1.765625 -7.457031 1.765625 -7.34375 L 1.765625 -2.5625 C 1.765625 -2.175781 1.859375 -1.832031 2.046875 -1.53125 C 2.242188 -1.226562 2.515625 -0.992188 2.859375 -0.828125 C 3.210938 -0.660156 3.617188 -0.578125 4.078125 -0.578125 C 4.515625 -0.578125 4.90625 -0.660156 5.25 -0.828125 C 5.59375 -0.992188 5.859375 -1.226562 6.046875 -1.53125 C 6.242188 -1.832031 6.34375 -2.175781 6.34375 -2.5625 L 6.34375 -7.34375 C 6.34375 -7.457031 6.378906 -7.550781 6.453125 -7.625 C 6.523438 -7.695312 6.617188 -7.734375 6.734375 -7.734375 C 6.847656 -7.734375 6.941406 -7.695312 7.015625 -7.625 C 7.085938 -7.550781 7.125 -7.457031 7.125 -7.34375 L 7.125 -2.5625 C 7.125 -2.03125 6.992188 -1.554688 6.734375 -1.140625 C 6.472656 -0.734375 6.109375 -0.414062 5.640625 -0.1875 C 5.179688 0.0390625 4.660156 0.15625 4.078125 0.15625 Z M 4.078125 0.15625 "/></g></g></g><g fill="#3fa796" fill-opacity="1"><g transform="translate(147.303974, 211.45501)"><g><path d="M 6.421875 -1.328125 C 6.492188 -1.378906 6.566406 -1.40625 6.640625 -1.40625 C 6.734375 -1.40625 6.816406 -1.367188 6.890625 -1.296875 C 6.960938 -1.234375 7 -1.144531 7 -1.03125 C 7 -0.925781 6.960938 -0.832031 6.890625 -0.75 C 6.347656 -0.257812 5.679688 0.015625 4.890625 0.078125 L 4.765625 0.359375 C 5.097656 0.441406 5.332031 0.554688 5.46875 0.703125 C 5.613281 0.859375 5.6875 1.050781 5.6875 1.28125 C 5.6875 1.46875 5.625 1.640625 5.5 1.796875 C 5.382812 1.953125 5.222656 2.078125 5.015625 2.171875 C 4.816406 2.265625 4.59375 2.3125 4.34375 2.3125 C 4 2.3125 3.707031 2.238281 3.46875 2.09375 C 3.238281 1.945312 3.125 1.773438 3.125 1.578125 C 3.125 1.472656 3.160156 1.382812 3.234375 1.3125 C 3.304688 1.238281 3.394531 1.203125 3.5 1.203125 C 3.625 1.203125 3.738281 1.273438 3.84375 1.421875 C 3.945312 1.578125 4.113281 1.65625 4.34375 1.65625 C 4.5 1.65625 4.625 1.617188 4.71875 1.546875 C 4.820312 1.484375 4.875 1.394531 4.875 1.28125 C 4.875 1.15625 4.832031 1.054688 4.75 0.984375 C 4.675781 0.910156 4.546875 0.847656 4.359375 0.796875 C 4.234375 0.773438 4.132812 0.738281 4.0625 0.6875 C 4 0.632812 3.96875 0.566406 3.96875 0.484375 C 3.96875 0.429688 3.984375 0.351562 4.015625 0.25 L 4.09375 0.078125 C 3.445312 0.015625 2.859375 -0.195312 2.328125 -0.5625 C 1.796875 -0.9375 1.375 -1.410156 1.0625 -1.984375 C 0.757812 -2.566406 0.609375 -3.195312 0.609375 -3.875 C 0.609375 -4.582031 0.78125 -5.238281 1.125 -5.84375 C 1.46875 -6.457031 1.929688 -6.941406 2.515625 -7.296875 C 3.109375 -7.648438 3.757812 -7.828125 4.46875 -7.828125 C 4.945312 -7.828125 5.378906 -7.757812 5.765625 -7.625 C 6.148438 -7.488281 6.523438 -7.269531 6.890625 -6.96875 C 6.960938 -6.914062 7 -6.835938 7 -6.734375 C 7 -6.679688 6.984375 -6.632812 6.953125 -6.59375 C 6.929688 -6.550781 6.898438 -6.519531 6.859375 -6.5 C 6.835938 -6.445312 6.804688 -6.40625 6.765625 -6.375 C 6.722656 -6.351562 6.675781 -6.34375 6.625 -6.34375 C 6.519531 -6.34375 6.4375 -6.375 6.375 -6.4375 C 6.113281 -6.664062 5.832031 -6.832031 5.53125 -6.9375 C 5.226562 -7.050781 4.875 -7.109375 4.46875 -7.109375 C 3.914062 -7.109375 3.398438 -6.957031 2.921875 -6.65625 C 2.441406 -6.363281 2.0625 -5.96875 1.78125 -5.46875 C 1.5 -4.976562 1.359375 -4.445312 1.359375 -3.875 C 1.359375 -3.28125 1.5 -2.734375 1.78125 -2.234375 C 2.0625 -1.742188 2.4375 -1.351562 2.90625 -1.0625 C 3.382812 -0.78125 3.90625 -0.640625 4.46875 -0.640625 C 5.1875 -0.640625 5.835938 -0.867188 6.421875 -1.328125 Z M 6.421875 -1.328125 "/></g></g></g><g fill="#3fa796" fill-opacity="1"><g transform="translate(159.622963, 211.45501)"><g><path d="M 4.5625 0.09375 C 3.8125 0.09375 3.132812 -0.078125 2.53125 -0.421875 C 1.9375 -0.765625 1.46875 -1.238281 1.125 -1.84375 C 0.78125 -2.445312 0.609375 -3.125 0.609375 -3.875 C 0.609375 -4.625 0.78125 -5.300781 1.125 -5.90625 C 1.46875 -6.507812 1.9375 -6.976562 2.53125 -7.3125 C 3.132812 -7.65625 3.8125 -7.828125 4.5625 -7.828125 C 5.3125 -7.828125 5.988281 -7.65625 6.59375 -7.3125 C 7.195312 -6.976562 7.664062 -6.507812 8 -5.90625 C 8.34375 -5.300781 8.515625 -4.625 8.515625 -3.875 C 8.515625 -3.125 8.34375 -2.445312 8 -1.84375 C 7.664062 -1.238281 7.195312 -0.765625 6.59375 -0.421875 C 5.988281 -0.078125 5.3125 0.09375 4.5625 0.09375 Z M 4.5625 -0.640625 C 5.164062 -0.640625 5.707031 -0.78125 6.1875 -1.0625 C 6.675781 -1.34375 7.054688 -1.726562 7.328125 -2.21875 C 7.609375 -2.71875 7.75 -3.269531 7.75 -3.875 C 7.75 -4.476562 7.609375 -5.023438 7.328125 -5.515625 C 7.054688 -6.003906 6.675781 -6.390625 6.1875 -6.671875 C 5.707031 -6.960938 5.164062 -7.109375 4.5625 -7.109375 C 3.957031 -7.109375 3.410156 -6.960938 2.921875 -6.671875 C 2.441406 -6.390625 2.0625 -6.003906 1.78125 -5.515625 C 1.5 -5.023438 1.359375 -4.476562 1.359375 -3.875 C 1.359375 -3.269531 1.5 -2.71875 1.78125 -2.21875 C 2.0625 -1.726562 2.441406 -1.34375 2.921875 -1.0625 C 3.410156 -0.78125 3.957031 -0.640625 4.5625 -0.640625 Z M 5.609375 -8.53125 C 5.421875 -8.53125 5.253906 -8.554688 5.109375 -8.609375 C 4.960938 -8.671875 4.804688 -8.75 4.640625 -8.84375 C 4.503906 -8.9375 4.390625 -9 4.296875 -9.03125 C 4.210938 -9.0625 4.128906 -9.078125 4.046875 -9.078125 C 3.804688 -9.078125 3.585938 -8.960938 3.390625 -8.734375 C 3.347656 -8.671875 3.296875 -8.625 3.234375 -8.59375 C 3.179688 -8.5625 3.125 -8.546875 3.0625 -8.546875 C 3.007812 -8.546875 2.957031 -8.5625 2.90625 -8.59375 C 2.851562 -8.613281 2.8125 -8.648438 2.78125 -8.703125 C 2.75 -8.753906 2.734375 -8.804688 2.734375 -8.859375 C 2.734375 -8.941406 2.757812 -9.015625 2.8125 -9.078125 C 2.976562 -9.285156 3.171875 -9.445312 3.390625 -9.5625 C 3.609375 -9.6875 3.832031 -9.75 4.0625 -9.75 C 4.238281 -9.75 4.394531 -9.71875 4.53125 -9.65625 C 4.664062 -9.601562 4.816406 -9.523438 4.984375 -9.421875 C 5.140625 -9.328125 5.253906 -9.265625 5.328125 -9.234375 C 5.398438 -9.203125 5.488281 -9.1875 5.59375 -9.1875 C 5.800781 -9.1875 5.960938 -9.253906 6.078125 -9.390625 C 6.179688 -9.492188 6.285156 -9.546875 6.390625 -9.546875 C 6.441406 -9.546875 6.492188 -9.53125 6.546875 -9.5 C 6.660156 -9.445312 6.71875 -9.359375 6.71875 -9.234375 C 6.71875 -9.160156 6.691406 -9.085938 6.640625 -9.015625 C 6.378906 -8.691406 6.035156 -8.53125 5.609375 -8.53125 Z M 5.609375 -8.53125 "/></g></g></g><g fill="#3fa796" fill-opacity="1"><g transform="translate(173.42517, 211.45501)"><g><path d="M 1.375 0 C 1.269531 0 1.175781 -0.0351562 1.09375 -0.109375 C 1.019531 -0.191406 0.984375 -0.285156 0.984375 -0.390625 L 0.984375 -7.34375 C 0.984375 -7.457031 1.019531 -7.550781 1.09375 -7.625 C 1.175781 -7.695312 1.269531 -7.734375 1.375 -7.734375 L 6.015625 -7.734375 C 6.128906 -7.734375 6.222656 -7.695312 6.296875 -7.625 C 6.367188 -7.550781 6.40625 -7.460938 6.40625 -7.359375 C 6.40625 -7.253906 6.367188 -7.164062 6.296875 -7.09375 C 6.222656 -7.03125 6.128906 -7 6.015625 -7 L 1.765625 -7 L 1.765625 -4.265625 L 4.859375 -4.265625 C 4.972656 -4.265625 5.066406 -4.226562 5.140625 -4.15625 C 5.210938 -4.082031 5.25 -3.992188 5.25 -3.890625 C 5.25 -3.773438 5.207031 -3.679688 5.125 -3.609375 C 5.050781 -3.535156 4.960938 -3.5 4.859375 -3.5 L 1.765625 -3.5 L 1.765625 -0.75 L 6.015625 -0.75 C 6.128906 -0.75 6.222656 -0.710938 6.296875 -0.640625 C 6.367188 -0.566406 6.40625 -0.476562 6.40625 -0.375 C 6.40625 -0.269531 6.367188 -0.179688 6.296875 -0.109375 C 6.222656 -0.0351562 6.128906 0 6.015625 0 Z M 1.375 0 "/></g></g></g><g fill="#3fa796" fill-opacity="1"><g transform="translate(184.962999, 211.45501)"><g><path d="M 3.375 0.09375 C 2.738281 0.09375 2.175781 -0.0351562 1.6875 -0.296875 C 1.207031 -0.566406 0.863281 -0.929688 0.65625 -1.390625 C 0.625 -1.429688 0.609375 -1.484375 0.609375 -1.546875 C 0.609375 -1.640625 0.644531 -1.71875 0.71875 -1.78125 C 0.789062 -1.84375 0.882812 -1.875 1 -1.875 C 1.082031 -1.875 1.15625 -1.851562 1.21875 -1.8125 C 1.289062 -1.769531 1.34375 -1.707031 1.375 -1.625 C 1.53125 -1.320312 1.785156 -1.082031 2.140625 -0.90625 C 2.492188 -0.726562 2.90625 -0.640625 3.375 -0.640625 C 3.914062 -0.640625 4.347656 -0.769531 4.671875 -1.03125 C 5.003906 -1.289062 5.171875 -1.65625 5.171875 -2.125 C 5.171875 -2.539062 5.015625 -2.890625 4.703125 -3.171875 C 4.398438 -3.453125 3.941406 -3.632812 3.328125 -3.71875 C 2.554688 -3.8125 1.953125 -4.050781 1.515625 -4.4375 C 1.078125 -4.820312 0.859375 -5.296875 0.859375 -5.859375 C 0.859375 -6.253906 0.960938 -6.597656 1.171875 -6.890625 C 1.390625 -7.191406 1.6875 -7.421875 2.0625 -7.578125 C 2.445312 -7.742188 2.882812 -7.828125 3.375 -7.828125 C 3.894531 -7.828125 4.351562 -7.710938 4.75 -7.484375 C 5.144531 -7.253906 5.453125 -6.957031 5.671875 -6.59375 C 5.722656 -6.519531 5.75 -6.4375 5.75 -6.34375 C 5.75 -6.21875 5.6875 -6.117188 5.5625 -6.046875 C 5.507812 -6.023438 5.453125 -6.015625 5.390625 -6.015625 C 5.316406 -6.015625 5.25 -6.03125 5.1875 -6.0625 C 5.125 -6.101562 5.070312 -6.15625 5.03125 -6.21875 C 4.664062 -6.800781 4.109375 -7.097656 3.359375 -7.109375 C 2.828125 -7.109375 2.40625 -6.992188 2.09375 -6.765625 C 1.78125 -6.535156 1.625 -6.21875 1.625 -5.8125 C 1.625 -5.03125 2.25 -4.554688 3.5 -4.390625 C 4.3125 -4.273438 4.921875 -4.023438 5.328125 -3.640625 C 5.734375 -3.265625 5.9375 -2.757812 5.9375 -2.125 C 5.9375 -1.664062 5.820312 -1.265625 5.59375 -0.921875 C 5.375 -0.585938 5.066406 -0.332031 4.671875 -0.15625 C 4.285156 0.0078125 3.851562 0.09375 3.375 0.09375 Z M 3.375 0.09375 "/></g></g></g><g fill="#3fa796" fill-opacity="1"><g transform="translate(196.197015, 211.45501)"><g/></g></g><g fill="#3fa796" fill-opacity="1"><g transform="translate(203.789501, 211.45501)"><g/></g></g><g fill="#3fa796" fill-opacity="1"><g transform="translate(211.381986, 211.45501)"><g/></g></g><g fill="#3fa796" fill-opacity="1"><g transform="translate(218.97429, 211.45501)"><g><path d="M 0.765625 0 C 0.660156 0 0.566406 -0.0351562 0.484375 -0.109375 C 0.410156 -0.191406 0.375 -0.285156 0.375 -0.390625 L 0.375 -7.34375 C 0.375 -7.457031 0.410156 -7.550781 0.484375 -7.625 C 0.566406 -7.695312 0.660156 -7.734375 0.765625 -7.734375 L 5.40625 -7.734375 C 5.519531 -7.734375 5.613281 -7.695312 5.6875 -7.625 C 5.757812 -7.550781 5.796875 -7.460938 5.796875 -7.359375 C 5.796875 -7.253906 5.757812 -7.164062 5.6875 -7.09375 C 5.613281 -7.03125 5.519531 -7 5.40625 -7 L 1.15625 -7 L 1.15625 -4.265625 L 4.25 -4.265625 C 4.363281 -4.265625 4.457031 -4.226562 4.53125 -4.15625 C 4.601562 -4.082031 4.640625 -3.992188 4.640625 -3.890625 C 4.640625 -3.773438 4.601562 -3.679688 4.53125 -3.609375 C 4.457031 -3.535156 4.363281 -3.5 4.25 -3.5 L 1.15625 -3.5 L 1.15625 -0.390625 C 1.15625 -0.285156 1.117188 -0.191406 1.046875 -0.109375 C 0.972656 -0.0351562 0.878906 0 0.765625 0 Z M 0.765625 0 "/></g></g></g><g fill="#3fa796" fill-opacity="1"><g transform="translate(229.849622, 211.45501)"><g><path d="M 1.375 0 C 1.269531 0 1.175781 -0.0351562 1.09375 -0.109375 C 1.019531 -0.191406 0.984375 -0.285156 0.984375 -0.390625 L 0.984375 -7.34375 C 0.984375 -7.457031 1.019531 -7.550781 1.09375 -7.625 C 1.175781 -7.695312 1.269531 -7.734375 1.375 -7.734375 C 1.488281 -7.734375 1.582031 -7.695312 1.65625 -7.625 C 1.726562 -7.550781 1.765625 -7.457031 1.765625 -7.34375 L 1.765625 -0.390625 C 1.765625 -0.285156 1.726562 -0.191406 1.65625 -0.109375 C 1.582031 -0.0351562 1.488281 0 1.375 0 Z M 1.375 0 "/></g></g></g><g fill="#3fa796" fill-opacity="1"><g transform="translate(237.293785, 211.45501)"><g><path d="M 1.375 0 C 1.257812 0 1.164062 -0.0351562 1.09375 -0.109375 C 1.019531 -0.179688 0.984375 -0.273438 0.984375 -0.390625 L 0.984375 -7.34375 C 0.984375 -7.457031 1.019531 -7.550781 1.09375 -7.625 C 1.164062 -7.695312 1.257812 -7.734375 1.375 -7.734375 C 1.5 -7.734375 1.597656 -7.6875 1.671875 -7.59375 L 6.40625 -1.375 L 6.40625 -7.34375 C 6.40625 -7.457031 6.441406 -7.550781 6.515625 -7.625 C 6.597656 -7.695312 6.691406 -7.734375 6.796875 -7.734375 C 6.910156 -7.734375 7.003906 -7.695312 7.078125 -7.625 C 7.148438 -7.550781 7.1875 -7.457031 7.1875 -7.34375 L 7.1875 -0.390625 C 7.1875 -0.285156 7.148438 -0.191406 7.078125 -0.109375 C 7.003906 -0.0351562 6.910156 0 6.796875 0 C 6.660156 0 6.566406 -0.0390625 6.515625 -0.125 L 1.765625 -6.34375 L 1.765625 -0.390625 C 1.765625 -0.285156 1.726562 -0.191406 1.65625 -0.109375 C 1.582031 -0.0351562 1.488281 0 1.375 0 Z M 1.375 0 "/></g></g></g><g fill="#3fa796" fill-opacity="1"><g transform="translate(250.14674, 211.45501)"><g><path d="M 6.796875 -0.546875 C 6.816406 -0.492188 6.828125 -0.441406 6.828125 -0.390625 C 6.828125 -0.285156 6.789062 -0.191406 6.71875 -0.109375 C 6.644531 -0.0351562 6.554688 0 6.453125 0 C 6.273438 0 6.148438 -0.078125 6.078125 -0.234375 L 5.421875 -1.84375 L 1.578125 -1.84375 L 0.921875 -0.234375 C 0.867188 -0.078125 0.75 0 0.5625 0 C 0.445312 0 0.351562 -0.0351562 0.28125 -0.109375 C 0.21875 -0.191406 0.1875 -0.285156 0.1875 -0.390625 C 0.1875 -0.453125 0.195312 -0.507812 0.21875 -0.5625 L 3.125 -7.46875 C 3.195312 -7.644531 3.320312 -7.734375 3.5 -7.734375 C 3.6875 -7.734375 3.8125 -7.644531 3.875 -7.46875 Z M 1.859375 -2.5 L 5.15625 -2.5 L 3.5 -6.484375 Z M 1.859375 -2.5 "/></g></g></g><g fill="#3fa796" fill-opacity="1"><g transform="translate(261.793342, 211.45501)"><g><path d="M 1.375 0 C 1.257812 0 1.164062 -0.0351562 1.09375 -0.109375 C 1.019531 -0.179688 0.984375 -0.273438 0.984375 -0.390625 L 0.984375 -7.34375 C 0.984375 -7.457031 1.019531 -7.550781 1.09375 -7.625 C 1.164062 -7.695312 1.257812 -7.734375 1.375 -7.734375 C 1.5 -7.734375 1.597656 -7.6875 1.671875 -7.59375 L 6.40625 -1.375 L 6.40625 -7.34375 C 6.40625 -7.457031 6.441406 -7.550781 6.515625 -7.625 C 6.597656 -7.695312 6.691406 -7.734375 6.796875 -7.734375 C 6.910156 -7.734375 7.003906 -7.695312 7.078125 -7.625 C 7.148438 -7.550781 7.1875 -7.457031 7.1875 -7.34375 L 7.1875 -0.390625 C 7.1875 -0.285156 7.148438 -0.191406 7.078125 -0.109375 C 7.003906 -0.0351562 6.910156 0 6.796875 0 C 6.660156 0 6.566406 -0.0390625 6.515625 -0.125 L 1.765625 -6.34375 L 1.765625 -0.390625 C 1.765625 -0.285156 1.726562 -0.191406 1.65625 -0.109375 C 1.582031 -0.0351562 1.488281 0 1.375 0 Z M 1.375 0 "/></g></g></g><g fill="#3fa796" fill-opacity="1"><g transform="translate(274.646294, 211.45501)"><g><path d="M 4.46875 0.09375 C 3.769531 0.09375 3.125 -0.0820312 2.53125 -0.4375 C 1.945312 -0.789062 1.476562 -1.269531 1.125 -1.875 C 0.78125 -2.488281 0.609375 -3.15625 0.609375 -3.875 C 0.609375 -4.582031 0.78125 -5.238281 1.125 -5.84375 C 1.46875 -6.457031 1.929688 -6.941406 2.515625 -7.296875 C 3.109375 -7.648438 3.757812 -7.828125 4.46875 -7.828125 C 4.945312 -7.828125 5.378906 -7.757812 5.765625 -7.625 C 6.148438 -7.488281 6.523438 -7.269531 6.890625 -6.96875 C 6.960938 -6.914062 7 -6.835938 7 -6.734375 C 7 -6.679688 6.984375 -6.632812 6.953125 -6.59375 C 6.929688 -6.550781 6.898438 -6.519531 6.859375 -6.5 C 6.835938 -6.445312 6.804688 -6.40625 6.765625 -6.375 C 6.722656 -6.351562 6.675781 -6.34375 6.625 -6.34375 C 6.519531 -6.34375 6.4375 -6.375 6.375 -6.4375 C 6.113281 -6.664062 5.832031 -6.832031 5.53125 -6.9375 C 5.226562 -7.050781 4.875 -7.109375 4.46875 -7.109375 C 3.914062 -7.109375 3.398438 -6.957031 2.921875 -6.65625 C 2.441406 -6.363281 2.0625 -5.96875 1.78125 -5.46875 C 1.5 -4.976562 1.359375 -4.445312 1.359375 -3.875 C 1.359375 -3.28125 1.5 -2.734375 1.78125 -2.234375 C 2.0625 -1.742188 2.4375 -1.351562 2.90625 -1.0625 C 3.382812 -0.78125 3.90625 -0.640625 4.46875 -0.640625 C 5.1875 -0.640625 5.835938 -0.867188 6.421875 -1.328125 C 6.492188 -1.378906 6.566406 -1.40625 6.640625 -1.40625 C 6.734375 -1.40625 6.816406 -1.367188 6.890625 -1.296875 C 6.960938 -1.234375 7 -1.144531 7 -1.03125 C 7 -0.925781 6.960938 -0.832031 6.890625 -0.75 C 6.273438 -0.1875 5.46875 0.09375 4.46875 0.09375 Z M 4.46875 0.09375 "/></g></g></g><g fill="#3fa796" fill-opacity="1"><g transform="translate(286.965282, 211.45501)"><g><path d="M 1.375 0 C 1.269531 0 1.175781 -0.0351562 1.09375 -0.109375 C 1.019531 -0.191406 0.984375 -0.285156 0.984375 -0.390625 L 0.984375 -7.34375 C 0.984375 -7.457031 1.019531 -7.550781 1.09375 -7.625 C 1.175781 -7.695312 1.269531 -7.734375 1.375 -7.734375 L 6.015625 -7.734375 C 6.128906 -7.734375 6.222656 -7.695312 6.296875 -7.625 C 6.367188 -7.550781 6.40625 -7.460938 6.40625 -7.359375 C 6.40625 -7.253906 6.367188 -7.164062 6.296875 -7.09375 C 6.222656 -7.03125 6.128906 -7 6.015625 -7 L 1.765625 -7 L 1.765625 -4.265625 L 4.859375 -4.265625 C 4.972656 -4.265625 5.066406 -4.226562 5.140625 -4.15625 C 5.210938 -4.082031 5.25 -3.992188 5.25 -3.890625 C 5.25 -3.773438 5.207031 -3.679688 5.125 -3.609375 C 5.050781 -3.535156 4.960938 -3.5 4.859375 -3.5 L 1.765625 -3.5 L 1.765625 -0.75 L 6.015625 -0.75 C 6.128906 -0.75 6.222656 -0.710938 6.296875 -0.640625 C 6.367188 -0.566406 6.40625 -0.476562 6.40625 -0.375 C 6.40625 -0.269531 6.367188 -0.179688 6.296875 -0.109375 C 6.222656 -0.0351562 6.128906 0 6.015625 0 Z M 1.375 0 "/></g></g></g><g fill="#3fa796" fill-opacity="1"><g transform="translate(298.503111, 211.45501)"><g><path d="M 1.375 0 C 1.269531 0 1.175781 -0.0351562 1.09375 -0.109375 C 1.019531 -0.191406 0.984375 -0.285156 0.984375 -0.390625 L 0.984375 -7.34375 C 0.984375 -7.457031 1.019531 -7.550781 1.09375 -7.625 C 1.175781 -7.695312 1.269531 -7.734375 1.375 -7.734375 C 1.488281 -7.734375 1.582031 -7.695312 1.65625 -7.625 C 1.726562 -7.550781 1.765625 -7.457031 1.765625 -7.34375 L 1.765625 -0.390625 C 1.765625 -0.285156 1.726562 -0.191406 1.65625 -0.109375 C 1.582031 -0.0351562 1.488281 0 1.375 0 Z M 1.375 0 "/></g></g></g><g fill="#3fa796" fill-opacity="1"><g transform="translate(305.947273, 211.45501)"><g><path d="M 5.828125 -0.59375 C 5.878906 -0.5 5.90625 -0.410156 5.90625 -0.328125 C 5.90625 -0.222656 5.867188 -0.140625 5.796875 -0.078125 C 5.734375 -0.0234375 5.640625 0 5.515625 0 C 5.441406 0 5.375 -0.015625 5.3125 -0.046875 C 5.257812 -0.078125 5.21875 -0.128906 5.1875 -0.203125 L 3.390625 -3.03125 L 1.765625 -3.03125 L 1.765625 -0.390625 C 1.765625 -0.273438 1.726562 -0.179688 1.65625 -0.109375 C 1.582031 -0.0351562 1.488281 0 1.375 0 C 1.257812 0 1.164062 -0.0351562 1.09375 -0.109375 C 1.019531 -0.179688 0.984375 -0.273438 0.984375 -0.390625 L 0.984375 -7.34375 C 0.984375 -7.457031 1.019531 -7.550781 1.09375 -7.625 C 1.164062 -7.695312 1.257812 -7.734375 1.375 -7.734375 L 3.234375 -7.734375 C 3.710938 -7.734375 4.140625 -7.628906 4.515625 -7.421875 C 4.890625 -7.222656 5.179688 -6.941406 5.390625 -6.578125 C 5.609375 -6.222656 5.71875 -5.8125 5.71875 -5.34375 C 5.71875 -4.84375 5.582031 -4.398438 5.3125 -4.015625 C 5.039062 -3.628906 4.671875 -3.351562 4.203125 -3.1875 Z M 3.234375 -3.78125 C 3.554688 -3.78125 3.851562 -3.847656 4.125 -3.984375 C 4.394531 -4.117188 4.601562 -4.300781 4.75 -4.53125 C 4.894531 -4.769531 4.96875 -5.039062 4.96875 -5.34375 C 4.96875 -5.664062 4.894531 -5.953125 4.75 -6.203125 C 4.601562 -6.453125 4.394531 -6.644531 4.125 -6.78125 C 3.863281 -6.925781 3.566406 -7 3.234375 -7 L 1.765625 -7 L 1.765625 -3.78125 Z M 3.234375 -3.78125 "/></g></g></g><g fill="#3fa796" fill-opacity="1"><g transform="translate(316.753391, 211.45501)"><g><path d="M 6.796875 -0.546875 C 6.816406 -0.492188 6.828125 -0.441406 6.828125 -0.390625 C 6.828125 -0.285156 6.789062 -0.191406 6.71875 -0.109375 C 6.644531 -0.0351562 6.554688 0 6.453125 0 C 6.273438 0 6.148438 -0.078125 6.078125 -0.234375 L 5.421875 -1.84375 L 1.578125 -1.84375 L 0.921875 -0.234375 C 0.867188 -0.078125 0.75 0 0.5625 0 C 0.445312 0 0.351562 -0.0351562 0.28125 -0.109375 C 0.21875 -0.191406 0.1875 -0.285156 0.1875 -0.390625 C 0.1875 -0.453125 0.195312 -0.507812 0.21875 -0.5625 L 3.125 -7.46875 C 3.195312 -7.644531 3.320312 -7.734375 3.5 -7.734375 C 3.6875 -7.734375 3.8125 -7.644531 3.875 -7.46875 Z M 1.859375 -2.5 L 5.15625 -2.5 L 3.5 -6.484375 Z M 1.859375 -2.5 "/></g></g></g><g fill="#3fa796" fill-opacity="1"><g transform="translate(328.399999, 211.45501)"><g><path d="M 3.375 0.09375 C 2.738281 0.09375 2.175781 -0.0351562 1.6875 -0.296875 C 1.207031 -0.566406 0.863281 -0.929688 0.65625 -1.390625 C 0.625 -1.429688 0.609375 -1.484375 0.609375 -1.546875 C 0.609375 -1.640625 0.644531 -1.71875 0.71875 -1.78125 C 0.789062 -1.84375 0.882812 -1.875 1 -1.875 C 1.082031 -1.875 1.15625 -1.851562 1.21875 -1.8125 C 1.289062 -1.769531 1.34375 -1.707031 1.375 -1.625 C 1.53125 -1.320312 1.785156 -1.082031 2.140625 -0.90625 C 2.492188 -0.726562 2.90625 -0.640625 3.375 -0.640625 C 3.914062 -0.640625 4.347656 -0.769531 4.671875 -1.03125 C 5.003906 -1.289062 5.171875 -1.65625 5.171875 -2.125 C 5.171875 -2.539062 5.015625 -2.890625 4.703125 -3.171875 C 4.398438 -3.453125 3.941406 -3.632812 3.328125 -3.71875 C 2.554688 -3.8125 1.953125 -4.050781 1.515625 -4.4375 C 1.078125 -4.820312 0.859375 -5.296875 0.859375 -5.859375 C 0.859375 -6.253906 0.960938 -6.597656 1.171875 -6.890625 C 1.390625 -7.191406 1.6875 -7.421875 2.0625 -7.578125 C 2.445312 -7.742188 2.882812 -7.828125 3.375 -7.828125 C 3.894531 -7.828125 4.351562 -7.710938 4.75 -7.484375 C 5.144531 -7.253906 5.453125 -6.957031 5.671875 -6.59375 C 5.722656 -6.519531 5.75 -6.4375 5.75 -6.34375 C 5.75 -6.21875 5.6875 -6.117188 5.5625 -6.046875 C 5.507812 -6.023438 5.453125 -6.015625 5.390625 -6.015625 C 5.316406 -6.015625 5.25 -6.03125 5.1875 -6.0625 C 5.125 -6.101562 5.070312 -6.15625 5.03125 -6.21875 C 4.664062 -6.800781 4.109375 -7.097656 3.359375 -7.109375 C 2.828125 -7.109375 2.40625 -6.992188 2.09375 -6.765625 C 1.78125 -6.535156 1.625 -6.21875 1.625 -5.8125 C 1.625 -5.03125 2.25 -4.554688 3.5 -4.390625 C 4.3125 -4.273438 4.921875 -4.023438 5.328125 -3.640625 C 5.734375 -3.265625 5.9375 -2.757812 5.9375 -2.125 C 5.9375 -1.664062 5.820312 -1.265625 5.59375 -0.921875 C 5.375 -0.585938 5.066406 -0.332031 4.671875 -0.15625 C 4.285156 0.0078125 3.851562 0.09375 3.375 0.09375 Z M 3.375 0.09375 "/></g></g></g></svg>