<svg xmlns="http://www.w3.org/2000/svg" xmlns:xlink="http://www.w3.org/1999/xlink" width="500" zoomAndPan="magnify" viewBox="0 0 375 374.999991" height="500" preserveAspectRatio="xMidYMid meet" version="1.0"><defs><filter x="0%" y="0%" width="100%" height="100%" id="fc45759275"><feColorMatrix values="0 0 0 0 1 0 0 0 0 1 0 0 0 0 1 0 0 0 1 0" color-interpolation-filters="sRGB"/></filter><g/><clipPath id="4c2023f672"><path d="M 49.738281 155.636719 L 79.738281 155.636719 L 79.738281 185.636719 L 49.738281 185.636719 Z M 49.738281 155.636719 " clip-rule="nonzero"/></clipPath><clipPath id="cfd8c39145"><path d="M 49.738281 170.636719 C 49.738281 178.921875 56.453125 185.636719 64.738281 185.636719 C 73.023438 185.636719 79.738281 178.921875 79.738281 170.636719 C 79.738281 162.351562 73.023438 155.636719 64.738281 155.636719 C 56.453125 155.636719 49.738281 162.351562 49.738281 170.636719 " clip-rule="nonzero"/></clipPath><clipPath id="f6f05b5f65"><path d="M 49.738281 189.355469 L 79.738281 189.355469 L 79.738281 219.355469 L 49.738281 219.355469 Z M 49.738281 189.355469 " clip-rule="nonzero"/></clipPath><clipPath id="8b79d82af2"><path d="M 59.742188 218.464844 C 61.28125 219.003906 63.03125 219.355469 64.746094 219.355469 C 66.460938 219.355469 68.113281 219.054688 69.636719 218.515625 C 69.667969 218.5 69.699219 218.5 69.734375 218.480469 C 75.449219 216.328125 79.65625 210.640625 79.738281 204.171875 L 79.738281 196.765625 C 79.738281 194.800781 78.957031 192.914062 77.566406 191.527344 C 76.179688 190.136719 74.292969 189.355469 72.332031 189.355469 L 57.140625 189.355469 C 53.050781 189.355469 49.738281 192.671875 49.738281 196.757812 L 49.738281 204.160156 C 49.820312 210.675781 53.964844 216.363281 59.742188 218.464844 " clip-rule="nonzero"/></clipPath><clipPath id="3bf7192d51"><path d="M 37.5 189.355469 L 67.5 189.355469 L 67.5 219.355469 L 37.5 219.355469 Z M 37.5 189.355469 " clip-rule="nonzero"/></clipPath><clipPath id="d0b501fd07"><path d="M 47.503906 218.464844 C 49.042969 219.003906 50.792969 219.355469 52.507812 219.355469 C 54.222656 219.355469 55.875 219.054688 57.398438 218.515625 C 57.429688 218.5 57.460938 218.5 57.496094 218.480469 C 63.210938 216.328125 67.417969 210.640625 67.5 204.171875 L 67.5 196.765625 C 67.5 194.800781 66.71875 192.914062 65.332031 191.527344 C 63.941406 190.136719 62.058594 189.355469 60.09375 189.355469 L 44.902344 189.355469 C 40.8125 189.355469 37.5 192.671875 37.5 196.757812 L 37.5 204.160156 C 37.582031 210.675781 41.726562 216.363281 47.503906 218.464844 " clip-rule="nonzero"/></clipPath><clipPath id="0fe53ba3ae"><path d="M 37.734375 155.636719 L 67.734375 155.636719 L 67.734375 185.636719 L 37.734375 185.636719 Z M 37.734375 155.636719 " clip-rule="nonzero"/></clipPath><clipPath id="bce7dd12a6"><path d="M 52.734375 185.636719 C 61.019531 185.636719 67.734375 178.921875 67.734375 170.636719 C 67.734375 162.351562 61.019531 155.636719 52.734375 155.636719 C 44.449219 155.636719 37.734375 162.351562 37.734375 170.636719 C 37.734375 178.921875 44.449219 185.636719 52.734375 185.636719 " clip-rule="nonzero"/></clipPath><mask id="52e2099226"><g filter="url(#fc45759275)"><rect x="-37.5" width="450" fill="#000000" y="-37.499999" height="449.999989" fill-opacity="0.8"/></g></mask><clipPath id="a96b1774ad"><path d="M 33.738281 33.753906 L 63.738281 33.753906 L 63.738281 63.753906 L 33.738281 63.753906 Z M 33.738281 33.753906 " clip-rule="nonzero"/></clipPath><clipPath id="bfa03a7ac8"><path d="M 33.738281 48.753906 C 33.738281 57.035156 40.453125 63.753906 48.738281 63.753906 C 57.023438 63.753906 63.738281 57.035156 63.738281 48.753906 C 63.738281 40.46875 57.023438 33.753906 48.738281 33.753906 C 40.453125 33.753906 33.738281 40.46875 33.738281 48.753906 " clip-rule="nonzero"/></clipPath><clipPath id="b925057f78"><rect x="0" width="97" y="0" height="97"/></clipPath><mask id="80dd4c0fdd"><g filter="url(#fc45759275)"><rect x="-37.5" width="450" fill="#000000" y="-37.499999" height="449.999989" fill-opacity="0.8"/></g></mask><clipPath id="355aedd586"><path d="M 33.621094 33.355469 L 63.621094 33.355469 L 63.621094 63.355469 L 33.621094 63.355469 Z M 33.621094 33.355469 " clip-rule="nonzero"/></clipPath><clipPath id="cfcd4d2d75"><path d="M 43.625 62.464844 C 45.164062 63.003906 46.914062 63.355469 48.628906 63.355469 C 50.34375 63.355469 51.996094 63.054688 53.519531 62.515625 C 53.550781 62.5 53.582031 62.5 53.617188 62.480469 C 59.332031 60.328125 63.539062 54.640625 63.621094 48.171875 L 63.621094 40.765625 C 63.621094 38.800781 62.839844 36.914062 61.453125 35.527344 C 60.0625 34.136719 58.179688 33.355469 56.214844 33.355469 L 41.023438 33.355469 C 36.933594 33.355469 33.621094 36.671875 33.621094 40.757812 L 33.621094 48.160156 C 33.703125 54.675781 37.847656 60.363281 43.625 62.464844 " clip-rule="nonzero"/></clipPath><clipPath id="1d54efaf7a"><rect x="0" width="97" y="0" height="97"/></clipPath></defs><rect x="-37.5" width="450" fill="#ffffff" y="-37.499999" height="449.999989" fill-opacity="1"/><rect x="-37.5" width="450" fill="#ffffff" y="-37.499999" height="449.999989" fill-opacity="1"/><g clip-path="url(#4c2023f672)"><g clip-path="url(#cfd8c39145)"><path stroke-linecap="butt" transform="matrix(0.000000000000000046, -0.744186, 0.744186, 0.000000000000000046, 49.737848, 185.635651)" fill="none" stroke-linejoin="miter" d="M 20.154817 0.000581597 C 9.021637 0.000581597 -0.00143478 9.023653 -0.00143478 20.156833 C -0.00143478 31.290012 9.021637 40.313084 20.154817 40.313084 C 31.287996 40.313084 40.311068 31.290012 40.311068 20.156833 C 40.311068 9.023653 31.287996 0.000581597 20.154817 0.000581597 " stroke="#fec260" stroke-width="22" stroke-opacity="1" stroke-miterlimit="4"/></g></g><g clip-path="url(#f6f05b5f65)"><g clip-path="url(#8b79d82af2)"><path stroke-linecap="butt" transform="matrix(0.744186, 0, 0, 0.744186, 49.737848, 189.356472)" fill="none" stroke-linejoin="miter" d="M 13.443332 39.11438 C 15.511448 39.838745 17.863011 40.311158 20.167332 40.311158 C 22.471654 40.311158 24.691991 39.906983 26.73911 39.182617 C 26.781103 39.161621 26.823095 39.161621 26.870336 39.135376 C 34.549658 36.243164 40.202857 28.600585 40.313087 19.908201 L 40.313087 9.956051 C 40.313087 7.315792 39.263282 4.780513 37.394629 2.91711 C 35.531226 1.048457 32.995947 -0.00134753 30.360937 -0.00134753 L 9.947482 -0.00134753 C 4.451754 -0.00134753 0.000581597 4.455074 0.000581597 9.945553 L 0.000581597 19.892454 C 0.110811 28.647826 5.680026 36.290405 13.443332 39.11438 " stroke="#3fa796" stroke-width="22" stroke-opacity="1" stroke-miterlimit="4"/></g></g><g clip-path="url(#3bf7192d51)"><g clip-path="url(#d0b501fd07)"><path stroke-linecap="butt" transform="matrix(0.744186, 0, 0, 0.744186, 37.500002, 189.356472)" fill="none" stroke-linejoin="miter" d="M 13.442748 39.11438 C 15.510864 39.838745 17.862426 40.311158 20.166748 40.311158 C 22.471069 40.311158 24.691407 39.906983 26.738526 39.182617 C 26.780518 39.161621 26.82251 39.161621 26.869752 39.135376 C 34.549074 36.243164 40.202273 28.600585 40.312502 19.908201 L 40.312502 9.956051 C 40.312502 7.315792 39.262698 4.780513 37.399294 2.91711 C 35.530641 1.048457 33.000612 -0.00134753 30.360353 -0.00134753 L 9.946898 -0.00134753 C 4.45117 -0.00134753 -0.00000273789 4.455074 -0.00000273789 9.945553 L -0.00000273789 19.892454 C 0.110227 28.647826 5.679441 36.290405 13.442748 39.11438 " stroke="#2a0944" stroke-width="22" stroke-opacity="1" stroke-miterlimit="4"/></g></g><g clip-path="url(#0fe53ba3ae)"><g clip-path="url(#bce7dd12a6)"><path stroke-linecap="butt" transform="matrix(-0.744186, -0.000000000000000091, 0.000000000000000091, -0.744186, 67.734374, 185.635651)" fill="none" stroke-linejoin="miter" d="M 20.156251 -0.00143478 C 9.023071 -0.00143478 -0.000000736228 9.021637 -0.000000736228 20.154817 C -0.000000736228 31.287996 9.023071 40.311068 20.156251 40.311068 C 31.28943 40.311068 40.312502 31.287996 40.312502 20.154817 C 40.312502 9.021637 31.28943 -0.00143478 20.156251 -0.00143478 " stroke="#2a0944" stroke-width="22" stroke-opacity="1" stroke-miterlimit="4"/></g></g><g mask="url(#52e2099226)"><g transform="matrix(1, 0, 0, 1, 16, 122)"><g clip-path="url(#b925057f78)"><g clip-path="url(#a96b1774ad)"><g clip-path="url(#bfa03a7ac8)"><path stroke-linecap="butt" transform="matrix(0.000000000000000046, -0.744186, 0.744186, 0.000000000000000046, 33.737848, 63.752488)" fill="none" stroke-linejoin="miter" d="M 20.154345 0.000582242 C 9.026415 0.000582242 -0.00190604 9.023654 -0.00190604 20.156834 C -0.00190604 31.290013 9.026415 40.313085 20.154345 40.313085 C 31.287525 40.313085 40.310597 31.290013 40.310597 20.156834 C 40.310597 9.023654 31.287525 0.000582242 20.154345 0.000582242 " stroke="#fec260" stroke-width="22" stroke-opacity="1" stroke-miterlimit="4"/></g></g></g></g></g><g mask="url(#80dd4c0fdd)"><g transform="matrix(1, 0, 0, 1, 16, 156)"><g clip-path="url(#1d54efaf7a)"><g clip-path="url(#355aedd586)"><g clip-path="url(#cfcd4d2d75)"><path stroke-linecap="butt" transform="matrix(0.744186, 0, 0, 0.744186, 33.621085, 33.356472)" fill="none" stroke-linejoin="miter" d="M 13.442762 39.114379 C 15.510878 39.838745 17.86244 40.311157 20.166762 40.311157 C 22.471084 40.311157 24.691421 39.906982 26.73854 39.182617 C 26.780532 39.161621 26.822525 39.161621 26.869766 39.135376 C 34.549088 36.243163 40.202287 28.600584 40.312516 19.9082 L 40.312516 9.956051 C 40.312516 7.315791 39.262712 4.780513 37.399308 2.917109 C 35.530656 1.048457 33.000626 -0.00134818 30.360367 -0.00134818 L 9.946912 -0.00134818 C 4.451184 -0.00134818 0.0000113257 4.455073 0.0000113257 9.945553 L 0.0000113257 19.892453 C 0.110241 28.647825 5.679455 36.290405 13.442762 39.114379 " stroke="#3fa796" stroke-width="22" stroke-opacity="1" stroke-miterlimit="4"/></g></g></g></g></g><g fill="#3fa796" fill-opacity="1"><g transform="translate(96.382591, 196.737333)"><g><path d="M 10.640625 -17.34375 C 12.253906 -17.34375 13.71875 -16.957031 15.03125 -16.1875 C 16.34375 -15.425781 17.378906 -14.378906 18.140625 -13.046875 C 18.910156 -11.710938 19.296875 -10.226562 19.296875 -8.59375 L 19.296875 -1.578125 C 19.296875 -1.109375 19.140625 -0.722656 18.828125 -0.421875 C 18.523438 -0.117188 18.144531 0.03125 17.6875 0.03125 C 17.226562 0.03125 16.84375 -0.117188 16.53125 -0.421875 C 16.226562 -0.722656 16.078125 -1.109375 16.078125 -1.578125 L 16.078125 -2.734375 C 15.347656 -1.835938 14.457031 -1.132812 13.40625 -0.625 C 12.351562 -0.125 11.21875 0.125 10 0.125 C 8.488281 0.125 7.117188 -0.25 5.890625 -1 C 4.671875 -1.757812 3.707031 -2.804688 3 -4.140625 C 2.300781 -5.472656 1.953125 -6.957031 1.953125 -8.59375 C 1.953125 -10.226562 2.328125 -11.710938 3.078125 -13.046875 C 3.835938 -14.378906 4.882812 -15.425781 6.21875 -16.1875 C 7.550781 -16.957031 9.023438 -17.34375 10.640625 -17.34375 Z M 10.640625 -2.703125 C 11.679688 -2.703125 12.628906 -2.957031 13.484375 -3.46875 C 14.335938 -3.988281 15.003906 -4.691406 15.484375 -5.578125 C 15.960938 -6.472656 16.203125 -7.476562 16.203125 -8.59375 C 16.203125 -9.707031 15.960938 -10.710938 15.484375 -11.609375 C 15.003906 -12.515625 14.335938 -13.222656 13.484375 -13.734375 C 12.628906 -14.242188 11.679688 -14.5 10.640625 -14.5 C 9.585938 -14.5 8.632812 -14.242188 7.78125 -13.734375 C 6.9375 -13.222656 6.265625 -12.515625 5.765625 -11.609375 C 5.273438 -10.710938 5.03125 -9.707031 5.03125 -8.59375 C 5.03125 -7.476562 5.273438 -6.472656 5.765625 -5.578125 C 6.265625 -4.691406 6.9375 -3.988281 7.78125 -3.46875 C 8.632812 -2.957031 9.585938 -2.703125 10.640625 -2.703125 Z M 10.640625 -2.703125 "/></g></g></g><g fill="#3fa796" fill-opacity="1"><g transform="translate(117.621421, 196.737333)"><g><path d="M -1.578125 7.359375 C -2.035156 7.359375 -2.410156 7.207031 -2.703125 6.90625 C -2.992188 6.601562 -3.140625 6.222656 -3.140625 5.765625 C -3.140625 5.296875 -2.992188 4.910156 -2.703125 4.609375 C -2.410156 4.304688 -2.035156 4.15625 -1.578125 4.15625 C -0.335938 4.15625 0.675781 3.757812 1.46875 2.96875 C 2.269531 2.1875 2.671875 1.175781 2.671875 -0.0625 L 2.671875 -15.609375 C 2.671875 -16.085938 2.820312 -16.472656 3.125 -16.765625 C 3.4375 -17.066406 3.820312 -17.21875 4.28125 -17.21875 C 4.757812 -17.21875 5.144531 -17.066406 5.4375 -16.765625 C 5.738281 -16.472656 5.890625 -16.085938 5.890625 -15.609375 L 5.890625 -0.0625 C 5.890625 1.363281 5.570312 2.640625 4.9375 3.765625 C 4.3125 4.898438 3.429688 5.78125 2.296875 6.40625 C 1.160156 7.039062 -0.128906 7.359375 -1.578125 7.359375 Z M 4.28125 -20.015625 C 3.707031 -20.015625 3.21875 -20.21875 2.8125 -20.625 C 2.40625 -21.03125 2.203125 -21.519531 2.203125 -22.09375 C 2.203125 -22.65625 2.40625 -23.140625 2.8125 -23.546875 C 3.21875 -23.960938 3.707031 -24.171875 4.28125 -24.171875 C 4.84375 -24.171875 5.328125 -23.960938 5.734375 -23.546875 C 6.148438 -23.140625 6.359375 -22.65625 6.359375 -22.09375 C 6.359375 -21.519531 6.148438 -21.03125 5.734375 -20.625 C 5.328125 -20.21875 4.84375 -20.015625 4.28125 -20.015625 Z M 4.28125 -20.015625 "/></g></g></g><g fill="#3fa796" fill-opacity="1"><g transform="translate(126.65186, 196.737333)"><g><path d="M 17.03125 -17.25 C 17.507812 -17.25 17.894531 -17.097656 18.1875 -16.796875 C 18.476562 -16.503906 18.625 -16.117188 18.625 -15.640625 L 18.625 -1.609375 C 18.625 -1.140625 18.476562 -0.753906 18.1875 -0.453125 C 17.894531 -0.148438 17.507812 0 17.03125 0 C 16.5625 0 16.175781 -0.148438 15.875 -0.453125 C 15.570312 -0.753906 15.421875 -1.140625 15.421875 -1.609375 L 15.421875 -1.953125 C 14.742188 -1.273438 13.941406 -0.753906 13.015625 -0.390625 C 12.097656 -0.0234375 11.113281 0.15625 10.0625 0.15625 C 8.625 0.15625 7.328125 -0.15625 6.171875 -0.78125 C 5.015625 -1.414062 4.109375 -2.332031 3.453125 -3.53125 C 2.804688 -4.738281 2.484375 -6.195312 2.484375 -7.90625 L 2.484375 -15.640625 C 2.484375 -16.097656 2.632812 -16.476562 2.9375 -16.78125 C 3.25 -17.09375 3.632812 -17.25 4.09375 -17.25 C 4.550781 -17.25 4.929688 -17.09375 5.234375 -16.78125 C 5.546875 -16.476562 5.703125 -16.097656 5.703125 -15.640625 L 5.703125 -7.90625 C 5.703125 -6.195312 6.15625 -4.90625 7.0625 -4.03125 C 7.976562 -3.164062 9.191406 -2.734375 10.703125 -2.734375 C 11.578125 -2.734375 12.375 -2.910156 13.09375 -3.265625 C 13.820312 -3.628906 14.390625 -4.113281 14.796875 -4.71875 C 15.210938 -5.332031 15.421875 -6.015625 15.421875 -6.765625 L 15.421875 -15.640625 C 15.421875 -16.117188 15.570312 -16.503906 15.875 -16.796875 C 16.175781 -17.097656 16.5625 -17.25 17.03125 -17.25 Z M 17.03125 -17.25 "/></g></g></g><g fill="#3fa796" fill-opacity="1"><g transform="translate(148.11095, 196.737333)"><g><path d="M 17.6875 -24.578125 C 18.164062 -24.578125 18.550781 -24.429688 18.84375 -24.140625 C 19.144531 -23.847656 19.296875 -23.457031 19.296875 -22.96875 L 19.296875 -8.625 C 19.296875 -6.988281 18.910156 -5.503906 18.140625 -4.171875 C 17.378906 -2.835938 16.34375 -1.785156 15.03125 -1.015625 C 13.71875 -0.253906 12.253906 0.125 10.640625 0.125 C 9.023438 0.125 7.550781 -0.253906 6.21875 -1.015625 C 4.882812 -1.785156 3.835938 -2.835938 3.078125 -4.171875 C 2.328125 -5.503906 1.953125 -6.988281 1.953125 -8.625 C 1.953125 -10.257812 2.300781 -11.742188 3 -13.078125 C 3.707031 -14.410156 4.671875 -15.453125 5.890625 -16.203125 C 7.117188 -16.960938 8.488281 -17.34375 10 -17.34375 C 11.21875 -17.34375 12.351562 -17.085938 13.40625 -16.578125 C 14.457031 -16.078125 15.347656 -15.375 16.078125 -14.46875 L 16.078125 -22.96875 C 16.078125 -23.457031 16.226562 -23.847656 16.53125 -24.140625 C 16.84375 -24.429688 17.226562 -24.578125 17.6875 -24.578125 Z M 10.640625 -2.703125 C 11.679688 -2.703125 12.628906 -2.957031 13.484375 -3.46875 C 14.335938 -3.988281 15.003906 -4.695312 15.484375 -5.59375 C 15.960938 -6.5 16.203125 -7.507812 16.203125 -8.625 C 16.203125 -9.738281 15.960938 -10.738281 15.484375 -11.625 C 15.003906 -12.519531 14.335938 -13.222656 13.484375 -13.734375 C 12.628906 -14.242188 11.679688 -14.5 10.640625 -14.5 C 9.585938 -14.5 8.632812 -14.242188 7.78125 -13.734375 C 6.9375 -13.222656 6.265625 -12.519531 5.765625 -11.625 C 5.273438 -10.738281 5.03125 -9.738281 5.03125 -8.625 C 5.03125 -7.507812 5.273438 -6.5 5.765625 -5.59375 C 6.265625 -4.695312 6.9375 -3.988281 7.78125 -3.46875 C 8.632812 -2.957031 9.585938 -2.703125 10.640625 -2.703125 Z M 10.640625 -2.703125 "/></g></g></g><g fill="#3fa796" fill-opacity="1"><g transform="translate(170.230805, 196.737333)"><g><path d="M 10.640625 -17.34375 C 12.253906 -17.34375 13.71875 -16.957031 15.03125 -16.1875 C 16.34375 -15.425781 17.378906 -14.378906 18.140625 -13.046875 C 18.910156 -11.710938 19.296875 -10.226562 19.296875 -8.59375 L 19.296875 -1.578125 C 19.296875 -1.109375 19.140625 -0.722656 18.828125 -0.421875 C 18.523438 -0.117188 18.144531 0.03125 17.6875 0.03125 C 17.226562 0.03125 16.84375 -0.117188 16.53125 -0.421875 C 16.226562 -0.722656 16.078125 -1.109375 16.078125 -1.578125 L 16.078125 -2.734375 C 15.347656 -1.835938 14.457031 -1.132812 13.40625 -0.625 C 12.351562 -0.125 11.21875 0.125 10 0.125 C 8.488281 0.125 7.117188 -0.25 5.890625 -1 C 4.671875 -1.757812 3.707031 -2.804688 3 -4.140625 C 2.300781 -5.472656 1.953125 -6.957031 1.953125 -8.59375 C 1.953125 -10.226562 2.328125 -11.710938 3.078125 -13.046875 C 3.835938 -14.378906 4.882812 -15.425781 6.21875 -16.1875 C 7.550781 -16.957031 9.023438 -17.34375 10.640625 -17.34375 Z M 10.640625 -2.703125 C 11.679688 -2.703125 12.628906 -2.957031 13.484375 -3.46875 C 14.335938 -3.988281 15.003906 -4.691406 15.484375 -5.578125 C 15.960938 -6.472656 16.203125 -7.476562 16.203125 -8.59375 C 16.203125 -9.707031 15.960938 -10.710938 15.484375 -11.609375 C 15.003906 -12.515625 14.335938 -13.222656 13.484375 -13.734375 C 12.628906 -14.242188 11.679688 -14.5 10.640625 -14.5 C 9.585938 -14.5 8.632812 -14.242188 7.78125 -13.734375 C 6.9375 -13.222656 6.265625 -12.515625 5.765625 -11.609375 C 5.273438 -10.710938 5.03125 -9.707031 5.03125 -8.59375 C 5.03125 -7.476562 5.273438 -6.472656 5.765625 -5.578125 C 6.265625 -4.691406 6.9375 -3.988281 7.78125 -3.46875 C 8.632812 -2.957031 9.585938 -2.703125 10.640625 -2.703125 Z M 10.640625 -2.703125 "/></g></g></g><g fill="#3fa796" fill-opacity="1"><g transform="translate(191.469635, 196.737333)"><g/></g></g><g fill="#3fa796" fill-opacity="1"><g transform="translate(200.688855, 196.737333)"><g><path d="M 10.640625 0.125 C 8.984375 0.125 7.492188 -0.25 6.171875 -1 C 4.847656 -1.757812 3.8125 -2.804688 3.0625 -4.140625 C 2.320312 -5.472656 1.953125 -6.957031 1.953125 -8.59375 C 1.953125 -10.269531 2.3125 -11.773438 3.03125 -13.109375 C 3.757812 -14.441406 4.773438 -15.476562 6.078125 -16.21875 C 7.378906 -16.96875 8.847656 -17.34375 10.484375 -17.34375 C 12.953125 -17.34375 15.003906 -16.394531 16.640625 -14.5 C 16.859375 -14.269531 16.96875 -14 16.96875 -13.6875 C 16.96875 -13.226562 16.734375 -12.84375 16.265625 -12.53125 C 16.054688 -12.375 15.816406 -12.296875 15.546875 -12.296875 C 15.066406 -12.296875 14.65625 -12.488281 14.3125 -12.875 C 13.789062 -13.4375 13.21875 -13.847656 12.59375 -14.109375 C 11.976562 -14.367188 11.273438 -14.5 10.484375 -14.5 C 8.867188 -14.5 7.554688 -13.957031 6.546875 -12.875 C 5.535156 -11.800781 5.03125 -10.375 5.03125 -8.59375 C 5.03125 -7.457031 5.265625 -6.441406 5.734375 -5.546875 C 6.210938 -4.660156 6.875 -3.960938 7.71875 -3.453125 C 8.570312 -2.953125 9.546875 -2.703125 10.640625 -2.703125 C 12.066406 -2.703125 13.21875 -3.070312 14.09375 -3.8125 C 14.5 -4.101562 14.890625 -4.25 15.265625 -4.25 C 15.554688 -4.25 15.828125 -4.15625 16.078125 -3.96875 C 16.472656 -3.632812 16.671875 -3.253906 16.671875 -2.828125 C 16.671875 -2.515625 16.546875 -2.234375 16.296875 -1.984375 C 14.785156 -0.578125 12.898438 0.125 10.640625 0.125 Z M 10.640625 0.125 "/></g></g></g><g fill="#3fa796" fill-opacity="1"><g transform="translate(219.599279, 196.737333)"><g><path d="M 4.75 0 C 4.289062 0 3.90625 -0.148438 3.59375 -0.453125 C 3.289062 -0.753906 3.140625 -1.140625 3.140625 -1.609375 L 3.140625 -15.609375 C 3.140625 -16.085938 3.289062 -16.472656 3.59375 -16.765625 C 3.90625 -17.066406 4.289062 -17.21875 4.75 -17.21875 C 5.226562 -17.21875 5.613281 -17.066406 5.90625 -16.765625 C 6.207031 -16.472656 6.359375 -16.085938 6.359375 -15.609375 L 6.359375 -1.609375 C 6.359375 -1.140625 6.207031 -0.753906 5.90625 -0.453125 C 5.613281 -0.148438 5.226562 0 4.75 0 Z M 4.75 -20.015625 C 4.175781 -20.015625 3.6875 -20.21875 3.28125 -20.625 C 2.875 -21.03125 2.671875 -21.519531 2.671875 -22.09375 C 2.671875 -22.65625 2.875 -23.140625 3.28125 -23.546875 C 3.6875 -23.960938 4.175781 -24.171875 4.75 -24.171875 C 5.3125 -24.171875 5.796875 -23.960938 6.203125 -23.546875 C 6.617188 -23.140625 6.828125 -22.65625 6.828125 -22.09375 C 6.828125 -21.519531 6.617188 -21.03125 6.203125 -20.625 C 5.796875 -20.21875 5.3125 -20.015625 4.75 -20.015625 Z M 4.75 -20.015625 "/></g></g></g><g fill="#3fa796" fill-opacity="1"><g transform="translate(229.101686, 196.737333)"><g><path d="M 17.6875 -24.578125 C 18.164062 -24.578125 18.550781 -24.429688 18.84375 -24.140625 C 19.144531 -23.847656 19.296875 -23.457031 19.296875 -22.96875 L 19.296875 -8.625 C 19.296875 -6.988281 18.910156 -5.503906 18.140625 -4.171875 C 17.378906 -2.835938 16.34375 -1.785156 15.03125 -1.015625 C 13.71875 -0.253906 12.253906 0.125 10.640625 0.125 C 9.023438 0.125 7.550781 -0.253906 6.21875 -1.015625 C 4.882812 -1.785156 3.835938 -2.835938 3.078125 -4.171875 C 2.328125 -5.503906 1.953125 -6.988281 1.953125 -8.625 C 1.953125 -10.257812 2.300781 -11.742188 3 -13.078125 C 3.707031 -14.410156 4.671875 -15.453125 5.890625 -16.203125 C 7.117188 -16.960938 8.488281 -17.34375 10 -17.34375 C 11.21875 -17.34375 12.351562 -17.085938 13.40625 -16.578125 C 14.457031 -16.078125 15.347656 -15.375 16.078125 -14.46875 L 16.078125 -22.96875 C 16.078125 -23.457031 16.226562 -23.847656 16.53125 -24.140625 C 16.84375 -24.429688 17.226562 -24.578125 17.6875 -24.578125 Z M 10.640625 -2.703125 C 11.679688 -2.703125 12.628906 -2.957031 13.484375 -3.46875 C 14.335938 -3.988281 15.003906 -4.695312 15.484375 -5.59375 C 15.960938 -6.5 16.203125 -7.507812 16.203125 -8.625 C 16.203125 -9.738281 15.960938 -10.738281 15.484375 -11.625 C 15.003906 -12.519531 14.335938 -13.222656 13.484375 -13.734375 C 12.628906 -14.242188 11.679688 -14.5 10.640625 -14.5 C 9.585938 -14.5 8.632812 -14.242188 7.78125 -13.734375 C 6.9375 -13.222656 6.265625 -12.519531 5.765625 -11.625 C 5.273438 -10.738281 5.03125 -9.738281 5.03125 -8.625 C 5.03125 -7.507812 5.273438 -6.5 5.765625 -5.59375 C 6.265625 -4.695312 6.9375 -3.988281 7.78125 -3.46875 C 8.632812 -2.957031 9.585938 -2.703125 10.640625 -2.703125 Z M 10.640625 -2.703125 "/></g></g></g><g fill="#3fa796" fill-opacity="1"><g transform="translate(251.22154, 196.737333)"><g><path d="M 10.640625 -17.34375 C 12.253906 -17.34375 13.71875 -16.957031 15.03125 -16.1875 C 16.34375 -15.425781 17.378906 -14.378906 18.140625 -13.046875 C 18.910156 -11.710938 19.296875 -10.226562 19.296875 -8.59375 L 19.296875 -1.578125 C 19.296875 -1.109375 19.140625 -0.722656 18.828125 -0.421875 C 18.523438 -0.117188 18.144531 0.03125 17.6875 0.03125 C 17.226562 0.03125 16.84375 -0.117188 16.53125 -0.421875 C 16.226562 -0.722656 16.078125 -1.109375 16.078125 -1.578125 L 16.078125 -2.734375 C 15.347656 -1.835938 14.457031 -1.132812 13.40625 -0.625 C 12.351562 -0.125 11.21875 0.125 10 0.125 C 8.488281 0.125 7.117188 -0.25 5.890625 -1 C 4.671875 -1.757812 3.707031 -2.804688 3 -4.140625 C 2.300781 -5.472656 1.953125 -6.957031 1.953125 -8.59375 C 1.953125 -10.226562 2.328125 -11.710938 3.078125 -13.046875 C 3.835938 -14.378906 4.882812 -15.425781 6.21875 -16.1875 C 7.550781 -16.957031 9.023438 -17.34375 10.640625 -17.34375 Z M 10.640625 -2.703125 C 11.679688 -2.703125 12.628906 -2.957031 13.484375 -3.46875 C 14.335938 -3.988281 15.003906 -4.691406 15.484375 -5.578125 C 15.960938 -6.472656 16.203125 -7.476562 16.203125 -8.59375 C 16.203125 -9.707031 15.960938 -10.710938 15.484375 -11.609375 C 15.003906 -12.515625 14.335938 -13.222656 13.484375 -13.734375 C 12.628906 -14.242188 11.679688 -14.5 10.640625 -14.5 C 9.585938 -14.5 8.632812 -14.242188 7.78125 -13.734375 C 6.9375 -13.222656 6.265625 -12.515625 5.765625 -11.609375 C 5.273438 -10.710938 5.03125 -9.707031 5.03125 -8.59375 C 5.03125 -7.476562 5.273438 -6.472656 5.765625 -5.578125 C 6.265625 -4.691406 6.9375 -3.988281 7.78125 -3.46875 C 8.632812 -2.957031 9.585938 -2.703125 10.640625 -2.703125 Z M 10.640625 -2.703125 "/></g></g></g><g fill="#3fa796" fill-opacity="1"><g transform="translate(272.460371, 196.737333)"><g><path d="M 17.6875 -24.578125 C 18.164062 -24.578125 18.550781 -24.429688 18.84375 -24.140625 C 19.144531 -23.847656 19.296875 -23.457031 19.296875 -22.96875 L 19.296875 -8.625 C 19.296875 -6.988281 18.910156 -5.503906 18.140625 -4.171875 C 17.378906 -2.835938 16.34375 -1.785156 15.03125 -1.015625 C 13.71875 -0.253906 12.253906 0.125 10.640625 0.125 C 9.023438 0.125 7.550781 -0.253906 6.21875 -1.015625 C 4.882812 -1.785156 3.835938 -2.835938 3.078125 -4.171875 C 2.328125 -5.503906 1.953125 -6.988281 1.953125 -8.625 C 1.953125 -10.257812 2.300781 -11.742188 3 -13.078125 C 3.707031 -14.410156 4.671875 -15.453125 5.890625 -16.203125 C 7.117188 -16.960938 8.488281 -17.34375 10 -17.34375 C 11.21875 -17.34375 12.351562 -17.085938 13.40625 -16.578125 C 14.457031 -16.078125 15.347656 -15.375 16.078125 -14.46875 L 16.078125 -22.96875 C 16.078125 -23.457031 16.226562 -23.847656 16.53125 -24.140625 C 16.84375 -24.429688 17.226562 -24.578125 17.6875 -24.578125 Z M 10.640625 -2.703125 C 11.679688 -2.703125 12.628906 -2.957031 13.484375 -3.46875 C 14.335938 -3.988281 15.003906 -4.695312 15.484375 -5.59375 C 15.960938 -6.5 16.203125 -7.507812 16.203125 -8.625 C 16.203125 -9.738281 15.960938 -10.738281 15.484375 -11.625 C 15.003906 -12.519531 14.335938 -13.222656 13.484375 -13.734375 C 12.628906 -14.242188 11.679688 -14.5 10.640625 -14.5 C 9.585938 -14.5 8.632812 -14.242188 7.78125 -13.734375 C 6.9375 -13.222656 6.265625 -12.519531 5.765625 -11.625 C 5.273438 -10.738281 5.03125 -9.738281 5.03125 -8.625 C 5.03125 -7.507812 5.273438 -6.5 5.765625 -5.59375 C 6.265625 -4.695312 6.9375 -3.988281 7.78125 -3.46875 C 8.632812 -2.957031 9.585938 -2.703125 10.640625 -2.703125 Z M 10.640625 -2.703125 "/></g></g></g><g fill="#3fa796" fill-opacity="1"><g transform="translate(294.580225, 196.737333)"><g><path d="M 10.640625 -17.34375 C 12.253906 -17.34375 13.71875 -16.957031 15.03125 -16.1875 C 16.34375 -15.425781 17.378906 -14.378906 18.140625 -13.046875 C 18.910156 -11.710938 19.296875 -10.226562 19.296875 -8.59375 L 19.296875 -1.578125 C 19.296875 -1.109375 19.140625 -0.722656 18.828125 -0.421875 C 18.523438 -0.117188 18.144531 0.03125 17.6875 0.03125 C 17.226562 0.03125 16.84375 -0.117188 16.53125 -0.421875 C 16.226562 -0.722656 16.078125 -1.109375 16.078125 -1.578125 L 16.078125 -2.734375 C 15.347656 -1.835938 14.457031 -1.132812 13.40625 -0.625 C 12.351562 -0.125 11.21875 0.125 10 0.125 C 8.488281 0.125 7.117188 -0.25 5.890625 -1 C 4.671875 -1.757812 3.707031 -2.804688 3 -4.140625 C 2.300781 -5.472656 1.953125 -6.957031 1.953125 -8.59375 C 1.953125 -10.226562 2.328125 -11.710938 3.078125 -13.046875 C 3.835938 -14.378906 4.882812 -15.425781 6.21875 -16.1875 C 7.550781 -16.957031 9.023438 -17.34375 10.640625 -17.34375 Z M 10.640625 -2.703125 C 11.679688 -2.703125 12.628906 -2.957031 13.484375 -3.46875 C 14.335938 -3.988281 15.003906 -4.691406 15.484375 -5.578125 C 15.960938 -6.472656 16.203125 -7.476562 16.203125 -8.59375 C 16.203125 -9.707031 15.960938 -10.710938 15.484375 -11.609375 C 15.003906 -12.515625 14.335938 -13.222656 13.484375 -13.734375 C 12.628906 -14.242188 11.679688 -14.5 10.640625 -14.5 C 9.585938 -14.5 8.632812 -14.242188 7.78125 -13.734375 C 6.9375 -13.222656 6.265625 -12.515625 5.765625 -11.609375 C 5.273438 -10.710938 5.03125 -9.707031 5.03125 -8.59375 C 5.03125 -7.476562 5.273438 -6.472656 5.765625 -5.578125 C 6.265625 -4.691406 6.9375 -3.988281 7.78125 -3.46875 C 8.632812 -2.957031 9.585938 -2.703125 10.640625 -2.703125 Z M 14 -19.578125 C 13.375 -19.578125 12.816406 -19.664062 12.328125 -19.84375 C 11.847656 -20.019531 11.335938 -20.253906 10.796875 -20.546875 C 9.910156 -21.023438 9.21875 -21.265625 8.71875 -21.265625 C 8.40625 -21.265625 8.128906 -21.207031 7.890625 -21.09375 C 7.660156 -20.976562 7.429688 -20.753906 7.203125 -20.421875 C 6.785156 -19.859375 6.3125 -19.578125 5.78125 -19.578125 C 5.613281 -19.578125 5.40625 -19.628906 5.15625 -19.734375 C 4.988281 -19.816406 4.851562 -19.953125 4.75 -20.140625 C 4.644531 -20.328125 4.59375 -20.535156 4.59375 -20.765625 C 4.59375 -21.078125 4.6875 -21.375 4.875 -21.65625 C 5.351562 -22.34375 5.941406 -22.867188 6.640625 -23.234375 C 7.347656 -23.609375 8.113281 -23.796875 8.9375 -23.796875 C 9.519531 -23.796875 10.035156 -23.707031 10.484375 -23.53125 C 10.941406 -23.363281 11.453125 -23.132812 12.015625 -22.84375 C 12.523438 -22.550781 12.898438 -22.359375 13.140625 -22.265625 C 13.378906 -22.171875 13.632812 -22.125 13.90625 -22.125 C 14.382812 -22.125 14.804688 -22.300781 15.171875 -22.65625 C 15.398438 -22.882812 15.597656 -23.050781 15.765625 -23.15625 C 15.929688 -23.257812 16.117188 -23.3125 16.328125 -23.3125 C 16.554688 -23.3125 16.785156 -23.238281 17.015625 -23.09375 C 17.359375 -22.882812 17.53125 -22.539062 17.53125 -22.0625 C 17.53125 -21.6875 17.410156 -21.347656 17.171875 -21.046875 C 16.378906 -20.066406 15.320312 -19.578125 14 -19.578125 Z M 14 -19.578125 "/></g></g></g><g fill="#3fa796" fill-opacity="1"><g transform="translate(315.819056, 196.737333)"><g><path d="M 10.640625 0.125 C 8.960938 0.125 7.460938 -0.242188 6.140625 -0.984375 C 4.816406 -1.734375 3.785156 -2.769531 3.046875 -4.09375 C 2.316406 -5.414062 1.953125 -6.914062 1.953125 -8.59375 C 1.953125 -10.289062 2.316406 -11.800781 3.046875 -13.125 C 3.785156 -14.445312 4.816406 -15.476562 6.140625 -16.21875 C 7.460938 -16.96875 8.960938 -17.34375 10.640625 -17.34375 C 12.296875 -17.34375 13.78125 -16.96875 15.09375 -16.21875 C 16.40625 -15.476562 17.429688 -14.445312 18.171875 -13.125 C 18.921875 -11.800781 19.296875 -10.289062 19.296875 -8.59375 C 19.296875 -6.914062 18.925781 -5.414062 18.1875 -4.09375 C 17.457031 -2.769531 16.4375 -1.734375 15.125 -0.984375 C 13.8125 -0.242188 12.316406 0.125 10.640625 0.125 Z M 10.640625 -2.703125 C 11.703125 -2.703125 12.660156 -2.953125 13.515625 -3.453125 C 14.367188 -3.960938 15.03125 -4.660156 15.5 -5.546875 C 15.96875 -6.441406 16.203125 -7.457031 16.203125 -8.59375 C 16.203125 -9.726562 15.96875 -10.742188 15.5 -11.640625 C 15.03125 -12.546875 14.367188 -13.25 13.515625 -13.75 C 12.660156 -14.25 11.703125 -14.5 10.640625 -14.5 C 9.566406 -14.5 8.601562 -14.25 7.75 -13.75 C 6.90625 -13.25 6.238281 -12.546875 5.75 -11.640625 C 5.269531 -10.742188 5.03125 -9.726562 5.03125 -8.59375 C 5.03125 -7.457031 5.269531 -6.441406 5.75 -5.546875 C 6.238281 -4.660156 6.90625 -3.960938 7.75 -3.453125 C 8.601562 -2.953125 9.566406 -2.703125 10.640625 -2.703125 Z M 10.640625 -2.703125 "/></g></g></g></svg>