<svg xmlns="http://www.w3.org/2000/svg" xmlns:xlink="http://www.w3.org/1999/xlink" width="500" zoomAndPan="magnify" viewBox="0 0 375 374.999991" height="500" preserveAspectRatio="xMidYMid meet" version="1.0"><defs><filter x="0%" y="0%" width="100%" height="100%" id="8803b3eae5"><feColorMatrix values="0 0 0 0 1 0 0 0 0 1 0 0 0 0 1 0 0 0 1 0" color-interpolation-filters="sRGB"/></filter><clipPath id="22657c0215"><path d="M 161.964844 96.730469 L 247.464844 96.730469 L 247.464844 182.230469 L 161.964844 182.230469 Z M 161.964844 96.730469 " clip-rule="nonzero"/></clipPath><clipPath id="58d3645a1f"><path d="M 161.964844 139.480469 C 161.964844 163.09375 181.105469 182.230469 204.714844 182.230469 C 228.324219 182.230469 247.464844 163.09375 247.464844 139.480469 C 247.464844 115.871094 228.324219 96.730469 204.714844 96.730469 C 181.105469 96.730469 161.964844 115.871094 161.964844 139.480469 " clip-rule="nonzero"/></clipPath><clipPath id="9d3034410a"><path d="M 161.964844 192.765625 L 247.464844 192.765625 L 247.464844 278.265625 L 161.964844 278.265625 Z M 161.964844 192.765625 " clip-rule="nonzero"/></clipPath><clipPath id="19e387c7cf"><path d="M 190.480469 275.722656 C 194.863281 277.257812 199.847656 278.265625 204.738281 278.265625 C 209.628906 278.265625 214.335938 277.402344 218.671875 275.867188 C 218.765625 275.820312 218.855469 275.820312 218.949219 275.773438 C 235.238281 269.632812 247.234375 253.425781 247.464844 234.988281 L 247.464844 213.878906 C 247.464844 208.277344 245.242188 202.910156 241.28125 198.949219 C 237.320312 194.988281 231.953125 192.765625 226.351562 192.765625 L 183.0625 192.765625 C 171.410156 192.765625 161.964844 202.210938 161.964844 213.863281 L 161.964844 234.957031 C 162.195312 253.519531 174.007812 269.730469 190.480469 275.722656 " clip-rule="nonzero"/></clipPath><clipPath id="09dd2b9b52"><path d="M 127.25 192.765625 L 212.75 192.765625 L 212.75 278.265625 L 127.25 278.265625 Z M 127.25 192.765625 " clip-rule="nonzero"/></clipPath><clipPath id="13b96330fd"><path d="M 155.765625 275.722656 C 160.152344 277.257812 165.132812 278.265625 170.023438 278.265625 C 174.914062 278.265625 179.621094 277.402344 183.960938 275.867188 C 184.050781 275.820312 184.144531 275.820312 184.234375 275.773438 C 200.523438 269.632812 212.519531 253.425781 212.75 234.988281 L 212.75 213.878906 C 212.75 208.277344 210.527344 202.910156 206.566406 198.949219 C 202.609375 194.988281 197.238281 192.765625 191.640625 192.765625 L 148.347656 192.765625 C 136.695312 192.765625 127.25 202.210938 127.25 213.863281 L 127.25 234.957031 C 127.480469 253.519531 139.292969 269.730469 155.765625 275.722656 " clip-rule="nonzero"/></clipPath><clipPath id="1124b7fb24"><path d="M 127.53125 96.730469 L 213.03125 96.730469 L 213.03125 182.230469 L 127.53125 182.230469 Z M 127.53125 96.730469 " clip-rule="nonzero"/></clipPath><clipPath id="ff9b3be258"><path d="M 170.28125 182.230469 C 193.894531 182.230469 213.03125 163.09375 213.03125 139.480469 C 213.03125 115.871094 193.894531 96.730469 170.28125 96.730469 C 146.671875 96.730469 127.53125 115.871094 127.53125 139.480469 C 127.53125 163.09375 146.671875 182.230469 170.28125 182.230469 " clip-rule="nonzero"/></clipPath><mask id="7fb026cd61"><g filter="url(#8803b3eae5)"><rect x="-37.5" width="450" fill="#000000" y="-37.499999" height="449.999989" fill-opacity="0.8"/></g></mask><clipPath id="2f846f863e"><path d="M 93.964844 94.0625 L 179.464844 94.0625 L 179.464844 179.5625 L 93.964844 179.5625 Z M 93.964844 94.0625 " clip-rule="nonzero"/></clipPath><clipPath id="49b4d53a88"><path d="M 93.964844 136.8125 C 93.964844 160.421875 113.105469 179.5625 136.714844 179.5625 C 160.324219 179.5625 179.464844 160.421875 179.464844 136.8125 C 179.464844 113.203125 160.324219 94.0625 136.714844 94.0625 C 113.105469 94.0625 93.964844 113.203125 93.964844 136.8125 " clip-rule="nonzero"/></clipPath><clipPath id="d90dfedf49"><rect x="0" width="274" y="0" height="274"/></clipPath><mask id="23180f50e2"><g filter="url(#8803b3eae5)"><rect x="-37.5" width="450" fill="#000000" y="-37.499999" height="449.999989" fill-opacity="0.8"/></g></mask><clipPath id="f90cf07869"><path d="M 93.632812 93.765625 L 179.132812 93.765625 L 179.132812 179.265625 L 93.632812 179.265625 Z M 93.632812 93.765625 " clip-rule="nonzero"/></clipPath><clipPath id="930e5a38cf"><path d="M 122.148438 176.722656 C 126.53125 178.257812 131.515625 179.265625 136.40625 179.265625 C 141.296875 179.265625 146.003906 178.402344 150.339844 176.867188 C 150.433594 176.820312 150.527344 176.820312 150.617188 176.773438 C 166.90625 170.632812 178.902344 154.425781 179.132812 135.988281 L 179.132812 114.878906 C 179.132812 109.277344 176.910156 103.910156 172.949219 99.949219 C 168.992188 95.988281 163.621094 93.765625 158.023438 93.765625 L 114.730469 93.765625 C 103.078125 93.765625 93.632812 103.210938 93.632812 114.863281 L 93.632812 135.957031 C 93.863281 154.519531 105.675781 170.730469 122.148438 176.722656 " clip-rule="nonzero"/></clipPath><clipPath id="38ba742309"><rect x="0" width="274" y="0" height="274"/></clipPath></defs><rect x="-37.5" width="450" fill="#ffffff" y="-37.499999" height="449.999989" fill-opacity="1"/><rect x="-37.5" width="450" fill="#ffffff" y="-37.499999" height="449.999989" fill-opacity="1"/><rect x="-37.5" width="450" fill="#ffffff" y="-37.499999" height="449.999989" fill-opacity="1"/><g clip-path="url(#22657c0215)"><g clip-path="url(#58d3645a1f)"><path stroke-linecap="butt" transform="matrix(0.000000000000000046, -0.747541, 0.747541, 0.000000000000000046, 161.964925, 182.231911)" fill="none" stroke-linejoin="miter" d="M 57.189432 -0.000108776 C 25.601488 -0.000108776 0.00192964 25.604676 0.00192964 57.187393 C 0.00192964 88.770111 25.601488 114.374895 57.189432 114.374895 C 88.772149 114.374895 114.376933 88.770111 114.376933 57.187393 C 114.376933 25.604676 88.772149 -0.000108776 57.189432 -0.000108776 " stroke="#fec260" stroke-width="62" stroke-opacity="1" stroke-miterlimit="4"/></g></g><g clip-path="url(#9d3034410a)"><g clip-path="url(#19e387c7cf)"><path stroke-linecap="butt" transform="matrix(0.747541, 0, 0, 0.747541, 161.964925, 192.76594)" fill="none" stroke-linejoin="miter" d="M 38.145792 110.972797 C 44.008765 113.026405 50.676459 114.374575 57.218742 114.374575 C 63.761025 114.374575 70.057712 113.219747 75.857979 111.166139 C 75.98339 111.103433 76.103576 111.103433 76.228987 111.040728 C 98.01918 102.826295 114.066585 81.145838 114.374888 56.481639 L 114.374888 28.243221 C 114.374888 20.749903 111.401598 13.570113 106.102975 8.271491 C 100.804353 2.972868 93.624563 -0.000421571 86.131245 -0.000421571 L 28.222632 -0.000421571 C 12.635068 -0.000421571 -0.000108776 12.634755 -0.000108776 28.222319 L -0.000108776 56.439835 C 0.308194 81.271249 16.110002 102.956932 38.145792 110.972797 " stroke="#3fa796" stroke-width="62" stroke-opacity="1" stroke-miterlimit="4"/></g></g><g clip-path="url(#09dd2b9b52)"><g clip-path="url(#13b96330fd)"><path stroke-linecap="butt" transform="matrix(0.747541, 0, 0, 0.747541, 127.25169, 192.76594)" fill="none" stroke-linejoin="miter" d="M 38.14364 110.972797 C 44.011838 113.026405 50.674307 114.374575 57.216591 114.374575 C 63.758874 114.374575 70.05556 113.219747 75.861053 111.166139 C 75.981238 111.103433 76.10665 111.103433 76.226835 111.040728 C 98.017028 102.826295 114.064434 81.145838 114.372736 56.481639 L 114.372736 28.243221 C 114.372736 20.749903 111.399446 13.570113 106.100824 8.271491 C 100.807427 2.972868 93.622411 -0.000421571 86.134319 -0.000421571 L 28.220481 -0.000421571 C 12.632916 -0.000421571 -0.0022604 12.634755 -0.0022604 28.222319 L -0.0022604 56.439835 C 0.306042 81.271249 16.107851 102.956932 38.14364 110.972797 " stroke="#2a0944" stroke-width="62" stroke-opacity="1" stroke-miterlimit="4"/></g></g><g clip-path="url(#1124b7fb24)"><g clip-path="url(#ff9b3be258)"><path stroke-linecap="butt" transform="matrix(-0.747541, -0.000000000000000092, 0.000000000000000092, -0.747541, 213.03295, 182.231911)" fill="none" stroke-linejoin="miter" d="M 57.189776 0.00192964 C 25.601833 0.00192964 0.00227374 25.601488 0.00227374 57.189432 C 0.00227374 88.772149 25.601833 114.376933 57.189776 114.376933 C 88.772493 114.376933 114.377278 88.772149 114.377278 57.189432 C 114.377278 25.601488 88.772493 0.00192964 57.189776 0.00192964 " stroke="#2a0944" stroke-width="62" stroke-opacity="1" stroke-miterlimit="4"/></g></g><g mask="url(#7fb026cd61)"><g transform="matrix(1, 0, 0, 1, 68, 3)"><g clip-path="url(#d90dfedf49)"><g clip-path="url(#2f846f863e)"><g clip-path="url(#49b4d53a88)"><path stroke-linecap="butt" transform="matrix(0.000000000000000046, -0.747541, 0.747541, 0.000000000000000046, 93.964925, 179.563128)" fill="none" stroke-linejoin="miter" d="M 57.188342 -0.000108776 C 25.605624 -0.000108776 0.000840103 25.604676 0.000840103 57.187393 C 0.000840103 88.770111 25.605624 114.374895 57.188342 114.374895 C 88.77106 114.374895 114.375844 88.770111 114.375844 57.187393 C 114.375844 25.604676 88.77106 -0.000108776 57.188342 -0.000108776 " stroke="#fec260" stroke-width="62" stroke-opacity="1" stroke-miterlimit="4"/></g></g></g></g></g><g mask="url(#23180f50e2)"><g transform="matrix(1, 0, 0, 1, 68, 99)"><g clip-path="url(#38ba742309)"><g clip-path="url(#f90cf07869)"><g clip-path="url(#930e5a38cf)"><path stroke-linecap="butt" transform="matrix(0.747541, 0, 0, 0.747541, 93.633725, 93.76594)" fill="none" stroke-linejoin="miter" d="M 38.14468 110.972797 C 44.007653 113.026405 50.675347 114.374575 57.21763 114.374575 C 63.759913 114.374575 70.0566 113.219747 75.856867 111.166139 C 75.982278 111.103433 76.107689 111.103433 76.227875 111.040728 C 98.018068 102.826295 114.065473 81.145838 114.373776 56.481639 L 114.373776 28.243221 C 114.373776 20.749903 111.400486 13.570113 106.101863 8.271491 C 100.808466 2.972868 93.623451 -0.000421571 86.135358 -0.000421571 L 28.22152 -0.000421571 C 12.633956 -0.000421571 -0.00122078 12.634755 -0.00122078 28.222319 L -0.00122078 56.439835 C 0.307082 81.271249 16.10889 102.956932 38.14468 110.972797 " stroke="#3fa796" stroke-width="62" stroke-opacity="1" stroke-miterlimit="4"/></g></g></g></g></g></svg>