<svg xmlns="http://www.w3.org/2000/svg" xmlns:xlink="http://www.w3.org/1999/xlink" width="500" zoomAndPan="magnify" viewBox="0 0 375 374.999991" height="500" preserveAspectRatio="xMidYMid meet" version="1.0"><defs><clipPath id="3d35b0aec0"><path d="M 127.25 192.765625 L 212.75 192.765625 L 212.75 278.265625 L 127.25 278.265625 Z M 127.25 192.765625 " clip-rule="nonzero"/></clipPath><clipPath id="152cd5f57f"><path d="M 155.765625 275.722656 C 160.152344 277.257812 165.132812 278.265625 170.023438 278.265625 C 174.914062 278.265625 179.621094 277.402344 183.960938 275.867188 C 184.050781 275.820312 184.144531 275.820312 184.234375 275.773438 C 200.523438 269.632812 212.519531 253.425781 212.75 234.988281 L 212.75 213.878906 C 212.75 208.277344 210.527344 202.910156 206.566406 198.949219 C 202.609375 194.988281 197.238281 192.765625 191.640625 192.765625 L 148.347656 192.765625 C 136.695312 192.765625 127.25 202.210938 127.25 213.863281 L 127.25 234.957031 C 127.480469 253.519531 139.292969 269.730469 155.765625 275.722656 " clip-rule="nonzero"/></clipPath><clipPath id="a83dfcbbc4"><path d="M 127.53125 96.730469 L 213.03125 96.730469 L 213.03125 182.230469 L 127.53125 182.230469 Z M 127.53125 96.730469 " clip-rule="nonzero"/></clipPath><clipPath id="26e1dd1043"><path d="M 170.28125 182.230469 C 193.894531 182.230469 213.03125 163.09375 213.03125 139.480469 C 213.03125 115.871094 193.894531 96.730469 170.28125 96.730469 C 146.671875 96.730469 127.53125 115.871094 127.53125 139.480469 C 127.53125 163.09375 146.671875 182.230469 170.28125 182.230469 " clip-rule="nonzero"/></clipPath></defs><rect x="-37.5" width="450" fill="#ffffff" y="-37.499999" height="449.999989" fill-opacity="1"/><rect x="-37.5" width="450" fill="#ffffff" y="-37.499999" height="449.999989" fill-opacity="1"/><g clip-path="url(#3d35b0aec0)"><g clip-path="url(#152cd5f57f)"><path stroke-linecap="butt" transform="matrix(0.747541, 0, 0, 0.747541, 127.25169, 192.765926)" fill="none" stroke-linejoin="miter" d="M 38.14364 110.972816 C 44.011838 113.026424 50.674307 114.374594 57.216591 114.374594 C 63.758874 114.374594 70.05556 113.219766 75.861053 111.166158 C 75.981238 111.103453 76.10665 111.103453 76.226835 111.040747 C 98.017028 102.826315 114.064434 81.145857 114.372736 56.481658 L 114.372736 28.243241 C 114.372736 20.749923 111.399446 13.570132 106.100824 8.27151 C 100.807427 2.972888 93.622411 -0.000402308 86.134319 -0.000402308 L 28.220481 -0.000402308 C 12.632916 -0.000402308 -0.0022604 12.634774 -0.0022604 28.222339 L -0.0022604 56.439854 C 0.306042 81.271268 16.107851 102.956951 38.14364 110.972816 " stroke="#2a0944" stroke-width="62" stroke-opacity="1" stroke-miterlimit="4"/></g></g><g clip-path="url(#a83dfcbbc4)"><g clip-path="url(#26e1dd1043)"><path stroke-linecap="butt" transform="matrix(-0.747541, -0.000000000000000092, 0.000000000000000092, -0.747541, 213.03295, 182.231882)" fill="none" stroke-linejoin="miter" d="M 57.189776 0.00189111 C 25.601833 0.00189111 0.00227374 25.60145 0.00227374 57.189393 C 0.00227374 88.772111 25.601833 114.376895 57.189776 114.376895 C 88.772493 114.376895 114.377278 88.772111 114.377278 57.189393 C 114.377278 25.60145 88.772493 0.00189111 57.189776 0.00189111 " stroke="#2a0944" stroke-width="62" stroke-opacity="1" stroke-miterlimit="4"/></g></g></svg>