<svg xmlns="http://www.w3.org/2000/svg" xmlns:xlink="http://www.w3.org/1999/xlink" width="500" zoomAndPan="magnify" viewBox="0 0 375 374.999991" height="500" preserveAspectRatio="xMidYMid meet" version="1.0"><defs><filter x="0%" y="0%" width="100%" height="100%" id="15ffc5baa7"><feColorMatrix values="0 0 0 0 1 0 0 0 0 1 0 0 0 0 1 0 0 0 1 0" color-interpolation-filters="sRGB"/></filter><clipPath id="ed6bbd3f44"><path d="M 161.964844 96.730469 L 247.464844 96.730469 L 247.464844 182.230469 L 161.964844 182.230469 Z M 161.964844 96.730469 " clip-rule="nonzero"/></clipPath><clipPath id="c6ed314343"><path d="M 161.964844 139.480469 C 161.964844 163.09375 181.105469 182.230469 204.714844 182.230469 C 228.324219 182.230469 247.464844 163.09375 247.464844 139.480469 C 247.464844 115.871094 228.324219 96.730469 204.714844 96.730469 C 181.105469 96.730469 161.964844 115.871094 161.964844 139.480469 " clip-rule="nonzero"/></clipPath><clipPath id="2f38f4eb42"><path d="M 127.53125 96.730469 L 213.03125 96.730469 L 213.03125 182.230469 L 127.53125 182.230469 Z M 127.53125 96.730469 " clip-rule="nonzero"/></clipPath><clipPath id="dcea27391d"><path d="M 170.28125 182.230469 C 193.894531 182.230469 213.03125 163.09375 213.03125 139.480469 C 213.03125 115.871094 193.894531 96.730469 170.28125 96.730469 C 146.671875 96.730469 127.53125 115.871094 127.53125 139.480469 C 127.53125 163.09375 146.671875 182.230469 170.28125 182.230469 " clip-rule="nonzero"/></clipPath><mask id="de6cd1c75a"><g filter="url(#15ffc5baa7)"><rect x="-37.5" width="450" fill="#000000" y="-37.499999" height="449.999989" fill-opacity="0.8"/></g></mask><clipPath id="b99dafd75d"><path d="M 93.964844 94.0625 L 179.464844 94.0625 L 179.464844 179.5625 L 93.964844 179.5625 Z M 93.964844 94.0625 " clip-rule="nonzero"/></clipPath><clipPath id="17eafd8795"><path d="M 93.964844 136.8125 C 93.964844 160.421875 113.105469 179.5625 136.714844 179.5625 C 160.324219 179.5625 179.464844 160.421875 179.464844 136.8125 C 179.464844 113.203125 160.324219 94.0625 136.714844 94.0625 C 113.105469 94.0625 93.964844 113.203125 93.964844 136.8125 " clip-rule="nonzero"/></clipPath><clipPath id="21de33d90e"><rect x="0" width="274" y="0" height="274"/></clipPath></defs><rect x="-37.5" width="450" fill="#ffffff" y="-37.499999" height="449.999989" fill-opacity="1"/><rect x="-37.5" width="450" fill="#ffffff" y="-37.499999" height="449.999989" fill-opacity="1"/><g clip-path="url(#ed6bbd3f44)"><g clip-path="url(#c6ed314343)"><path stroke-linecap="butt" transform="matrix(0.000000000000000046, -0.747541, 0.747541, 0.000000000000000046, 161.964925, 182.23194)" fill="none" stroke-linejoin="miter" d="M 57.18947 -0.000108776 C 25.601527 -0.000108776 0.00196816 25.604676 0.00196816 57.187393 C 0.00196816 88.770111 25.601527 114.374895 57.18947 114.374895 C 88.772188 114.374895 114.376972 88.770111 114.376972 57.187393 C 114.376972 25.604676 88.772188 -0.000108776 57.18947 -0.000108776 " stroke="#fec260" stroke-width="62" stroke-opacity="1" stroke-miterlimit="4"/></g></g><g clip-path="url(#2f38f4eb42)"><g clip-path="url(#dcea27391d)"><path stroke-linecap="butt" transform="matrix(-0.747541, -0.000000000000000092, 0.000000000000000092, -0.747541, 213.03295, 182.23194)" fill="none" stroke-linejoin="miter" d="M 57.189776 0.00196816 C 25.601833 0.00196816 0.00227374 25.601527 0.00227374 57.18947 C 0.00227374 88.772188 25.601833 114.376972 57.189776 114.376972 C 88.772493 114.376972 114.377278 88.772188 114.377278 57.18947 C 114.377278 25.601527 88.772493 0.00196816 57.189776 0.00196816 " stroke="#2a0944" stroke-width="62" stroke-opacity="1" stroke-miterlimit="4"/></g></g><g mask="url(#de6cd1c75a)"><g transform="matrix(1, 0, 0, 1, 68, 3)"><g clip-path="url(#21de33d90e)"><g clip-path="url(#b99dafd75d)"><g clip-path="url(#17eafd8795)"><path stroke-linecap="butt" transform="matrix(0.000000000000000046, -0.747541, 0.747541, 0.000000000000000046, 93.964925, 179.563114)" fill="none" stroke-linejoin="miter" d="M 57.188323 -0.000108776 C 25.605605 -0.000108776 0.00082084 25.604676 0.00082084 57.187393 C 0.00082084 88.770111 25.605605 114.374895 57.188323 114.374895 C 88.77104 114.374895 114.375825 88.770111 114.375825 57.187393 C 114.375825 25.604676 88.77104 -0.000108776 57.188323 -0.000108776 " stroke="#fec260" stroke-width="62" stroke-opacity="1" stroke-miterlimit="4"/></g></g></g></g></g></svg>