<svg xmlns="http://www.w3.org/2000/svg" xmlns:xlink="http://www.w3.org/1999/xlink" width="500" zoomAndPan="magnify" viewBox="0 0 375 374.999991" height="500" preserveAspectRatio="xMidYMid meet" version="1.0"><defs><clipPath id="455c4e4987"><path d="M 89.601562 94.230469 L 285.351562 94.230469 L 285.351562 280.980469 L 89.601562 280.980469 Z M 89.601562 94.230469 " clip-rule="nonzero"/></clipPath></defs><rect x="-37.5" width="450" fill="#ffffff" y="-37.499999" height="449.999989" fill-opacity="1"/><rect x="-37.5" width="450" fill="#ffffff" y="-37.499999" height="449.999989" fill-opacity="1"/><rect x="-37.5" width="450" fill="#ffffff" y="-37.499999" height="449.999989" fill-opacity="1"/><g clip-path="url(#455c4e4987)"><path fill="#2a0944" d="M 118.964844 131.605469 C 113.5625 131.605469 109.175781 127.421875 109.175781 122.269531 C 109.175781 117.117188 113.5625 112.9375 118.964844 112.9375 C 124.367188 112.9375 128.753906 117.117188 128.753906 122.269531 C 128.753906 127.421875 124.367188 131.605469 118.964844 131.605469 M 128.753906 94.269531 L 109.175781 94.269531 C 98.363281 94.269531 89.601562 102.621094 89.601562 112.9375 L 89.601562 131.605469 C 89.601562 141.917969 98.363281 150.269531 109.175781 150.269531 L 128.753906 150.269531 C 139.566406 150.269531 148.328125 141.917969 148.328125 131.605469 L 148.328125 112.9375 C 148.328125 102.621094 139.566406 94.269531 128.753906 94.269531 M 118.964844 196.941406 C 113.5625 196.941406 109.175781 192.757812 109.175781 187.605469 C 109.175781 182.453125 113.5625 178.273438 118.964844 178.273438 C 124.367188 178.273438 128.753906 182.453125 128.753906 187.605469 C 128.753906 192.757812 124.367188 196.941406 118.964844 196.941406 M 128.753906 159.605469 L 109.175781 159.605469 C 98.363281 159.605469 89.601562 167.957031 89.601562 178.273438 L 89.601562 196.941406 C 89.601562 207.253906 98.363281 215.605469 109.175781 215.605469 L 128.753906 215.605469 C 139.566406 215.605469 148.328125 207.253906 148.328125 196.941406 L 148.328125 178.273438 C 148.328125 167.957031 139.566406 159.605469 128.753906 159.605469 M 118.964844 262.273438 C 113.5625 262.273438 109.175781 258.09375 109.175781 252.941406 C 109.175781 247.789062 113.5625 243.609375 118.964844 243.609375 C 124.367188 243.609375 128.753906 247.789062 128.753906 252.941406 C 128.753906 258.09375 124.367188 262.273438 118.964844 262.273438 M 128.753906 224.941406 L 109.175781 224.941406 C 98.363281 224.941406 89.601562 233.292969 89.601562 243.609375 L 89.601562 262.273438 C 89.601562 272.589844 98.363281 280.941406 109.175781 280.941406 L 128.753906 280.941406 C 139.566406 280.941406 148.328125 272.589844 148.328125 262.273438 L 148.328125 243.609375 C 148.328125 233.292969 139.566406 224.941406 128.753906 224.941406 M 255.988281 196.941406 L 197.265625 196.941406 C 191.863281 196.941406 187.476562 192.757812 187.476562 187.605469 C 187.476562 182.453125 191.863281 178.273438 197.265625 178.273438 L 255.988281 178.273438 C 261.390625 178.273438 265.777344 182.453125 265.777344 187.605469 C 265.777344 192.757812 261.390625 196.941406 255.988281 196.941406 M 265.777344 159.605469 L 187.476562 159.605469 C 176.660156 159.605469 167.902344 167.957031 167.902344 178.273438 L 167.902344 196.941406 C 167.902344 207.253906 176.660156 215.605469 187.476562 215.605469 L 265.777344 215.605469 C 276.59375 215.605469 285.351562 207.253906 285.351562 196.941406 L 285.351562 178.273438 C 285.351562 167.957031 276.59375 159.605469 265.777344 159.605469 M 255.988281 131.605469 L 197.265625 131.605469 C 191.863281 131.605469 187.476562 127.421875 187.476562 122.269531 C 187.476562 117.117188 191.863281 112.9375 197.265625 112.9375 L 255.988281 112.9375 C 261.390625 112.9375 265.777344 117.117188 265.777344 122.269531 C 265.777344 127.421875 261.390625 131.605469 255.988281 131.605469 M 265.777344 94.269531 L 187.476562 94.269531 C 176.660156 94.269531 167.902344 102.621094 167.902344 112.9375 L 167.902344 131.605469 C 167.902344 141.917969 176.660156 150.269531 187.476562 150.269531 L 265.777344 150.269531 C 276.59375 150.269531 285.351562 141.917969 285.351562 131.605469 L 285.351562 112.9375 C 285.351562 102.621094 276.59375 94.269531 265.777344 94.269531 M 255.988281 262.273438 L 197.265625 262.273438 C 191.863281 262.273438 187.476562 258.09375 187.476562 252.941406 C 187.476562 247.789062 191.863281 243.609375 197.265625 243.609375 L 255.988281 243.609375 C 261.390625 243.609375 265.777344 247.789062 265.777344 252.941406 C 265.777344 258.09375 261.390625 262.273438 255.988281 262.273438 M 265.777344 224.941406 L 187.476562 224.941406 C 176.660156 224.941406 167.902344 233.292969 167.902344 243.609375 L 167.902344 262.273438 C 167.902344 272.589844 176.660156 280.941406 187.476562 280.941406 L 265.777344 280.941406 C 276.59375 280.941406 285.351562 272.589844 285.351562 262.273438 L 285.351562 243.609375 C 285.351562 233.292969 276.59375 224.941406 265.777344 224.941406 " fill-opacity="1" fill-rule="evenodd"/></g></svg>