<svg xmlns="http://www.w3.org/2000/svg" xmlns:xlink="http://www.w3.org/1999/xlink" width="500" zoomAndPan="magnify" viewBox="0 0 375 374.999991" height="500" preserveAspectRatio="xMidYMid meet" version="1.0"><defs><clipPath id="b3da184343"><path d="M 94.230469 94.230469 L 280.980469 94.230469 L 280.980469 280.980469 L 94.230469 280.980469 Z M 94.230469 94.230469 " clip-rule="nonzero"/></clipPath></defs><rect x="-37.5" width="450" fill="#ffffff" y="-37.499999" height="449.999989" fill-opacity="1"/><rect x="-37.5" width="450" fill="#ffffff" y="-37.499999" height="449.999989" fill-opacity="1"/><g clip-path="url(#b3da184343)"><path fill="#2a0944" d="M 262.304688 196.945312 L 224.957031 196.945312 L 224.957031 159.597656 L 252.96875 159.597656 C 258.121094 159.597656 262.304688 163.78125 262.304688 168.933594 Z M 262.304688 234.296875 L 255.03125 234.296875 C 249.90625 228.601562 242.554688 224.960938 234.292969 224.960938 C 230.996094 224.960938 227.886719 225.628906 224.957031 226.679688 L 224.957031 215.621094 L 262.304688 215.621094 Z M 234.292969 262.308594 C 229.148438 262.308594 224.957031 258.117188 224.957031 252.972656 C 224.957031 247.828125 229.148438 243.632812 234.292969 243.632812 C 239.4375 243.632812 243.628906 247.828125 243.628906 252.972656 C 243.628906 258.117188 239.4375 262.308594 234.292969 262.308594 Z M 206.28125 140.921875 L 206.28125 234.296875 L 182.789062 234.296875 C 178.621094 218.214844 164.140625 206.285156 146.753906 206.285156 C 136.605469 206.285156 127.433594 210.355469 120.730469 216.949219 C 117.816406 219.808594 112.90625 217.640625 112.90625 213.5625 L 112.90625 122.25 C 112.90625 117.097656 117.089844 112.914062 122.242188 112.914062 L 196.941406 112.914062 C 202.097656 112.914062 206.28125 117.097656 206.28125 122.25 Z M 162.832031 252.972656 C 159.59375 258.53125 153.636719 262.308594 146.753906 262.308594 C 139.871094 262.308594 133.914062 258.53125 130.675781 252.972656 C 129.070312 250.21875 128.078125 247.054688 128.078125 243.632812 C 128.078125 240.214844 129.070312 237.050781 130.675781 234.296875 C 133.914062 228.738281 139.871094 224.960938 146.753906 224.960938 C 153.636719 224.960938 159.59375 228.738281 162.832031 234.296875 C 164.4375 237.050781 165.429688 240.214844 165.429688 243.632812 C 165.429688 247.054688 164.4375 250.21875 162.832031 252.972656 Z M 262.304688 140.921875 L 224.957031 140.921875 L 224.957031 112.910156 C 224.957031 102.589844 216.597656 94.234375 206.28125 94.234375 L 112.90625 94.234375 C 102.585938 94.234375 94.230469 102.589844 94.230469 112.910156 L 94.230469 236.480469 C 94.230469 245.585938 101.617188 252.972656 110.71875 252.972656 C 114.894531 269.054688 129.367188 280.984375 146.753906 280.984375 C 164.140625 280.984375 178.613281 269.054688 182.789062 252.972656 L 206.28125 252.972656 C 206.28125 268.445312 218.820312 280.984375 234.292969 280.984375 C 249.765625 280.984375 262.304688 268.445312 262.304688 252.972656 C 272.625 252.972656 280.980469 244.613281 280.980469 234.296875 L 280.980469 159.597656 C 280.980469 149.277344 272.625 140.921875 262.304688 140.921875 Z M 262.304688 140.921875 " fill-opacity="1" fill-rule="evenodd"/></g></svg>