<svg xmlns="http://www.w3.org/2000/svg" xmlns:xlink="http://www.w3.org/1999/xlink" width="500" zoomAndPan="magnify" viewBox="0 0 375 374.999991" height="500" preserveAspectRatio="xMidYMid meet" version="1.0"><defs><clipPath id="dba68b3601"><path d="M 112.882812 94.230469 L 262.132812 94.230469 L 262.132812 280.980469 L 112.882812 280.980469 Z M 112.882812 94.230469 " clip-rule="nonzero"/></clipPath></defs><rect x="-37.5" width="450" fill="#ffffff" y="-37.499999" height="449.999989" fill-opacity="1"/><rect x="-37.5" width="450" fill="#ffffff" y="-37.499999" height="449.999989" fill-opacity="1"/><g clip-path="url(#dba68b3601)"><path fill="#2a0944" d="M 234.574219 262.304688 C 229.4375 262.304688 225.246094 258.109375 225.246094 252.96875 C 225.246094 247.824219 229.4375 243.628906 234.574219 243.628906 C 239.714844 243.628906 243.902344 247.824219 243.902344 252.96875 C 243.902344 258.109375 239.714844 262.304688 234.574219 262.304688 M 150.621094 262.304688 C 140.332031 262.304688 131.964844 253.929688 131.964844 243.628906 C 131.964844 233.332031 140.332031 224.957031 150.621094 224.957031 C 160.910156 224.957031 169.277344 233.332031 169.277344 243.628906 C 169.277344 253.929688 160.910156 262.304688 150.621094 262.304688 M 243.09375 226.675781 L 243.09375 215.617188 C 243.09375 205.300781 235.554688 196.945312 225.246094 196.945312 L 159.140625 196.945312 L 159.140625 178.269531 L 187.933594 178.269531 C 193.085938 178.269531 197.261719 174.085938 197.261719 168.933594 C 197.261719 163.78125 193.085938 159.59375 187.933594 159.59375 L 159.140625 159.59375 L 159.140625 112.910156 C 159.140625 102.589844 151.601562 94.234375 141.292969 94.234375 L 122.636719 94.234375 C 117.488281 94.234375 113.308594 98.417969 113.308594 103.570312 C 113.308594 108.722656 117.488281 112.910156 122.636719 112.910156 L 131.964844 112.910156 C 137.117188 112.910156 140.484375 117.09375 140.484375 122.246094 L 140.484375 207.597656 C 121.828125 212.453125 109.054688 231.34375 113.925781 252.492188 C 117.011719 265.929688 128.105469 276.851562 141.527344 279.953125 C 165.996094 285.609375 187.832031 267.160156 187.832031 243.628906 C 187.832031 232.40625 182.886719 222.460938 175.0625 215.617188 L 214.210938 215.617188 C 225.164062 215.617188 225.246094 218.664062 225.246094 226.675781 C 212.777344 231.109375 204.316406 244.011719 207.132812 258.570312 C 209.269531 269.558594 218.316406 278.492188 229.316406 280.503906 C 247.085938 283.738281 262.148438 270.160156 262.148438 252.96875 C 262.148438 240.789062 252.421875 230.53125 243.09375 226.675781 " fill-opacity="1" fill-rule="evenodd"/></g></svg>