<svg xmlns="http://www.w3.org/2000/svg" xmlns:xlink="http://www.w3.org/1999/xlink" width="500" zoomAndPan="magnify" viewBox="0 0 375 374.999991" height="500" preserveAspectRatio="xMidYMid meet" version="1.0"><defs><clipPath id="a7bba7fe84"><path d="M 94.230469 94.230469 L 280.980469 94.230469 L 280.980469 280.980469 L 94.230469 280.980469 Z M 94.230469 94.230469 " clip-rule="nonzero"/></clipPath></defs><rect x="-37.5" width="450" fill="#ffffff" y="-37.499999" height="449.999989" fill-opacity="1"/><rect x="-37.5" width="450" fill="#ffffff" y="-37.499999" height="449.999989" fill-opacity="1"/><rect x="-37.5" width="450" fill="#ffffff" y="-37.499999" height="449.999989" fill-opacity="1"/><g clip-path="url(#a7bba7fe84)"><path fill="#2a0944" d="M 243.632812 262.308594 C 233.332031 262.308594 224.957031 253.933594 224.957031 243.632812 C 224.957031 233.332031 233.332031 224.957031 243.632812 224.957031 C 253.933594 224.957031 262.308594 233.332031 262.308594 243.632812 C 262.308594 253.933594 253.933594 262.308594 243.632812 262.308594 M 150.257812 243.632812 C 150.257812 253.933594 141.882812 262.308594 131.582031 262.308594 C 121.285156 262.308594 112.90625 253.933594 112.90625 243.632812 C 112.90625 233.332031 121.285156 224.957031 131.582031 224.957031 C 141.882812 224.957031 150.257812 233.332031 150.257812 243.632812 M 252.96875 207.601562 L 252.96875 112.90625 C 252.96875 102.597656 244.613281 94.234375 234.296875 94.234375 L 206.28125 94.234375 C 201.128906 94.234375 196.945312 98.417969 196.945312 103.570312 C 196.945312 108.722656 201.128906 112.90625 206.28125 112.90625 L 224.957031 112.90625 C 230.113281 112.90625 234.296875 117.09375 234.296875 122.246094 L 234.296875 159.523438 L 140.921875 182.652344 L 140.921875 168.933594 L 150.257812 168.933594 C 155.414062 168.933594 159.59375 164.746094 159.59375 159.59375 C 159.59375 154.441406 155.414062 150.257812 150.257812 150.257812 L 112.90625 150.257812 C 107.753906 150.257812 103.570312 154.441406 103.570312 159.59375 C 103.570312 164.746094 107.753906 168.933594 112.90625 168.933594 L 122.246094 168.933594 L 122.246094 207.601562 C 103.496094 212.464844 90.386719 231.34375 95.25 252.496094 C 98.351562 265.933594 109.246094 276.855469 122.675781 279.957031 C 147.175781 285.613281 168.933594 267.164062 168.933594 243.632812 C 168.933594 226.246094 157 211.761719 140.921875 207.601562 L 140.921875 201.886719 L 234.296875 178.757812 L 234.296875 207.601562 C 215.546875 212.464844 202.4375 231.34375 207.300781 252.496094 C 210.402344 265.933594 221.296875 276.855469 234.726562 279.957031 C 259.226562 285.613281 280.984375 267.164062 280.984375 243.632812 C 280.984375 226.246094 269.050781 211.761719 252.972656 207.601562 " fill-opacity="1" fill-rule="evenodd"/></g></svg>