<svg xmlns="http://www.w3.org/2000/svg" xmlns:xlink="http://www.w3.org/1999/xlink" width="500" zoomAndPan="magnify" viewBox="0 0 375 374.999991" height="500" preserveAspectRatio="xMidYMid meet" version="1.0"><defs><clipPath id="fa9bc3fd6c"><path d="M 82.441406 82.441406 L 292.441406 82.441406 L 292.441406 292.441406 L 82.441406 292.441406 Z M 82.441406 82.441406 " clip-rule="nonzero"/></clipPath></defs><rect x="-37.5" width="450" fill="#ffffff" y="-37.499999" height="449.999989" fill-opacity="1"/><rect x="-37.5" width="450" fill="#ffffff" y="-37.499999" height="449.999989" fill-opacity="1"/><g clip-path="url(#fa9bc3fd6c)"><path fill="#2a0944" d="M 271.441406 255.695312 C 271.441406 261.488281 265.667969 271.445312 259.871094 271.445312 L 187.441406 271.445312 L 187.441406 145.445312 L 259.871094 145.445312 C 265.667969 145.445312 271.441406 144.902344 271.441406 150.695312 Z M 166.441406 254.078125 L 145.441406 228.242188 L 145.441406 109.445312 L 166.441406 134.042969 Z M 124.441406 229.445312 L 112.871094 229.445312 C 107.066406 229.445312 103.441406 219.488281 103.441406 213.695312 L 103.441406 108.695312 C 103.441406 102.902344 107.066406 103.445312 112.871094 103.445312 L 124.441406 103.445312 Z M 270.371094 124.445312 L 189.898438 124.445312 C 183.757812 124.445312 177.917969 119.132812 173.929688 114.457031 L 150.660156 88.5 C 146.671875 83.828125 140.832031 82.441406 134.679688 82.441406 L 102.371094 82.441406 C 90.769531 82.441406 82.441406 86.585938 82.441406 98.191406 L 82.441406 224.191406 C 82.441406 235.792969 90.769531 250.441406 102.371094 250.441406 L 121.242188 250.441406 C 127.5625 250.441406 133.546875 250.660156 137.535156 255.570312 L 159.0625 283.375 C 163.050781 288.277344 169.035156 292.433594 175.359375 292.433594 L 270.371094 292.433594 C 281.964844 292.433594 292.441406 277.785156 292.441406 266.183594 L 292.441406 140.183594 C 292.441406 128.582031 281.964844 124.433594 270.371094 124.433594 Z M 270.371094 124.445312 " fill-opacity="1" fill-rule="evenodd"/></g></svg>