<svg xmlns="http://www.w3.org/2000/svg" xmlns:xlink="http://www.w3.org/1999/xlink" width="500" zoomAndPan="magnify" viewBox="0 0 375 374.999991" height="500" preserveAspectRatio="xMidYMid meet" version="1.0"><defs><clipPath id="c5f281b68c"><path d="M 94.328125 94.328125 L 280.328125 94.328125 L 280.328125 280.328125 L 94.328125 280.328125 Z M 94.328125 94.328125 " clip-rule="nonzero"/></clipPath></defs><rect x="-37.5" width="450" fill="#ffffff" y="-37.499999" height="449.999989" fill-opacity="1"/><rect x="-37.5" width="450" fill="#ffffff" y="-37.499999" height="449.999989" fill-opacity="1"/><g clip-path="url(#c5f281b68c)"><path fill="#2a0944" d="M 186.933594 94.328125 C 131.523438 94.328125 87.488281 142.007812 95.207031 197.789062 C 100.128906 233.335938 127.089844 263.179688 162.398438 272.589844 C 175.550781 276.097656 189.128906 276.839844 202.761719 274.488281 C 214.144531 272.515625 225.828125 273.398438 236.976562 276.1875 L 250.527344 279.574219 C 268.09375 283.972656 284.054688 268.339844 279.5625 251.117188 C 279.5625 251.117188 277.050781 241.480469 276.976562 241.175781 C 274.167969 230.386719 273.5625 218.996094 276.464844 208.234375 C 280.054688 194.972656 280.660156 180.53125 277.433594 165.566406 C 268.894531 126.085938 232.644531 94.328125 186.933594 94.328125 M 186.933594 112.929688 C 223.6875 112.929688 252.472656 138.132812 259.25 169.5 C 261.734375 180.996094 261.484375 192.386719 258.515625 203.378906 C 245.960938 249.804688 282.667969 268.441406 241.488281 258.136719 C 227.789062 254.714844 213.511719 253.75 199.589844 256.15625 C 188.847656 258.015625 177.96875 257.488281 167.191406 254.621094 C 139.039062 247.117188 117.507812 223.253906 113.632812 195.242188 C 107.390625 150.101562 143.324219 112.929688 186.933594 112.929688 Z M 186.933594 112.929688 " fill-opacity="1" fill-rule="evenodd"/></g></svg>