<svg xmlns="http://www.w3.org/2000/svg" xmlns:xlink="http://www.w3.org/1999/xlink" width="500" zoomAndPan="magnify" viewBox="0 0 375 374.999991" height="500" preserveAspectRatio="xMidYMid meet" version="1.0"><defs><clipPath id="686e890ecb"><path d="M 89.601562 94.230469 L 285.351562 94.230469 L 285.351562 280.980469 L 89.601562 280.980469 Z M 89.601562 94.230469 " clip-rule="nonzero"/></clipPath></defs><rect x="-37.5" width="450" fill="#ffffff" y="-37.499999" height="449.999989" fill-opacity="1"/><rect x="-37.5" width="450" fill="#ffffff" y="-37.499999" height="449.999989" fill-opacity="1"/><g clip-path="url(#686e890ecb)"><path fill="#2a0944" d="M 255.988281 196.9375 L 226.628906 196.9375 C 210.410156 196.9375 197.265625 209.472656 197.265625 224.941406 L 197.265625 252.941406 C 197.265625 268.40625 210.410156 280.941406 226.628906 280.941406 L 255.988281 280.941406 C 272.207031 280.941406 285.351562 268.40625 285.351562 252.941406 L 285.351562 224.941406 C 285.351562 209.472656 272.207031 196.9375 255.988281 196.9375 M 148.328125 196.9375 L 118.964844 196.9375 C 102.746094 196.9375 89.601562 209.472656 89.601562 224.941406 L 89.601562 252.941406 C 89.601562 268.40625 102.746094 280.941406 118.964844 280.941406 L 148.328125 280.941406 C 164.546875 280.941406 177.691406 268.40625 177.691406 252.941406 L 177.691406 224.941406 C 177.691406 209.472656 164.546875 196.9375 148.328125 196.9375 M 255.988281 94.269531 L 226.628906 94.269531 C 210.410156 94.269531 197.265625 106.804688 197.265625 122.269531 L 197.265625 150.269531 C 197.265625 165.738281 210.410156 178.273438 226.628906 178.273438 L 255.988281 178.273438 C 272.207031 178.273438 285.351562 165.738281 285.351562 150.269531 L 285.351562 122.269531 C 285.351562 106.804688 272.207031 94.269531 255.988281 94.269531 M 177.691406 122.269531 L 177.691406 150.269531 C 177.691406 165.738281 164.546875 178.273438 148.328125 178.273438 L 118.964844 178.273438 C 102.746094 178.273438 89.601562 165.738281 89.601562 150.269531 L 89.601562 122.269531 C 89.601562 106.804688 102.746094 94.269531 118.964844 94.269531 L 148.328125 94.269531 C 164.546875 94.269531 177.691406 106.804688 177.691406 122.269531 " fill-opacity="1" fill-rule="evenodd"/></g></svg>