<svg xmlns="http://www.w3.org/2000/svg" xmlns:xlink="http://www.w3.org/1999/xlink" width="500" zoomAndPan="magnify" viewBox="0 0 375 374.999991" height="500" preserveAspectRatio="xMidYMid meet" version="1.0"><defs><clipPath id="056e8fcd90"><path d="M 85.792969 85.792969 L 289.042969 85.792969 L 289.042969 289.042969 L 85.792969 289.042969 Z M 85.792969 85.792969 " clip-rule="nonzero"/></clipPath></defs><rect x="-37.5" width="450" fill="#ffffff" y="-37.499999" height="449.999989" fill-opacity="1"/><rect x="-37.5" width="450" fill="#ffffff" y="-37.499999" height="449.999989" fill-opacity="1"/><g clip-path="url(#056e8fcd90)"><path fill="#2a0944" d="M 219.71875 104.941406 C 176.117188 66.832031 108.515625 88.394531 93.507812 144.910156 C 87.207031 168.632812 93.285156 179.644531 93.285156 197.445312 C 93.285156 215.746094 85.792969 242.25 85.792969 242.25 C 85.792969 245.492188 88.667969 248.65625 92.214844 247.730469 C 104.890625 244.417969 125.046875 237.863281 149.152344 244.410156 C 230.21875 266.386719 282.242188 159.582031 219.71875 104.941406 M 283.421875 289.039062 C 282.898438 289.039062 282.351562 288.96875 281.796875 288.828125 C 217.707031 272.738281 222.007812 290.8125 186.398438 281.289062 C 175.625 278.414062 165.816406 273.222656 157.355469 266.496094 C 222.03125 274.421875 275.9375 218.074219 266.394531 151.71875 C 276.160156 161.882812 283.332031 174.46875 286.363281 188.5625 C 294.988281 228.5625 273.089844 221.792969 288.875 282.585938 C 289.804688 286.144531 286.65625 289.039062 283.421875 289.039062 " fill-opacity="1" fill-rule="evenodd"/></g></svg>