<svg xmlns="http://www.w3.org/2000/svg" xmlns:xlink="http://www.w3.org/1999/xlink" width="500" zoomAndPan="magnify" viewBox="0 0 375 374.999991" height="500" preserveAspectRatio="xMidYMid meet" version="1.0"><defs><clipPath id="26305110e1"><path d="M 79.996094 85.273438 L 295.246094 85.273438 L 295.246094 290 L 79.996094 290 Z M 79.996094 85.273438 " clip-rule="nonzero"/></clipPath></defs><rect x="-37.5" width="450" fill="#ffffff" y="-37.499999" height="449.999989" fill-opacity="1"/><rect x="-37.5" width="450" fill="#ffffff" y="-37.499999" height="449.999989" fill-opacity="1"/><g clip-path="url(#26305110e1)"><path fill="#2a0944" d="M 235.804688 267.917969 L 139.632812 267.917969 C 134.367188 267.917969 129.878906 264.03125 129.019531 258.714844 L 116.167969 179.878906 L 261.011719 179.878906 L 246.382812 258.957031 C 245.414062 264.152344 240.980469 267.917969 235.804688 267.917969 Z M 262.957031 157.867188 L 225 90.871094 C 222.039062 85.652344 215.519531 83.851562 210.394531 86.84375 C 205.21875 89.859375 203.441406 96.605469 206.421875 101.863281 L 238.097656 157.871094 L 137.132812 157.871094 L 168.863281 101.910156 C 171.820312 96.671875 170.089844 89.980469 164.988281 86.921875 L 164.890625 86.867188 C 159.757812 83.808594 153.160156 85.589844 150.1875 90.851562 L 112.285156 157.871094 L 90.757812 157.871094 C 84.808594 157.871094 79.996094 162.804688 79.996094 168.878906 C 79.996094 174.953125 84.808594 179.882812 90.757812 179.882812 L 94.34375 179.882812 L 109.28125 271.542969 C 111.011719 282.152344 119.988281 289.933594 130.515625 289.933594 L 244.714844 289.933594 C 255.242188 289.933594 264.230469 282.152344 265.949219 271.542969 L 280.890625 179.882812 L 284.484375 179.882812 C 290.425781 179.882812 295.246094 174.953125 295.246094 168.878906 C 295.246094 162.804688 290.425781 157.871094 284.484375 157.871094 Z M 262.957031 157.867188 " fill-opacity="1" fill-rule="evenodd"/></g></svg>