<svg xmlns="http://www.w3.org/2000/svg" xmlns:xlink="http://www.w3.org/1999/xlink" width="500" zoomAndPan="magnify" viewBox="0 0 375 374.999991" height="500" preserveAspectRatio="xMidYMid meet" version="1.0"><defs><clipPath id="ceb6dd6375"><path d="M 76.945312 103.277344 L 298.195312 103.277344 L 298.195312 272.027344 L 76.945312 272.027344 Z M 76.945312 103.277344 " clip-rule="nonzero"/></clipPath></defs><rect x="-37.5" width="450" fill="#ffffff" y="-37.499999" height="449.999989" fill-opacity="1"/><rect x="-37.5" width="450" fill="#ffffff" y="-37.499999" height="449.999989" fill-opacity="1"/><rect x="-37.5" width="450" fill="#ffffff" y="-37.499999" height="449.999989" fill-opacity="1"/><g clip-path="url(#ceb6dd6375)"><path fill="#2a0944" d="M 298.097656 162.339844 C 295.863281 205.519531 263.886719 227.214844 224.253906 259.359375 C 203.371094 276.300781 172.113281 276.300781 151.152344 259.457031 C 111.785156 227.816406 78.703125 205.6875 77.007812 161.011719 C 74.886719 104.871094 144.007812 81.886719 183.273438 127.695312 C 185.417969 130.203125 189.710938 130.152344 191.84375 127.640625 C 230.980469 81.675781 301.074219 104.964844 298.097656 162.339844 " fill-opacity="1" fill-rule="evenodd"/></g></svg>