<svg xmlns="http://www.w3.org/2000/svg" xmlns:xlink="http://www.w3.org/1999/xlink" width="500" zoomAndPan="magnify" viewBox="0 0 375 374.999991" height="500" preserveAspectRatio="xMidYMid meet" version="1.0"><defs><clipPath id="86f080b4b6"><path d="M 83.820312 83.820312 L 290.820312 83.820312 L 290.820312 290.820312 L 83.820312 290.820312 Z M 83.820312 83.820312 " clip-rule="nonzero"/></clipPath></defs><rect x="-37.5" width="450" fill="#ffffff" y="-37.499999" height="449.999989" fill-opacity="1"/><rect x="-37.5" width="450" fill="#ffffff" y="-37.499999" height="449.999989" fill-opacity="1"/><g clip-path="url(#86f080b4b6)"><path fill="#2a0944" d="M 117.914062 221.820312 L 117.914062 221.902344 C 99.074219 221.902344 83.820312 239.117188 83.820312 256.367188 C 83.820312 273.617188 100.867188 290.820312 117.914062 290.820312 C 136.75 290.820312 152.007812 273.617188 152.007812 256.367188 L 152.007812 256.320312 C 152.007812 237.257812 136.75 221.820312 117.914062 221.820312 M 117.914062 152.820312 L 117.914062 187.320312 C 152.007812 187.320312 188.539062 221.820312 188.539062 256.320312 L 222.632812 256.320312 C 222.632812 204.570312 169.054688 152.820312 117.914062 152.820312 M 290.820312 256.320312 L 256.726562 256.320312 C 256.726562 187.320312 186.101562 118.320312 117.914062 118.320312 L 117.914062 83.820312 C 203.148438 83.820312 290.820312 152.820312 290.820312 256.320312 " fill-opacity="1" fill-rule="evenodd"/></g></svg>