<svg xmlns="http://www.w3.org/2000/svg" xmlns:xlink="http://www.w3.org/1999/xlink" width="500" zoomAndPan="magnify" viewBox="0 0 375 374.999991" height="500" preserveAspectRatio="xMidYMid meet" version="1.0"><defs><clipPath id="3d791857b1"><path d="M 85.273438 85.273438 L 290.023438 85.273438 L 290.023438 290.023438 L 85.273438 290.023438 Z M 85.273438 85.273438 " clip-rule="nonzero"/></clipPath></defs><rect x="-37.5" width="450" fill="#ffffff" y="-37.499999" height="449.999989" fill-opacity="1"/><rect x="-37.5" width="450" fill="#ffffff" y="-37.499999" height="449.999989" fill-opacity="1"/><g clip-path="url(#3d791857b1)"><path fill="#2a0944" d="M 130.351562 168.851562 L 119.082031 168.851562 C 112.859375 168.851562 107.8125 174.0625 107.8125 180.480469 L 107.8125 203.734375 C 107.8125 210.152344 112.859375 215.363281 119.082031 215.363281 L 130.351562 215.363281 Z M 254.851562 219.179688 L 265.578125 230.25 L 265.578125 266.734375 C 265.578125 283.585938 248.765625 294.839844 233.855469 287.980469 L 126.597656 238.621094 L 107.8125 238.621094 C 95.359375 238.621094 85.273438 228.214844 85.273438 215.367188 L 85.273438 168.851562 C 85.273438 156.003906 95.359375 145.597656 107.8125 145.597656 L 126.597656 145.597656 L 232.539062 87.992188 C 247.535156 79.828125 265.578125 91.050781 265.578125 108.5625 L 265.578125 142.328125 L 254.851562 153.398438 L 243.039062 141.210938 L 243.039062 117.046875 C 243.039062 112.722656 238.632812 109.917969 234.882812 111.847656 L 175.425781 142.527344 L 152.886719 154.152344 L 152.886719 218.433594 L 175.425781 230.058594 L 234.882812 260.734375 C 238.632812 262.664062 243.039062 259.863281 243.039062 255.535156 L 243.039062 231.363281 Z M 286.71875 169.851562 L 270.785156 186.296875 L 286.71875 202.738281 C 291.125 207.285156 291.125 214.648438 286.71875 219.183594 C 282.324219 223.726562 275.191406 223.726562 270.785156 219.183594 L 254.851562 202.738281 L 238.917969 219.183594 C 234.511719 223.726562 227.375 223.726562 222.96875 219.191406 L 222.96875 219.183594 C 218.574219 214.648438 218.574219 207.285156 222.96875 202.738281 L 238.917969 186.296875 L 222.96875 169.851562 C 218.574219 165.304688 218.574219 157.941406 222.96875 153.40625 L 222.96875 153.398438 C 227.375 148.863281 234.511719 148.863281 238.917969 153.40625 L 254.851562 169.851562 L 270.785156 153.40625 C 275.191406 148.863281 282.324219 148.863281 286.71875 153.40625 C 291.125 157.941406 291.125 165.304688 286.71875 169.851562 Z M 286.71875 169.851562 " fill-opacity="1" fill-rule="evenodd"/></g></svg>