<svg xmlns="http://www.w3.org/2000/svg" xmlns:xlink="http://www.w3.org/1999/xlink" width="500" zoomAndPan="magnify" viewBox="0 0 375 374.999991" height="500" preserveAspectRatio="xMidYMid meet" version="1.0"><defs><clipPath id="9a4491f6ae"><path d="M 80.019531 85.101562 L 295.269531 85.101562 L 295.269531 289.851562 L 80.019531 289.851562 Z M 80.019531 85.101562 " clip-rule="nonzero"/></clipPath></defs><rect x="-37.5" width="450" fill="#ffffff" y="-37.499999" height="449.999989" fill-opacity="1"/><rect x="-37.5" width="450" fill="#ffffff" y="-37.499999" height="449.999989" fill-opacity="1"/><g clip-path="url(#9a4491f6ae)"><path fill="#2a0944" d="M 237.675781 96.855469 C 229.636719 92.832031 219.929688 98.214844 219.929688 106.863281 C 219.929688 111.253906 222.683594 115.070312 226.765625 117.128906 C 256.695312 132.234375 275.90625 164.101562 270.417969 199.488281 C 264.992188 234.570312 234.285156 262.621094 197.222656 266.558594 C 146.796875 271.914062 103.941406 234.355469 103.941406 187.472656 C 103.941406 156.8125 122.261719 130.164062 149.035156 116.871094 C 152.816406 115 155.355469 111.457031 155.355469 107.40625 L 155.355469 106.464844 C 155.355469 97.992188 145.863281 92.761719 137.953125 96.691406 C 100.023438 115.492188 75.355469 155.144531 80.761719 199.664062 C 86.421875 246.238281 126.308594 283.980469 175.308594 289.15625 C 240.269531 296.023438 295.265625 247.851562 295.265625 187.472656 C 295.265625 148.125 271.921875 113.976562 237.675781 96.855469 M 176.878906 177.242188 L 176.878906 95.371094 C 176.878906 89.710938 181.703125 85.136719 187.640625 85.136719 C 193.59375 85.136719 198.402344 89.710938 198.402344 95.371094 L 198.402344 177.242188 C 198.402344 182.890625 193.59375 187.472656 187.640625 187.472656 C 181.703125 187.472656 176.878906 182.890625 176.878906 177.242188 " fill-opacity="1" fill-rule="evenodd"/></g></svg>