<svg xmlns="http://www.w3.org/2000/svg" xmlns:xlink="http://www.w3.org/1999/xlink" width="500" zoomAndPan="magnify" viewBox="0 0 375 374.999991" height="500" preserveAspectRatio="xMidYMid meet" version="1.0"><defs><clipPath id="0d0bdc8d29"><path d="M 119.324219 90.105469 L 255.824219 90.105469 L 255.824219 285.105469 L 119.324219 285.105469 Z M 119.324219 90.105469 " clip-rule="nonzero"/></clipPath></defs><rect x="-37.5" width="450" fill="#ffffff" y="-37.499999" height="449.999989" fill-opacity="1"/><rect x="-37.5" width="450" fill="#ffffff" y="-37.499999" height="449.999989" fill-opacity="1"/><g clip-path="url(#0d0bdc8d29)"><path fill="#2a0944" d="M 236.324219 255.859375 C 236.324219 261.238281 231.957031 265.609375 226.574219 265.609375 L 148.574219 265.609375 C 143.195312 265.609375 138.824219 261.238281 138.824219 255.859375 L 138.824219 177.859375 C 138.824219 172.480469 143.195312 168.109375 148.574219 168.109375 L 226.574219 168.109375 C 231.957031 168.109375 236.324219 172.480469 236.324219 177.859375 Z M 168.074219 148.609375 L 168.074219 130.394531 C 168.074219 122.617188 172.140625 115.078125 179.121094 111.648438 C 191.015625 105.796875 202.589844 113.421875 206.039062 123.230469 C 207.328125 126.886719 211.050781 129.109375 214.921875 129.109375 C 221.550781 129.109375 226.503906 122.496094 224.125 116.308594 C 217.332031 98.574219 197.273438 84.816406 175.679688 92.097656 C 159.027344 97.71875 148.574219 114.351562 148.574219 131.917969 L 148.574219 148.609375 C 132.421875 148.609375 119.324219 161.703125 119.324219 177.859375 L 119.324219 255.859375 C 119.324219 272.015625 132.421875 285.109375 148.574219 285.109375 L 226.574219 285.109375 C 242.730469 285.109375 255.824219 272.015625 255.824219 255.859375 L 255.824219 177.859375 C 255.824219 161.703125 242.730469 148.609375 226.574219 148.609375 Z M 168.074219 148.609375 " fill-opacity="1" fill-rule="evenodd"/></g></svg>