<svg xmlns="http://www.w3.org/2000/svg" xmlns:xlink="http://www.w3.org/1999/xlink" width="500" zoomAndPan="magnify" viewBox="0 0 375 374.999991" height="500" preserveAspectRatio="xMidYMid meet" version="1.0"><defs><clipPath id="3af0db9830"><path d="M 104.625 83.066406 L 270.375 83.066406 L 270.375 278.066406 L 104.625 278.066406 Z M 104.625 83.066406 " clip-rule="nonzero"/></clipPath></defs><rect x="-37.5" width="450" fill="#ffffff" y="-37.499999" height="449.999989" fill-opacity="1"/><rect x="-37.5" width="450" fill="#ffffff" y="-37.499999" height="449.999989" fill-opacity="1"/><rect x="-37.5" width="450" fill="#ffffff" y="-37.499999" height="449.999989" fill-opacity="1"/><g clip-path="url(#3af0db9830)"><path fill="#2a0944" d="M 228.894531 219.566406 L 146.109375 219.566406 L 146.109375 161.066406 C 146.109375 135.074219 166.804688 122.066406 187.492188 122.066406 L 187.511719 122.066406 C 208.199219 122.066406 228.894531 135.074219 228.894531 161.066406 Z M 197.851562 248.816406 C 197.851562 254.199219 193.214844 258.566406 187.5 258.566406 C 181.789062 258.566406 177.152344 254.199219 177.152344 248.816406 L 177.152344 239.066406 L 197.851562 239.066406 Z M 259.941406 219.566406 C 254.226562 219.566406 249.589844 215.199219 249.589844 209.816406 L 249.589844 161.066406 C 249.589844 126.425781 225.085938 107.199219 197.851562 103.339844 L 197.851562 92.816406 C 197.851562 87.4375 193.214844 83.066406 187.5 83.066406 C 181.789062 83.066406 177.152344 87.4375 177.152344 92.816406 L 177.152344 103.339844 C 149.917969 107.199219 125.410156 126.425781 125.410156 161.066406 L 125.410156 209.816406 C 125.410156 215.199219 120.777344 219.566406 115.0625 219.566406 C 109.351562 219.566406 104.714844 223.9375 104.714844 229.316406 C 104.714844 234.699219 109.351562 239.066406 115.0625 239.066406 L 156.457031 239.066406 L 156.457031 248.816406 C 156.457031 264.972656 170.355469 278.066406 187.5 278.066406 C 204.648438 278.066406 218.546875 264.972656 218.546875 248.816406 L 218.546875 239.066406 L 259.941406 239.066406 C 265.652344 239.066406 270.289062 234.699219 270.289062 229.316406 C 270.289062 223.9375 265.652344 219.566406 259.941406 219.566406 Z M 259.941406 219.566406 " fill-opacity="1" fill-rule="evenodd"/></g></svg>