<svg xmlns="http://www.w3.org/2000/svg" xmlns:xlink="http://www.w3.org/1999/xlink" width="500" zoomAndPan="magnify" viewBox="0 0 375 374.999991" height="500" preserveAspectRatio="xMidYMid meet" version="1.0"><defs><clipPath id="4df7afa63d"><path d="M 85.273438 90.105469 L 290.023438 90.105469 L 290.023438 285.105469 L 85.273438 285.105469 Z M 85.273438 90.105469 " clip-rule="nonzero"/></clipPath></defs><rect x="-37.5" width="450" fill="#ffffff" y="-37.499999" height="449.999989" fill-opacity="1"/><rect x="-37.5" width="450" fill="#ffffff" y="-37.499999" height="449.999989" fill-opacity="1"/><g clip-path="url(#4df7afa63d)"><path fill="#2a0944" d="M 269.546875 168.113281 L 105.75 168.113281 L 105.75 237.964844 C 105.75 253.191406 118.761719 265.578125 134.75 265.578125 L 269.546875 265.578125 Z M 105.75 148.621094 L 208.125 148.621094 L 208.125 137.246094 C 208.125 122.019531 194.261719 109.632812 178.261719 109.632812 L 105.75 109.632812 Z M 290.023438 148.621094 L 290.023438 285.074219 L 134.75 285.074219 C 107.425781 285.074219 85.273438 263.980469 85.273438 237.964844 L 85.273438 90.140625 L 179.96875 90.140625 C 207.292969 90.140625 228.597656 111.230469 228.597656 137.246094 L 228.597656 148.621094 Z M 230.308594 216.847656 C 230.308594 211.464844 234.882812 207.097656 240.546875 207.097656 C 246.195312 207.097656 250.785156 211.464844 250.785156 216.847656 C 250.785156 222.226562 246.195312 226.59375 240.546875 226.59375 C 234.882812 226.59375 230.308594 222.226562 230.308594 216.847656 Z M 230.308594 216.847656 " fill-opacity="1" fill-rule="evenodd"/></g></svg>