<svg xmlns="http://www.w3.org/2000/svg" xmlns:xlink="http://www.w3.org/1999/xlink" width="500" zoomAndPan="magnify" viewBox="0 0 375 374.999991" height="500" preserveAspectRatio="xMidYMid meet" version="1.0"><defs><clipPath id="6cf280bacf"><path d="M 90.105469 90.105469 L 285.105469 90.105469 L 285.105469 285.105469 L 90.105469 285.105469 Z M 90.105469 90.105469 " clip-rule="nonzero"/></clipPath></defs><rect x="-37.5" width="450" fill="#ffffff" y="-37.499999" height="449.999989" fill-opacity="1"/><rect x="-37.5" width="450" fill="#ffffff" y="-37.499999" height="449.999989" fill-opacity="1"/><g clip-path="url(#6cf280bacf)"><path fill="#2a0944" d="M 265.605469 129.109375 L 246.105469 129.109375 L 246.105469 119.359375 C 246.105469 113.980469 250.472656 109.609375 255.855469 109.609375 C 261.238281 109.609375 265.605469 113.980469 265.605469 119.359375 Z M 265.605469 187.609375 C 265.605469 291.613281 109.605469 291.613281 109.605469 187.609375 L 109.605469 148.609375 L 129.105469 148.609375 L 129.105469 187.609375 C 129.105469 265.609375 246.105469 265.609375 246.105469 187.609375 L 246.105469 148.609375 L 265.605469 148.609375 Z M 119.355469 109.609375 C 124.738281 109.609375 129.105469 113.980469 129.105469 119.359375 L 129.105469 129.109375 L 109.605469 129.109375 L 109.605469 119.359375 C 109.605469 113.980469 113.972656 109.609375 119.355469 109.609375 Z M 265.605469 90.109375 L 246.105469 90.109375 C 235.332031 90.109375 226.605469 98.835938 226.605469 109.609375 L 226.605469 187.609375 C 226.605469 239.605469 148.605469 239.605469 148.605469 187.609375 L 148.605469 109.609375 C 148.605469 98.835938 139.878906 90.109375 129.105469 90.109375 L 109.605469 90.109375 C 98.832031 90.109375 90.105469 98.835938 90.105469 109.609375 L 90.105469 187.609375 C 90.105469 317.605469 285.105469 317.605469 285.105469 187.609375 L 285.105469 109.609375 C 285.105469 98.835938 276.378906 90.109375 265.605469 90.109375 Z M 265.605469 90.109375 " fill-opacity="1" fill-rule="evenodd"/></g></svg>