<svg xmlns="http://www.w3.org/2000/svg" xmlns:xlink="http://www.w3.org/1999/xlink" width="500" zoomAndPan="magnify" viewBox="0 0 375 374.999991" height="500" preserveAspectRatio="xMidYMid meet" version="1.0"><defs><clipPath id="0be0536512"><path d="M 112.882812 94.230469 L 262.132812 94.230469 L 262.132812 280.980469 L 112.882812 280.980469 Z M 112.882812 94.230469 " clip-rule="nonzero"/></clipPath></defs><rect x="-37.5" width="450" fill="#ffffff" y="-37.499999" height="449.999989" fill-opacity="1"/><rect x="-37.5" width="450" fill="#ffffff" y="-37.499999" height="449.999989" fill-opacity="1"/><g clip-path="url(#0be0536512)"><path fill="#fec260" d="M 192.339844 127.679688 C 196.390625 130.863281 197.089844 136.738281 193.910156 140.789062 L 182.371094 155.464844 C 179.1875 159.515625 173.320312 160.214844 169.273438 157.03125 C 165.222656 153.839844 164.523438 147.972656 167.707031 143.925781 L 179.246094 129.25 C 182.425781 125.195312 188.292969 124.5 192.339844 127.679688 Z M 243.476562 243.628906 L 224.820312 243.628906 L 224.820312 224.957031 L 234.148438 224.957031 C 239.300781 224.957031 243.476562 229.128906 243.476562 234.292969 Z M 218.414062 206.28125 L 150.195312 206.28125 L 150.195312 122.246094 C 150.195312 117.082031 154.375 112.910156 159.523438 112.910156 L 215.492188 112.910156 C 220.644531 112.910156 224.820312 117.082031 224.820312 122.246094 L 224.820312 206.28125 Z M 168.851562 243.628906 L 206.164062 243.628906 L 206.164062 224.957031 L 168.851562 224.957031 Z M 150.195312 243.628906 L 131.539062 243.628906 L 131.539062 234.292969 C 131.539062 229.128906 135.71875 224.957031 140.867188 224.957031 L 150.195312 224.957031 Z M 243.476562 206.28125 L 252.804688 206.28125 C 257.957031 206.28125 262.132812 202.097656 262.132812 196.945312 C 262.132812 191.777344 257.957031 187.605469 252.804688 187.605469 L 243.476562 187.605469 L 243.476562 112.910156 C 243.476562 102.589844 235.128906 94.234375 224.820312 94.234375 L 150.195312 94.234375 C 139.898438 94.234375 131.539062 102.589844 131.539062 112.910156 L 131.539062 187.605469 L 122.210938 187.605469 C 117.0625 187.605469 112.882812 191.777344 112.882812 196.945312 C 112.882812 202.097656 117.0625 206.28125 122.210938 206.28125 L 131.539062 206.28125 C 121.242188 206.28125 112.882812 214.636719 112.882812 224.957031 L 112.882812 271.640625 C 112.882812 276.792969 117.0625 280.980469 122.210938 280.980469 C 127.363281 280.980469 131.539062 276.792969 131.539062 271.640625 L 131.539062 262.304688 L 243.476562 262.304688 L 243.476562 271.640625 C 243.476562 276.792969 247.65625 280.980469 252.804688 280.980469 C 257.957031 280.980469 262.132812 276.792969 262.132812 271.640625 L 262.132812 224.957031 C 262.132812 214.636719 253.785156 206.28125 243.476562 206.28125 Z M 243.476562 206.28125 " fill-opacity="1" fill-rule="evenodd"/></g></svg>