<svg xmlns="http://www.w3.org/2000/svg" xmlns:xlink="http://www.w3.org/1999/xlink" width="500" zoomAndPan="magnify" viewBox="0 0 375 374.999991" height="500" preserveAspectRatio="xMidYMid meet" version="1.0"><defs><clipPath id="75db4d1184"><path d="M 112.882812 94.230469 L 262.132812 94.230469 L 262.132812 280.980469 L 112.882812 280.980469 Z M 112.882812 94.230469 " clip-rule="nonzero"/></clipPath></defs><rect x="-37.5" width="450" fill="#ffffff" y="-37.499999" height="449.999989" fill-opacity="1"/><rect x="-37.5" width="450" fill="#ffffff" y="-37.499999" height="449.999989" fill-opacity="1"/><g clip-path="url(#75db4d1184)"><path fill="#fec260" d="M 131.539062 187.214844 L 131.539062 123.09375 C 131.539062 117.960938 135.71875 112.828125 140.867188 112.828125 L 234.148438 112.828125 C 239.300781 112.828125 243.476562 117.960938 243.476562 123.09375 L 243.476562 187.214844 Z M 224.671875 216.152344 L 224.671875 216.003906 C 224.671875 210.90625 228.824219 206.777344 233.933594 206.777344 L 234.074219 206.777344 C 239.1875 206.777344 243.328125 210.910156 243.328125 216.003906 L 243.328125 216.152344 C 243.328125 221.25 239.1875 225.375 234.074219 225.375 L 233.933594 225.375 C 228.824219 225.375 224.671875 221.246094 224.671875 216.152344 Z M 140.941406 225.375 L 140.792969 225.375 C 135.683594 225.375 131.539062 221.246094 131.539062 216.152344 C 131.539062 211.058594 135.683594 206.929688 140.792969 206.929688 L 140.941406 206.929688 C 146.054688 206.929688 150.195312 211.058594 150.195312 216.152344 C 150.195312 221.246094 146.054688 225.375 140.941406 225.375 Z M 131.539062 94.230469 C 121.234375 94.230469 112.882812 103.53125 112.882812 113.792969 L 112.882812 225.375 C 112.882812 235.652344 121.234375 243.007812 131.539062 243.007812 L 153.515625 243.007812 L 143.789062 267.300781 C 141.503906 271.980469 140.867188 277.855469 150.195312 280.050781 L 150.195312 280.171875 C 150.195312 282.320312 158.320312 279.957031 160.550781 275.402344 L 174.28125 243.007812 L 201.054688 243.007812 L 219.773438 275.578125 C 222.042969 280.058594 224.820312 282.167969 234.148438 280.050781 L 234.148438 280.171875 C 234.148438 277.960938 238.796875 271.824219 236.417969 267.136719 L 221.949219 243.007812 L 243.476562 243.007812 C 253.785156 243.007812 262.132812 235.652344 262.132812 225.375 L 262.132812 113.792969 C 262.132812 103.527344 253.785156 94.230469 243.476562 94.230469 Z M 131.539062 94.230469 " fill-opacity="1" fill-rule="evenodd"/></g></svg>