<svg xmlns="http://www.w3.org/2000/svg" xmlns:xlink="http://www.w3.org/1999/xlink" width="500" zoomAndPan="magnify" viewBox="0 0 375 374.999991" height="500" preserveAspectRatio="xMidYMid meet" version="1.0"><defs><clipPath id="02aadddd0b"><path d="M 84.320312 125.59375 L 290.570312 125.59375 L 290.570312 249.34375 L 84.320312 249.34375 Z M 84.320312 125.59375 " clip-rule="nonzero"/></clipPath></defs><rect x="-37.5" width="450" fill="#ffffff" y="-37.499999" height="449.999989" fill-opacity="1"/><rect x="-37.5" width="450" fill="#ffffff" y="-37.499999" height="449.999989" fill-opacity="1"/><g clip-path="url(#02aadddd0b)"><path fill="#fec260" d="M 166.820312 187.46875 C 166.820312 176.074219 176.050781 166.84375 187.445312 166.84375 C 198.839844 166.84375 208.070312 176.074219 208.070312 187.46875 C 208.070312 198.863281 198.839844 208.09375 187.445312 208.09375 C 176.050781 208.09375 166.820312 198.863281 166.820312 187.46875 Z M 252.855469 146.21875 C 269.652344 146.21875 269.941406 150.179688 269.941406 163.304688 Z M 252.855469 228.71875 L 269.941406 211.628906 C 269.941406 228.410156 266.023438 228.71875 252.855469 228.71875 Z M 104.949219 211.628906 L 122.035156 228.71875 C 105.257812 228.71875 104.949219 224.800781 104.949219 211.628906 Z M 122.035156 146.21875 L 104.949219 163.304688 C 104.949219 146.507812 108.910156 146.21875 122.035156 146.21875 Z M 223.691406 146.21875 L 264.941406 187.46875 L 223.691406 228.71875 L 151.199219 228.71875 L 109.949219 187.46875 L 151.199219 146.21875 Z M 269.941406 125.59375 L 104.949219 125.59375 C 93.554688 125.59375 84.324219 134.824219 84.324219 146.21875 L 84.324219 228.71875 C 84.324219 240.113281 93.554688 249.34375 104.949219 249.34375 L 269.941406 249.34375 C 281.339844 249.34375 290.566406 240.113281 290.566406 228.71875 L 290.566406 146.21875 C 290.566406 134.824219 281.339844 125.59375 269.941406 125.59375 Z M 269.941406 125.59375 " fill-opacity="1" fill-rule="evenodd"/></g></svg>