<svg xmlns="http://www.w3.org/2000/svg" xmlns:xlink="http://www.w3.org/1999/xlink" width="500" zoomAndPan="magnify" viewBox="0 0 375 374.999991" height="500" preserveAspectRatio="xMidYMid meet" version="1.0"><defs><clipPath id="e5cb563967"><path d="M 154.769531 94.230469 L 220 94.230469 L 220 280.980469 L 154.769531 280.980469 Z M 154.769531 94.230469 " clip-rule="nonzero"/></clipPath></defs><rect x="-37.5" width="450" fill="#ffffff" y="-37.499999" height="449.999989" fill-opacity="1"/><rect x="-37.5" width="450" fill="#ffffff" y="-37.499999" height="449.999989" fill-opacity="1"/><g clip-path="url(#e5cb563967)"><path fill="#fec260" d="M 187.394531 262.304688 C 181.417969 262.304688 176.546875 258.113281 176.546875 252.96875 C 176.546875 247.824219 181.417969 243.628906 187.394531 243.628906 C 193.371094 243.628906 198.242188 247.824219 198.242188 252.96875 C 198.242188 258.113281 193.371094 262.304688 187.394531 262.304688 M 187.394531 224.957031 C 169.417969 224.957031 154.851562 237.496094 154.851562 252.96875 C 154.851562 268.441406 169.417969 280.980469 187.394531 280.980469 C 205.371094 280.980469 219.941406 268.441406 219.941406 252.96875 C 219.941406 237.496094 205.371094 224.957031 187.394531 224.957031 M 187.394531 196.941406 C 181.417969 196.941406 176.546875 192.75 176.546875 187.605469 C 176.546875 182.460938 181.417969 178.269531 187.394531 178.269531 C 193.371094 178.269531 198.242188 182.460938 198.242188 187.605469 C 198.242188 192.75 193.371094 196.941406 187.394531 196.941406 M 187.394531 159.59375 C 169.417969 159.59375 154.851562 172.132812 154.851562 187.605469 C 154.851562 203.078125 169.417969 215.617188 187.394531 215.617188 C 205.371094 215.617188 219.941406 203.078125 219.941406 187.605469 C 219.941406 172.132812 205.371094 159.59375 187.394531 159.59375 M 187.394531 112.90625 C 193.371094 112.90625 198.242188 117.097656 198.242188 122.242188 C 198.242188 127.386719 193.371094 131.582031 187.394531 131.582031 C 181.417969 131.582031 176.546875 127.386719 176.546875 122.242188 C 176.546875 117.097656 181.417969 112.90625 187.394531 112.90625 M 187.394531 150.253906 C 205.371094 150.253906 219.941406 137.714844 219.941406 122.242188 C 219.941406 106.769531 205.371094 94.230469 187.394531 94.230469 C 169.417969 94.230469 154.851562 106.769531 154.851562 122.242188 C 154.851562 137.714844 169.417969 150.253906 187.394531 150.253906 " fill-opacity="1" fill-rule="evenodd"/></g></svg>