<svg xmlns="http://www.w3.org/2000/svg" xmlns:xlink="http://www.w3.org/1999/xlink" width="500" zoomAndPan="magnify" viewBox="0 0 375 374.999991" height="500" preserveAspectRatio="xMidYMid meet" version="1.0"><defs><clipPath id="5c5c57c6cd"><path d="M 82.441406 82.441406 L 292.441406 82.441406 L 292.441406 292.441406 L 82.441406 292.441406 Z M 82.441406 82.441406 " clip-rule="nonzero"/></clipPath></defs><rect x="-37.5" width="450" fill="#ffffff" y="-37.499999" height="449.999989" fill-opacity="1"/><rect x="-37.5" width="450" fill="#ffffff" y="-37.499999" height="449.999989" fill-opacity="1"/><rect x="-37.5" width="450" fill="#ffffff" y="-37.499999" height="449.999989" fill-opacity="1"/><g clip-path="url(#5c5c57c6cd)"><path fill="#fec260" d="M 248.5625 230.710938 C 246.035156 237.875 235.972656 243.800781 227.953125 245.535156 C 222.460938 246.699219 215.300781 247.625 191.171875 237.621094 C 164.070312 226.394531 126.4375 186.398438 126.4375 159.785156 C 126.4375 146.234375 134.25 130.457031 147.910156 130.457031 C 154.484375 130.457031 155.933594 130.585938 158.097656 135.777344 C 160.625 141.886719 166.800781 156.949219 167.535156 158.492188 C 170.570312 164.824219 164.449219 168.53125 160.007812 174.046875 C 158.589844 175.710938 156.984375 177.503906 158.777344 180.589844 C 160.5625 183.613281 166.738281 193.679688 175.808594 201.753906 C 187.527344 212.191406 197.03125 215.523438 200.433594 216.941406 C 202.960938 217.992188 205.988281 217.75 207.835938 215.777344 C 210.175781 213.242188 213.085938 209.042969 216.046875 204.90625 C 218.136719 201.945312 220.792969 201.582031 223.574219 202.625 C 225.453125 203.277344 249.339844 214.367188 250.347656 216.144531 C 251.09375 217.4375 251.09375 223.550781 248.5625 230.710938 M 187.464844 82.441406 L 187.410156 82.441406 C 129.523438 82.441406 82.441406 129.535156 82.441406 187.441406 C 82.441406 210.398438 89.84375 231.699219 102.433594 248.976562 L 89.351562 288 L 129.703125 275.101562 C 146.304688 286.085938 166.117188 292.441406 187.464844 292.441406 C 245.351562 292.441406 292.441406 245.34375 292.441406 187.441406 C 292.441406 129.535156 245.351562 82.441406 187.464844 82.441406 " fill-opacity="1" fill-rule="evenodd"/></g></svg>