<svg xmlns="http://www.w3.org/2000/svg" xmlns:xlink="http://www.w3.org/1999/xlink" width="500" zoomAndPan="magnify" viewBox="0 0 375 374.999991" height="500" preserveAspectRatio="xMidYMid meet" version="1.0"><defs><clipPath id="0c7064d0f7"><path d="M 94.328125 94.328125 L 280.328125 94.328125 L 280.328125 280.328125 L 94.328125 280.328125 Z M 94.328125 94.328125 " clip-rule="nonzero"/></clipPath></defs><rect x="-37.5" width="450" fill="#ffffff" y="-37.499999" height="449.999989" fill-opacity="1"/><rect x="-37.5" width="450" fill="#ffffff" y="-37.499999" height="449.999989" fill-opacity="1"/><g clip-path="url(#0c7064d0f7)"><path fill="#fec260" d="M 248.359375 261.726562 L 126.300781 261.726562 C 119.730469 261.726562 114.882812 255.246094 117.359375 249.285156 C 128.855469 221.71875 155.863281 205.925781 187.324219 205.925781 C 218.796875 205.925781 245.804688 221.71875 257.300781 249.285156 C 259.777344 255.246094 254.929688 261.726562 248.359375 261.726562 M 149.351562 150.128906 C 149.351562 129.609375 166.390625 112.925781 187.324219 112.925781 C 208.269531 112.925781 225.300781 129.609375 225.300781 150.128906 C 225.300781 170.644531 208.269531 187.328125 187.324219 187.328125 C 166.390625 187.328125 149.351562 170.644531 149.351562 150.128906 M 279.914062 258.34375 C 273.011719 227.105469 251.425781 204.046875 223.011719 193.585938 C 238.066406 181.710938 246.847656 162.503906 243.621094 141.476562 C 239.882812 117.082031 219.167969 97.5625 194.160156 94.71875 C 159.640625 90.785156 130.363281 117.101562 130.363281 150.128906 C 130.363281 167.703125 138.679688 183.367188 151.648438 193.585938 C 123.226562 204.046875 101.648438 227.105469 94.734375 258.34375 C 92.230469 269.695312 101.570312 280.328125 113.429688 280.328125 L 261.222656 280.328125 C 273.089844 280.328125 282.429688 269.699219 279.914062 258.34375 " fill-opacity="1" fill-rule="evenodd"/></g></svg>