<svg xmlns="http://www.w3.org/2000/svg" xmlns:xlink="http://www.w3.org/1999/xlink" width="500" zoomAndPan="magnify" viewBox="0 0 375 374.999991" height="500" preserveAspectRatio="xMidYMid meet" version="1.0"><defs><clipPath id="85c049d412"><path d="M 98.730469 94.328125 L 276.480469 94.328125 L 276.480469 280.328125 L 98.730469 280.328125 Z M 98.730469 94.328125 " clip-rule="nonzero"/></clipPath></defs><rect x="-37.5" width="450" fill="#ffffff" y="-37.499999" height="449.999989" fill-opacity="1"/><rect x="-37.5" width="450" fill="#ffffff" y="-37.499999" height="449.999989" fill-opacity="1"/><g clip-path="url(#85c049d412)"><path fill="#fec260" d="M 223.882812 146.441406 C 223.882812 127.28125 207.613281 111.699219 187.605469 111.699219 C 167.601562 111.699219 151.328125 127.28125 151.328125 146.441406 C 151.328125 165.601562 167.601562 181.183594 187.605469 181.183594 C 207.613281 181.183594 223.882812 165.601562 223.882812 146.441406 M 258.199219 268.042969 L 242.019531 268.042969 C 237.015625 268.042969 232.953125 264.152344 232.953125 259.359375 C 232.953125 254.5625 237.015625 250.671875 242.019531 250.671875 L 245.910156 250.671875 C 252.1875 250.671875 256.820312 244.617188 254.445312 239.050781 C 243.460938 213.304688 217.671875 198.558594 187.605469 198.558594 C 157.542969 198.558594 131.75 213.304688 120.765625 239.050781 C 118.390625 244.617188 123.027344 250.671875 129.300781 250.671875 L 133.191406 250.671875 C 138.199219 250.671875 142.261719 254.5625 142.261719 259.359375 C 142.261719 264.152344 138.199219 268.042969 133.191406 268.042969 L 117.011719 268.042969 C 105.675781 268.042969 96.753906 258.117188 99.15625 247.511719 C 105.757812 218.335938 126.371094 196.804688 153.523438 187.03125 C 141.136719 177.484375 133.191406 162.859375 133.191406 146.441406 C 133.191406 115.597656 161.160156 91.019531 194.128906 94.691406 C 218.015625 97.351562 237.804688 115.582031 241.386719 138.363281 C 244.46875 158.003906 236.082031 175.9375 221.6875 187.03125 C 248.839844 196.804688 269.453125 218.335938 276.058594 247.511719 C 278.460938 258.117188 269.535156 268.042969 258.199219 268.042969 M 206.84375 253.21875 L 200.429688 259.359375 L 206.84375 265.5 C 210.386719 268.898438 210.386719 274.394531 206.84375 277.78125 C 203.304688 281.175781 197.5625 281.175781 194.019531 277.78125 L 187.605469 271.640625 L 181.195312 277.78125 C 177.648438 281.175781 171.90625 281.175781 168.371094 277.78125 C 164.824219 274.394531 164.824219 268.898438 168.371094 265.5 L 174.78125 259.359375 L 168.371094 253.21875 C 164.824219 249.820312 164.824219 244.324219 168.371094 240.9375 C 171.90625 237.539062 177.648438 237.539062 181.195312 240.9375 L 187.605469 247.078125 L 194.019531 240.9375 C 197.5625 237.539062 203.304688 237.539062 206.84375 240.9375 C 210.386719 244.324219 210.386719 249.820312 206.84375 253.21875 " fill-opacity="1" fill-rule="evenodd"/></g></svg>