<svg xmlns="http://www.w3.org/2000/svg" xmlns:xlink="http://www.w3.org/1999/xlink" width="500" zoomAndPan="magnify" viewBox="0 0 375 374.999991" height="500" preserveAspectRatio="xMidYMid meet" version="1.0"><defs><clipPath id="a268d4ed67"><path d="M 85.273438 85.273438 L 290.023438 85.273438 L 290.023438 290.023438 L 85.273438 290.023438 Z M 85.273438 85.273438 " clip-rule="nonzero"/></clipPath></defs><rect x="-37.5" width="450" fill="#ffffff" y="-37.499999" height="449.999989" fill-opacity="1"/><rect x="-37.5" width="450" fill="#ffffff" y="-37.499999" height="449.999989" fill-opacity="1"/><g clip-path="url(#a268d4ed67)"><path fill="#fec260" d="M 210.488281 228.601562 C 202.6875 228.601562 180.839844 228.023438 162.554688 227.21875 L 199.125 190.664062 L 228.8125 203.277344 C 232.375 204.78125 236.5 203.980469 239.234375 201.246094 C 243.996094 196.488281 242.429688 188.429688 236.234375 185.800781 L 213.601562 176.179688 L 242.070312 147.710938 C 246.074219 143.707031 246.074219 137.226562 242.070312 133.234375 C 238.078125 129.230469 231.597656 129.230469 227.59375 133.234375 L 214.039062 146.789062 L 206.136719 133.257812 C 202.871094 127.660156 195.183594 126.664062 190.585938 131.253906 C 187.414062 134.4375 186.769531 139.363281 189.039062 143.25 L 199.566406 161.265625 L 148.101562 212.730469 C 147.273438 194.394531 146.699219 172.609375 146.699219 164.816406 C 146.699219 128.359375 160.007812 105.753906 226.234375 105.753906 C 234.914062 105.753906 254.5625 106.566406 267.972656 107.601562 C 268.871094 117.972656 269.546875 131.484375 269.546875 138.832031 C 269.546875 228.605469 226.644531 228.605469 210.488281 228.605469 M 286.019531 89.285156 C 276.746094 86.746094 236.316406 85.28125 226.234375 85.28125 C 165.351562 85.28125 126.222656 103.929688 126.222656 164.816406 C 126.222656 172.640625 127.113281 210.972656 128.691406 232.140625 L 88.273438 272.558594 C 84.269531 276.554688 84.269531 283.042969 88.273438 287.035156 C 92.277344 291.039062 98.757812 291.039062 102.75 287.035156 L 143.167969 246.617188 C 164.328125 248.191406 202.667969 249.085938 210.488281 249.085938 C 271.382812 249.085938 290.023438 199.722656 290.023438 138.835938 C 290.023438 128.753906 288.550781 98.5625 286.019531 89.289062 " fill-opacity="1" fill-rule="evenodd"/></g></svg>