<svg xmlns="http://www.w3.org/2000/svg" xmlns:xlink="http://www.w3.org/1999/xlink" width="500" zoomAndPan="magnify" viewBox="0 0 375 374.999991" height="500" preserveAspectRatio="xMidYMid meet" version="1.0"><defs><clipPath id="71b871dafc"><path d="M 85.273438 85.273438 L 290.023438 85.273438 L 290.023438 290.023438 L 85.273438 290.023438 Z M 85.273438 85.273438 " clip-rule="nonzero"/></clipPath></defs><rect x="-37.5" width="450" fill="#ffffff" y="-37.499999" height="449.999989" fill-opacity="1"/><rect x="-37.5" width="450" fill="#ffffff" y="-37.499999" height="449.999989" fill-opacity="1"/><g clip-path="url(#71b871dafc)"><path fill="#fec260" d="M 257.738281 269.546875 L 117.558594 269.546875 C 111.324219 269.546875 106.542969 264.027344 107.421875 257.863281 L 119.125 175.964844 C 119.839844 170.917969 124.160156 167.171875 129.257812 167.171875 L 136.457031 167.171875 L 136.457031 187.644531 C 136.457031 193.296875 141.042969 197.882812 146.691406 197.882812 C 152.355469 197.882812 156.929688 193.296875 156.929688 187.644531 L 156.929688 167.171875 L 218.355469 167.171875 L 218.355469 187.644531 C 218.355469 193.296875 222.941406 197.882812 228.59375 197.882812 C 234.253906 197.882812 238.832031 193.296875 238.832031 187.644531 L 238.832031 167.171875 L 246.039062 167.171875 C 251.136719 167.171875 255.457031 170.917969 256.171875 175.964844 L 267.875 257.863281 C 268.753906 264.027344 263.972656 269.546875 257.738281 269.546875 Z M 156.929688 136.457031 C 156.929688 119.523438 170.710938 105.746094 187.644531 105.746094 C 204.585938 105.746094 218.355469 115.984375 218.355469 136.457031 L 218.355469 146.695312 L 156.929688 146.695312 Z M 289.8125 266.648438 L 275.183594 164.273438 C 273.75 154.1875 265.109375 146.695312 254.914062 146.695312 L 238.832031 146.695312 L 238.832031 136.457031 C 238.832031 105.746094 215.867188 85.269531 187.644531 85.269531 C 159.429688 85.269531 136.457031 108.234375 136.457031 136.457031 L 136.457031 146.695312 L 123.503906 146.695312 C 113.320312 146.695312 101.546875 154.1875 100.101562 164.273438 L 85.484375 266.648438 C 83.722656 278.984375 93.292969 290.019531 105.753906 290.019531 L 269.542969 290.019531 C 282 290.019531 291.574219 278.984375 289.8125 266.648438 Z M 289.8125 266.648438 " fill-opacity="1" fill-rule="evenodd"/></g></svg>