<svg xmlns="http://www.w3.org/2000/svg" xmlns:xlink="http://www.w3.org/1999/xlink" width="500" zoomAndPan="magnify" viewBox="0 0 375 374.999991" height="500" preserveAspectRatio="xMidYMid meet" version="1.0"><defs><clipPath id="427f5b5876"><path d="M 78.585938 94.230469 L 296 94.230469 L 296 280.980469 L 78.585938 280.980469 Z M 78.585938 94.230469 " clip-rule="nonzero"/></clipPath></defs><rect x="-37.5" width="450" fill="#ffffff" y="-37.499999" height="449.999989" fill-opacity="1"/><rect x="-37.5" width="450" fill="#ffffff" y="-37.499999" height="449.999989" fill-opacity="1"/><g clip-path="url(#427f5b5876)"><path fill="#fec260" d="M 285.128906 136.039062 L 263.394531 136.039062 C 257.398438 136.039062 252.53125 140.675781 252.53125 146.390625 C 252.53125 152.105469 257.398438 156.742188 263.394531 156.742188 L 285.128906 156.742188 C 291.125 156.742188 295.992188 152.105469 295.992188 146.390625 C 295.992188 140.675781 291.125 136.039062 285.128906 136.039062 Z M 120.546875 166.832031 C 117.121094 163.570312 119.546875 156.742188 124.390625 156.742188 L 180.199219 156.742188 C 186.207031 156.742188 191.0625 152.105469 191.0625 146.390625 C 191.0625 140.675781 186.207031 136.039062 180.199219 136.039062 L 124.414062 136.039062 C 119.566406 136.039062 117.144531 131.722656 120.566406 128.460938 L 138.832031 111.238281 C 143.082031 107.191406 143.082031 101.179688 138.832031 97.128906 C 134.59375 93.082031 127.707031 93.363281 123.457031 97.398438 L 88.90625 130.460938 L 85.035156 134.226562 C 76.5625 142.3125 76.5625 155.46875 85.035156 163.542969 L 123.46875 200.226562 C 127.707031 204.273438 134.582031 204.386719 138.832031 200.347656 C 143.070312 196.300781 143.070312 188.910156 138.832031 184.863281 Z M 291.503906 229.632812 L 287.898438 266.449219 C 285.867188 276.125 276.945312 280.949219 266.589844 280.949219 L 214.054688 280.949219 C 210.480469 280.949219 207.175781 281.417969 205.15625 278.613281 L 181.730469 237.964844 C 178.785156 233.894531 179.394531 228.398438 183.054688 224.910156 C 187.769531 220.417969 195.777344 221.0625 199.613281 226.257812 L 209.066406 238.605469 L 209.066406 150.675781 C 209.066406 144.960938 213.566406 140.324219 219.574219 140.324219 C 227.289062 140.324219 230.082031 147.011719 230.082031 150.675781 L 230.15625 202.886719 L 277.074219 207.003906 C 287.472656 210.296875 293.65625 219.394531 291.503906 229.632812 Z M 291.503906 229.632812 " fill-opacity="1" fill-rule="evenodd"/></g></svg>