<svg xmlns="http://www.w3.org/2000/svg" xmlns:xlink="http://www.w3.org/1999/xlink" width="500" zoomAndPan="magnify" viewBox="0 0 375 374.999991" height="500" preserveAspectRatio="xMidYMid meet" version="1.0"><defs><clipPath id="d44613bc9e"><path d="M 73.914062 85.273438 L 301.164062 85.273438 L 301.164062 290.023438 L 73.914062 290.023438 Z M 73.914062 85.273438 " clip-rule="nonzero"/></clipPath></defs><rect x="-37.5" width="450" fill="#ffffff" y="-37.499999" height="449.999989" fill-opacity="1"/><rect x="-37.5" width="450" fill="#ffffff" y="-37.499999" height="449.999989" fill-opacity="1"/><g clip-path="url(#d44613bc9e)"><path fill="#fec260" d="M 289.800781 145.597656 C 296.070312 145.597656 301.160156 150.808594 301.160156 157.226562 L 301.160156 226.992188 C 301.160156 233.410156 296.070312 238.621094 289.800781 238.621094 C 283.527344 238.621094 278.4375 233.410156 278.4375 226.992188 L 278.4375 157.226562 C 278.4375 150.808594 283.527344 145.597656 289.800781 145.597656 Z M 119.367188 215.367188 L 108.003906 215.367188 C 101.734375 215.367188 96.644531 210.15625 96.644531 203.738281 L 96.644531 180.484375 C 96.644531 174.066406 101.734375 168.855469 108.003906 168.855469 L 119.367188 168.855469 Z M 142.089844 154.15625 C 172.394531 138.644531 196.265625 126.433594 224.707031 111.878906 C 228.488281 109.949219 232.988281 112.726562 232.988281 117.050781 L 232.988281 255.542969 C 232.988281 259.871094 228.488281 262.644531 224.707031 260.714844 C 196.277344 246.160156 172.394531 233.9375 142.089844 218.4375 Z M 73.917969 168.855469 L 73.917969 215.371094 C 73.917969 228.21875 84.085938 238.625 96.644531 238.625 L 115.582031 238.625 L 223.730469 287.984375 C 238.761719 294.84375 255.714844 283.589844 255.714844 266.742188 L 255.714844 108.566406 C 255.714844 91.050781 237.523438 79.832031 222.398438 87.996094 L 115.582031 145.601562 L 96.644531 145.601562 C 84.085938 145.601562 73.917969 156.007812 73.917969 168.855469 Z M 73.917969 168.855469 " fill-opacity="1" fill-rule="evenodd"/></g></svg>