<svg xmlns="http://www.w3.org/2000/svg" xmlns:xlink="http://www.w3.org/1999/xlink" width="500" zoomAndPan="magnify" viewBox="0 0 375 374.999991" height="500" preserveAspectRatio="xMidYMid meet" version="1.0"><defs><clipPath id="27165cc5cf"><path d="M 110.738281 85.273438 L 264.488281 85.273438 L 264.488281 290.023438 L 110.738281 290.023438 Z M 110.738281 85.273438 " clip-rule="nonzero"/></clipPath></defs><rect x="-37.5" width="450" fill="#ffffff" y="-37.499999" height="449.999989" fill-opacity="1"/><rect x="-37.5" width="450" fill="#ffffff" y="-37.499999" height="449.999989" fill-opacity="1"/><g clip-path="url(#27165cc5cf)"><path fill="#fec260" d="M 136.421875 85.269531 C 122.296875 85.269531 110.828125 96.738281 110.828125 110.863281 L 110.828125 264.425781 C 110.828125 278.554688 122.296875 290.019531 136.421875 290.019531 C 150.550781 290.019531 162.019531 278.554688 162.019531 264.425781 L 162.019531 110.863281 C 162.019531 96.738281 150.550781 85.269531 136.421875 85.269531 M 264.398438 110.863281 L 264.398438 264.425781 C 264.398438 278.554688 252.929688 290.019531 238.800781 290.019531 C 224.671875 290.019531 213.207031 278.554688 213.207031 264.425781 L 213.207031 110.863281 C 213.207031 96.738281 224.671875 85.269531 238.800781 85.269531 C 252.929688 85.269531 264.398438 96.738281 264.398438 110.863281 " fill-opacity="1" fill-rule="evenodd"/></g></svg>