<svg xmlns="http://www.w3.org/2000/svg" xmlns:xlink="http://www.w3.org/1999/xlink" width="500" zoomAndPan="magnify" viewBox="0 0 375 374.999991" height="500" preserveAspectRatio="xMidYMid meet" version="1.0"><defs><clipPath id="2a66d87918"><path d="M 78.585938 94.230469 L 296 94.230469 L 296 280.980469 L 78.585938 280.980469 Z M 78.585938 94.230469 " clip-rule="nonzero"/></clipPath></defs><rect x="-37.5" width="450" fill="#ffffff" y="-37.499999" height="449.999989" fill-opacity="1"/><rect x="-37.5" width="450" fill="#ffffff" y="-37.499999" height="449.999989" fill-opacity="1"/><g clip-path="url(#2a66d87918)"><path fill="#fec260" d="M 122.140625 146.105469 C 122.140625 140.378906 117.273438 135.730469 111.277344 135.730469 L 89.546875 135.730469 C 83.546875 135.730469 78.679688 140.378906 78.679688 146.105469 C 78.679688 151.835938 83.546875 156.480469 89.546875 156.480469 L 111.277344 156.480469 C 117.273438 156.480469 122.140625 151.835938 122.140625 146.105469 M 289.636719 133.980469 L 285.769531 130.273438 L 251.214844 97.273438 C 246.964844 93.214844 240.078125 93.214844 235.839844 97.273438 C 231.59375 101.328125 231.59375 107.894531 235.839844 111.941406 L 254.105469 128.136719 C 257.527344 131.40625 255.105469 135.730469 250.257812 135.730469 L 194.476562 135.730469 C 188.464844 135.730469 183.609375 140.378906 183.609375 146.105469 C 183.609375 151.832031 188.464844 156.480469 194.476562 156.480469 L 250.28125 156.480469 C 255.125 156.480469 257.550781 163.328125 254.128906 166.597656 L 235.839844 184.671875 C 231.601562 188.726562 231.601562 195.605469 235.839844 199.664062 C 240.089844 203.707031 246.96875 203.863281 251.203125 199.816406 L 289.636719 163.203125 C 298.113281 155.101562 298.113281 142.082031 289.636719 133.976562 M 227.125 229.542969 L 223.519531 266.445312 C 221.488281 276.148438 212.566406 280.980469 202.210938 280.980469 L 149.675781 280.980469 C 146.101562 280.980469 142.742188 281.449219 140.722656 278.636719 L 117.253906 237.894531 C 114.296875 233.816406 114.808594 228.308594 118.46875 224.8125 C 123.183594 220.308594 130.996094 220.953125 134.824219 226.160156 L 143.875 238.539062 L 143.875 150.402344 C 143.875 144.675781 148.785156 140.027344 154.78125 140.027344 C 162.507812 140.027344 165.691406 146.730469 165.691406 150.402344 L 165.777344 202.734375 L 212.6875 206.863281 C 223.085938 210.160156 229.277344 219.28125 227.125 229.542969 " fill-opacity="1" fill-rule="evenodd"/></g></svg>