<svg xmlns="http://www.w3.org/2000/svg" xmlns:xlink="http://www.w3.org/1999/xlink" width="500" zoomAndPan="magnify" viewBox="0 0 375 374.999991" height="500" preserveAspectRatio="xMidYMid meet" version="1.0"><defs><clipPath id="04e5da67bc"><path d="M 68.492188 104.195312 L 306.242188 104.195312 L 306.242188 270.695312 L 68.492188 270.695312 Z M 68.492188 104.195312 " clip-rule="nonzero"/></clipPath></defs><rect x="-37.5" width="450" fill="#ffffff" y="-37.499999" height="449.999989" fill-opacity="1"/><rect x="-37.5" width="450" fill="#ffffff" y="-37.499999" height="449.999989" fill-opacity="1"/><g clip-path="url(#04e5da67bc)"><path fill="#fec260" d="M 183.894531 186.632812 C 183.894531 166.929688 199.859375 150.957031 219.558594 150.957031 C 239.253906 150.957031 255.21875 166.929688 255.21875 186.632812 C 255.21875 206.339844 239.253906 222.3125 219.558594 222.3125 C 199.859375 222.3125 183.894531 206.339844 183.894531 186.632812 Z M 150.324219 127.980469 L 221.648438 127.980469 C 254.425781 127.980469 281.085938 154.65625 281.085938 187.445312 C 281.085938 220.234375 254.425781 246.910156 221.648438 246.910156 L 150.324219 246.910156 C 117.550781 246.910156 90.886719 220.234375 90.886719 187.445312 C 90.886719 154.65625 117.550781 127.980469 150.324219 127.980469 Z M 306.242188 187.445312 C 306.242188 141.464844 268.984375 104.195312 223.027344 104.195312 L 151.703125 104.195312 C 105.746094 104.195312 68.492188 141.464844 68.492188 187.445312 C 68.492188 233.421875 105.746094 270.695312 151.703125 270.695312 L 223.027344 270.695312 C 268.984375 270.695312 306.242188 233.421875 306.242188 187.445312 Z M 306.242188 187.445312 " fill-opacity="1" fill-rule="evenodd"/></g></svg>