<svg xmlns="http://www.w3.org/2000/svg" xmlns:xlink="http://www.w3.org/1999/xlink" width="500" zoomAndPan="magnify" viewBox="0 0 375 374.999991" height="500" preserveAspectRatio="xMidYMid meet" version="1.0"><defs><clipPath id="2ba14bbbd4"><path d="M 85.273438 90.105469 L 290.023438 90.105469 L 290.023438 285.105469 L 85.273438 285.105469 Z M 85.273438 90.105469 " clip-rule="nonzero"/></clipPath></defs><rect x="-37.5" width="450" fill="#ffffff" y="-37.499999" height="449.999989" fill-opacity="1"/><rect x="-37.5" width="450" fill="#ffffff" y="-37.499999" height="449.999989" fill-opacity="1"/><g clip-path="url(#2ba14bbbd4)"><path fill="#fec260" d="M 165.820312 194.378906 C 149.847656 209.578125 123.949219 209.578125 107.980469 194.378906 L 91.261719 178.464844 C 83.277344 170.867188 83.277344 158.542969 91.261719 150.945312 C 99.25 143.34375 112.203125 143.34375 120.1875 150.945312 C 131.3125 161.53125 143.507812 160.558594 151.351562 153.085938 C 159.253906 145.5625 160.207031 133.980469 149.050781 123.371094 C 141.066406 115.773438 141.066406 103.441406 149.050781 95.839844 C 157.046875 88.238281 169.992188 88.238281 177.976562 95.839844 L 194.734375 111.792969 C 210.703125 126.992188 210.703125 151.644531 194.734375 166.84375 L 283.746094 251.582031 C 302.878906 269.78125 273.941406 297.292969 254.832031 279.105469 Z M 165.820312 194.378906 " fill-opacity="1" fill-rule="evenodd"/></g></svg>