<svg xmlns="http://www.w3.org/2000/svg" xmlns:xlink="http://www.w3.org/1999/xlink" width="500" zoomAndPan="magnify" viewBox="0 0 375 374.999991" height="500" preserveAspectRatio="xMidYMid meet" version="1.0"><defs><clipPath id="fce4c3ec8e"><path d="M 129.0625 90.105469 L 246.0625 90.105469 L 246.0625 285.105469 L 129.0625 285.105469 Z M 129.0625 90.105469 " clip-rule="nonzero"/></clipPath></defs><rect x="-37.5" width="450" fill="#ffffff" y="-37.499999" height="449.999989" fill-opacity="1"/><rect x="-37.5" width="450" fill="#ffffff" y="-37.499999" height="449.999989" fill-opacity="1"/><g clip-path="url(#fce4c3ec8e)"><path fill="#fec260" d="M 226.5625 226.605469 C 226.5625 249.390625 206.917969 267.679688 183.664062 265.410156 C 163.402344 263.4375 148.566406 245.230469 148.566406 224.867188 L 148.566406 207.105469 C 148.566406 188.988281 158.316406 173.847656 177.8125 169.488281 L 177.8125 207.105469 C 177.8125 212.484375 182.183594 216.855469 187.5625 216.855469 C 192.945312 216.855469 197.3125 212.484375 197.3125 207.105469 L 197.3125 169.488281 C 216.8125 173.847656 226.5625 188.988281 226.5625 207.105469 Z M 177.8125 129.105469 L 177.8125 149.480469 C 148.566406 154.132812 129.066406 178.125 129.066406 207.105469 L 129.066406 224.148438 C 129.066406 256.1875 153.753906 284.117188 185.761719 285.074219 C 218.890625 286.070312 246.0625 259.511719 246.0625 226.605469 L 246.0625 207.105469 C 246.0625 178.125 226.5625 154.132812 197.3125 149.480469 L 197.3125 138.855469 C 197.3125 133.472656 202.257812 129.105469 207.636719 129.105469 L 217.386719 129.105469 C 228.160156 129.105469 236.3125 120.378906 236.3125 109.605469 C 236.3125 99.855469 237.363281 90.105469 226.855469 90.105469 L 227 90.105469 C 221.609375 90.105469 217.320312 90.105469 217.320312 99.855469 L 217.359375 99.855469 C 217.359375 109.605469 213.03125 109.605469 207.636719 109.605469 L 197.886719 109.605469 C 187.125 109.605469 177.8125 118.332031 177.8125 129.105469 Z M 177.8125 129.105469 " fill-opacity="1" fill-rule="evenodd"/></g></svg>