<svg xmlns="http://www.w3.org/2000/svg" xmlns:xlink="http://www.w3.org/1999/xlink" width="500" zoomAndPan="magnify" viewBox="0 0 375 374.999991" height="500" preserveAspectRatio="xMidYMid meet" version="1.0"><defs><clipPath id="52a7e6f367"><path d="M 90.105469 90.105469 L 285.105469 90.105469 L 285.105469 285.105469 L 90.105469 285.105469 Z M 90.105469 90.105469 " clip-rule="nonzero"/></clipPath></defs><rect x="-37.5" width="450" fill="#ffffff" y="-37.499999" height="449.999989" fill-opacity="1"/><rect x="-37.5" width="450" fill="#ffffff" y="-37.499999" height="449.999989" fill-opacity="1"/><g clip-path="url(#52a7e6f367)"><path fill="#fec260" d="M 282.363281 201.226562 L 281.976562 200.824219 C 278.300781 197.082031 272.265625 196.84375 268.300781 200.289062 L 259.417969 208.027344 L 259.417969 109.597656 C 259.417969 98.824219 250.492188 90.097656 239.496094 90.097656 L 110.027344 90.097656 C 99.023438 90.097656 90.109375 98.824219 90.109375 109.597656 L 90.109375 119.445312 C 90.109375 124.777344 94.519531 129.097656 99.96875 129.097656 L 100.167969 129.097656 C 105.613281 129.097656 110.027344 124.78125 110.027344 119.445312 L 110.027344 119.25 C 110.027344 113.917969 114.4375 109.59375 119.886719 109.59375 L 229.636719 109.59375 C 235.085938 109.59375 239.496094 113.914062 239.496094 119.25 L 239.496094 208.023438 L 231.472656 200.691406 C 227.488281 197.054688 221.242188 197.269531 217.527344 201.167969 L 217.496094 201.207031 C 213.773438 205.105469 214.003906 211.226562 217.996094 214.855469 L 236.519531 231.710938 C 244.179688 238.671875 256.03125 238.652344 263.667969 231.675781 L 281.972656 214.957031 C 286 211.28125 286.167969 205.09375 282.363281 201.214844 Z M 169.78125 168.003906 C 169.78125 162.671875 165.371094 158.347656 159.921875 158.347656 L 119.886719 158.347656 C 114.4375 158.347656 110.027344 162.667969 110.027344 168.003906 L 110.027344 255.949219 C 110.027344 261.28125 114.4375 265.605469 119.886719 265.605469 L 159.921875 265.605469 C 165.371094 265.605469 169.78125 261.285156 169.78125 255.949219 Z M 189.703125 158.347656 L 189.703125 265.597656 C 189.703125 276.375 180.777344 285.097656 169.78125 285.097656 L 110.027344 285.097656 C 99.023438 285.097656 90.109375 276.375 90.109375 265.597656 L 90.109375 158.347656 C 90.109375 147.574219 99.023438 138.847656 110.027344 138.847656 L 169.78125 138.847656 C 180.777344 138.847656 189.703125 147.574219 189.703125 158.347656 Z M 149.863281 236.253906 L 149.863281 236.449219 C 149.863281 241.78125 145.453125 246.105469 140.003906 246.105469 L 139.804688 246.105469 C 134.355469 246.105469 129.945312 241.785156 129.945312 236.449219 L 129.945312 236.253906 C 129.945312 230.921875 134.355469 226.597656 139.804688 226.597656 L 140.003906 226.597656 C 145.453125 226.597656 149.863281 230.917969 149.863281 236.253906 Z M 149.863281 236.253906 " fill-opacity="1" fill-rule="evenodd"/></g></svg>