<svg xmlns="http://www.w3.org/2000/svg" xmlns:xlink="http://www.w3.org/1999/xlink" width="500" zoomAndPan="magnify" viewBox="0 0 375 374.999991" height="500" preserveAspectRatio="xMidYMid meet" version="1.0"><defs><clipPath id="7358ab43fb"><path d="M 98.808594 94.230469 L 276.558594 94.230469 L 276.558594 280.980469 L 98.808594 280.980469 Z M 98.808594 94.230469 " clip-rule="nonzero"/></clipPath></defs><rect x="-37.5" width="450" fill="#ffffff" y="-37.499999" height="449.999989" fill-opacity="1"/><rect x="-37.5" width="450" fill="#ffffff" y="-37.499999" height="449.999989" fill-opacity="1"/><g clip-path="url(#7358ab43fb)"><path fill="#fec260" d="M 148.214844 243.628906 C 142.769531 243.628906 138.351562 247.8125 138.351562 252.96875 L 138.351562 271.644531 C 138.351562 276.796875 142.769531 280.980469 148.214844 280.980469 C 153.65625 280.980469 158.078125 276.796875 158.078125 271.644531 L 158.078125 252.96875 C 158.078125 247.8125 153.65625 243.628906 148.214844 243.628906 Z M 138.351562 181.472656 C 138.351562 186.632812 142.769531 190.808594 148.214844 190.808594 C 153.65625 190.808594 158.078125 186.632812 158.078125 181.472656 L 158.078125 133.515625 C 158.078125 129.347656 164.675781 127.265625 167.78125 130.207031 L 185.023438 145.921875 C 188.867188 149.566406 195.695312 149.566406 199.539062 145.921875 C 203.398438 142.273438 203.425781 136.363281 199.570312 132.71875 L 164.695312 99.691406 C 157 92.410156 144.515625 92.410156 136.8125 99.691406 L 133.28125 103.015625 L 101.847656 132.710938 C 97.992188 136.363281 97.863281 142.28125 101.71875 145.921875 C 105.578125 149.574219 111.5625 149.574219 115.417969 145.921875 L 131.21875 130.226562 C 134.328125 127.285156 138.351562 129.367188 138.351562 133.53125 Z M 274.300781 228.09375 L 235.660156 248.234375 C 231.792969 250.773438 226.554688 250.277344 223.222656 247.121094 C 218.941406 243.070312 219.5625 236.253906 224.515625 232.957031 L 236.269531 224.953125 L 152.484375 224.953125 C 147.039062 224.953125 142.59375 220.96875 142.59375 215.804688 C 142.59375 209.175781 148.933594 206.664062 152.414062 206.664062 L 202.09375 206.589844 L 205.882812 166.277344 C 209.027344 157.34375 217.914062 152.019531 227.671875 153.867188 L 262.714844 156.96875 C 271.933594 158.714844 276.433594 166.378906 276.433594 175.28125 L 276.433594 220.425781 C 276.433594 223.5 276.976562 226.347656 274.300781 228.09375 Z M 274.300781 228.09375 " fill-opacity="1" fill-rule="evenodd"/></g></svg>