<svg xmlns="http://www.w3.org/2000/svg" xmlns:xlink="http://www.w3.org/1999/xlink" width="500" zoomAndPan="magnify" viewBox="0 0 375 374.999991" height="500" preserveAspectRatio="xMidYMid meet" version="1.0"><defs><clipPath id="406d567a5b"><path d="M 120.175781 87 L 255.175781 87 L 255.175781 273.6875 L 120.175781 273.6875 Z M 120.175781 87 " clip-rule="nonzero"/></clipPath></defs><rect x="-37.5" width="450" fill="#ffffff" y="-37.499999" height="449.999989" fill-opacity="1"/><rect x="-37.5" width="450" fill="#ffffff" y="-37.499999" height="449.999989" fill-opacity="1"/><g clip-path="url(#406d567a5b)"><path fill="#fec260" d="M 239.390625 198.894531 L 189.574219 194.824219 L 189.492188 143.242188 C 189.492188 139.632812 186.113281 133.015625 177.910156 133.015625 C 171.539062 133.015625 166.324219 137.597656 166.324219 143.242188 L 166.324219 230.113281 L 156.714844 217.925781 C 152.640625 212.792969 144.359375 212.148438 139.351562 216.585938 C 135.460938 220.042969 134.921875 225.472656 138.058594 229.480469 L 162.96875 270.488281 C 165.125 273.261719 168.679688 273.628906 172.476562 273.628906 L 228.257812 273.628906 C 239.265625 273.628906 248.738281 268.023438 250.894531 258.472656 L 254.722656 221.667969 C 257.007812 211.554688 250.433594 202.15625 239.390625 198.894531 M 131.714844 163.695312 C 125.34375 163.695312 120.175781 159.125 120.175781 153.46875 L 120.175781 140.6875 C 120.175781 69.101562 235.550781 69.101562 235.550781 140.6875 L 235.550781 153.46875 C 235.550781 159.125 230.378906 163.695312 224.011719 163.695312 C 217.644531 163.695312 212.476562 159.125 212.476562 153.46875 L 212.476562 140.6875 C 212.476562 99.78125 143.25 99.78125 143.25 140.6875 L 143.25 153.46875 C 143.25 159.125 138.082031 163.695312 131.714844 163.695312 " fill-opacity="1" fill-rule="evenodd"/></g></svg>