<svg xmlns="http://www.w3.org/2000/svg" xmlns:xlink="http://www.w3.org/1999/xlink" width="500" zoomAndPan="magnify" viewBox="0 0 375 374.999991" height="500" preserveAspectRatio="xMidYMid meet" version="1.0"><defs><clipPath id="32b25e44ac"><path d="M 116.785156 99.105469 L 258.535156 99.105469 L 258.535156 276.105469 L 116.785156 276.105469 Z M 116.785156 99.105469 " clip-rule="nonzero"/></clipPath></defs><rect x="-37.5" width="450" fill="#ffffff" y="-37.499999" height="449.999989" fill-opacity="1"/><rect x="-37.5" width="450" fill="#ffffff" y="-37.499999" height="449.999989" fill-opacity="1"/><g clip-path="url(#32b25e44ac)"><path fill="#fec260" d="M 257.996094 209.488281 L 253.417969 255.773438 C 250.84375 267.585938 239.546875 276.097656 226.421875 276.097656 L 159.851562 276.097656 C 155.324219 276.097656 151.238281 274.054688 148.664062 270.628906 L 119.085938 218.355469 C 115.347656 213.394531 116.300781 206.683594 120.957031 202.417969 C 126.929688 196.933594 137.457031 197.71875 142.304688 204.066406 L 155.042969 219.144531 L 155.042969 111.746094 C 155.042969 104.765625 159.996094 99.109375 167.601562 99.109375 C 177.382812 99.109375 180.148438 107.277344 180.148438 111.746094 L 180.257812 175.515625 L 239.703125 180.542969 C 252.875 184.578125 260.722656 196.984375 257.996094 209.488281 " fill-opacity="1" fill-rule="evenodd"/></g></svg>