<svg xmlns="http://www.w3.org/2000/svg" xmlns:xlink="http://www.w3.org/1999/xlink" width="500" zoomAndPan="magnify" viewBox="0 0 375 374.999991" height="500" preserveAspectRatio="xMidYMid meet" version="1.0"><defs><clipPath id="a6c8a9f212"><path d="M 89.601562 94.230469 L 285.351562 94.230469 L 285.351562 280.980469 L 89.601562 280.980469 Z M 89.601562 94.230469 " clip-rule="nonzero"/></clipPath></defs><rect x="-37.5" width="450" fill="#ffffff" y="-37.499999" height="449.999989" fill-opacity="1"/><rect x="-37.5" width="450" fill="#ffffff" y="-37.499999" height="449.999989" fill-opacity="1"/><rect x="-37.5" width="450" fill="#ffffff" y="-37.499999" height="449.999989" fill-opacity="1"/><g clip-path="url(#a6c8a9f212)"><path fill="#3fa796" d="M 258.859375 132.742188 L 140.921875 245.210938 L 127.082031 232.011719 L 245.019531 119.542969 C 248.835938 115.894531 255.03125 115.894531 258.859375 119.542969 C 262.6875 123.183594 262.6875 129.089844 258.859375 132.742188 Z M 252.703125 250.355469 C 255.160156 256.039062 250.777344 262.28125 244.324219 262.28125 L 244.257812 262.28125 C 240.585938 262.28125 237.269531 260.164062 235.878906 256.914062 L 212.742188 203.125 L 226.601562 189.898438 Z M 114.789062 141.335938 C 111.390625 140.011719 109.179688 136.855469 109.179688 133.347656 C 109.179688 127.195312 115.726562 123.015625 121.699219 125.367188 L 185.082031 150.296875 L 171.234375 163.503906 Z M 279.621094 112.945312 L 265.78125 99.738281 C 258.136719 92.449219 245.746094 92.449219 238.101562 99.738281 L 198.910156 137.117188 L 131.613281 110.742188 C 111.585938 102.890625 89.605469 116.929688 89.605469 137.585938 C 89.605469 145.144531 94.390625 151.96875 101.730469 154.84375 L 157.394531 176.703125 L 120.152344 212.214844 C 116.335938 215.855469 110.140625 215.855469 106.3125 212.214844 C 102.496094 208.566406 96.300781 208.566406 92.472656 212.214844 C 88.644531 215.855469 88.644531 221.765625 92.472656 225.414062 L 147.839844 278.214844 C 151.65625 281.855469 157.863281 281.855469 161.679688 278.214844 C 165.507812 274.566406 165.507812 268.65625 161.679688 265.015625 C 157.863281 261.367188 157.863281 255.460938 161.679688 251.808594 L 198.921875 216.304688 L 221.84375 269.386719 C 224.859375 276.386719 232.003906 280.949219 239.941406 280.949219 C 261.589844 280.949219 276.320312 259.988281 268.089844 240.890625 L 240.429688 176.710938 L 279.621094 139.339844 C 287.261719 132.050781 287.261719 120.234375 279.621094 112.945312 Z M 279.621094 112.945312 " fill-opacity="1" fill-rule="evenodd"/></g></svg>