<svg xmlns="http://www.w3.org/2000/svg" xmlns:xlink="http://www.w3.org/1999/xlink" width="500" zoomAndPan="magnify" viewBox="0 0 375 374.999991" height="500" preserveAspectRatio="xMidYMid meet" version="1.0"><defs><clipPath id="7122d7d16b"><path d="M 140.890625 94.277344 L 233.890625 94.277344 L 233.890625 281.027344 L 140.890625 281.027344 Z M 140.890625 94.277344 " clip-rule="nonzero"/></clipPath></defs><rect x="-37.5" width="450" fill="#ffffff" y="-37.499999" height="449.999989" fill-opacity="1"/><rect x="-37.5" width="450" fill="#ffffff" y="-37.499999" height="449.999989" fill-opacity="1"/><g clip-path="url(#7122d7d16b)"><path fill="#3fa796" d="M 201.980469 168.660156 L 172.800781 168.660156 C 164.066406 168.660156 156.386719 174.582031 153.988281 182.558594 L 141.644531 223.839844 C 139.6875 230.339844 141.597656 237.429688 146.625 242.207031 L 173.554688 275.5625 C 181.191406 282.828125 193.585938 282.855469 201.226562 275.589844 L 228.15625 242.296875 C 233.183594 237.519531 235.089844 230.542969 233.132812 224.046875 L 220.789062 182.5625 C 218.394531 174.574219 210.714844 168.664062 201.980469 168.664062 M 219.457031 134.941406 L 222.714844 116.144531 C 224.710938 104.808594 215.515625 94.289062 203.425781 94.289062 L 171.363281 94.289062 C 159.273438 94.289062 150.078125 105.015625 152.0625 116.347656 L 155.320312 134.738281 C 156.894531 143.710938 165.050781 150.070312 174.621094 150.070312 L 200.160156 150.070312 C 209.726562 150.070312 217.882812 143.917969 219.457031 134.945312 " fill-opacity="1" fill-rule="evenodd"/></g></svg>