<svg xmlns="http://www.w3.org/2000/svg" xmlns:xlink="http://www.w3.org/1999/xlink" width="500" zoomAndPan="magnify" viewBox="0 0 375 374.999991" height="500" preserveAspectRatio="xMidYMid meet" version="1.0"><defs><clipPath id="453549feda"><path d="M 83.867188 94.230469 L 290.867188 94.230469 L 290.867188 280.980469 L 83.867188 280.980469 Z M 83.867188 94.230469 " clip-rule="nonzero"/></clipPath></defs><rect x="-37.5" width="450" fill="#ffffff" y="-37.499999" height="449.999989" fill-opacity="1"/><rect x="-37.5" width="450" fill="#ffffff" y="-37.499999" height="449.999989" fill-opacity="1"/><g clip-path="url(#453549feda)"><path fill="#3fa796" d="M 104.566406 125.359375 L 104.566406 114.984375 C 104.566406 103.519531 113.828125 94.234375 125.265625 94.234375 L 249.464844 94.234375 C 260.902344 94.234375 270.167969 103.519531 270.167969 114.984375 L 270.167969 125.359375 C 270.167969 131.085938 265.53125 135.730469 259.816406 135.730469 C 254.101562 135.730469 249.464844 131.085938 249.464844 125.359375 C 249.464844 119.628906 244.828125 114.984375 239.117188 114.984375 L 135.617188 114.984375 C 129.902344 114.984375 125.265625 119.628906 125.265625 125.359375 C 125.265625 131.085938 120.628906 135.730469 114.917969 135.730469 C 109.203125 135.730469 104.566406 131.085938 104.566406 125.359375 Z M 208.066406 218.730469 C 208.066406 230.191406 198.804688 239.476562 187.367188 239.476562 C 175.929688 239.476562 166.667969 230.191406 166.667969 218.730469 C 166.667969 207.265625 175.929688 197.980469 187.367188 197.980469 C 198.804688 197.980469 208.066406 207.265625 208.066406 218.730469 Z M 270.167969 194.421875 L 253.015625 177.230469 C 269.875 177.230469 270.167969 181.214844 270.167969 194.421875 Z M 253.015625 260.226562 L 270.167969 243.035156 C 270.167969 259.917969 266.234375 260.226562 253.015625 260.226562 Z M 150.988281 260.226562 L 109.585938 218.730469 L 150.988281 177.230469 L 223.746094 177.230469 L 265.148438 218.730469 L 223.746094 260.226562 Z M 104.566406 243.035156 L 121.714844 260.226562 C 104.878906 260.226562 104.566406 256.285156 104.566406 243.035156 Z M 121.714844 177.230469 L 104.566406 194.421875 C 104.566406 177.523438 108.542969 177.230469 121.714844 177.230469 Z M 270.167969 156.480469 L 104.566406 156.480469 C 93.128906 156.480469 83.867188 165.765625 83.867188 177.230469 L 83.867188 260.226562 C 83.867188 271.691406 93.128906 280.976562 104.566406 280.976562 L 270.167969 280.976562 C 281.601562 280.976562 290.867188 271.691406 290.867188 260.226562 L 290.867188 177.230469 C 290.867188 165.765625 281.601562 156.480469 270.167969 156.480469 Z M 270.167969 156.480469 " fill-opacity="1" fill-rule="evenodd"/></g></svg>