<svg xmlns="http://www.w3.org/2000/svg" xmlns:xlink="http://www.w3.org/1999/xlink" width="500" zoomAndPan="magnify" viewBox="0 0 375 374.999991" height="500" preserveAspectRatio="xMidYMid meet" version="1.0"><defs><clipPath id="d23b6a5787"><path d="M 89.703125 94.328125 L 285.453125 94.328125 L 285.453125 280.328125 L 89.703125 280.328125 Z M 89.703125 94.328125 " clip-rule="nonzero"/></clipPath></defs><rect x="-37.5" width="450" fill="#ffffff" y="-37.499999" height="449.999989" fill-opacity="1"/><rect x="-37.5" width="450" fill="#ffffff" y="-37.499999" height="449.999989" fill-opacity="1"/><g clip-path="url(#d23b6a5787)"><path fill="#3fa796" d="M 131.230469 227.703125 L 145.070312 240.847656 L 103.554688 280.292969 L 89.703125 267.148438 Z M 207.152344 224.511719 C 174.777344 224.511719 148.429688 199.488281 148.429688 168.734375 C 148.429688 137.972656 174.777344 112.953125 207.152344 112.953125 C 239.539062 112.953125 265.878906 137.972656 265.878906 168.734375 C 265.878906 199.488281 239.539062 224.511719 207.152344 224.511719 Z M 207.152344 94.359375 C 163.914062 94.359375 128.855469 127.660156 128.855469 168.734375 C 128.855469 209.804688 163.914062 243.105469 207.152344 243.105469 C 250.40625 243.105469 285.453125 209.804688 285.453125 168.734375 C 285.453125 127.660156 250.40625 94.359375 207.152344 94.359375 Z M 207.152344 94.359375 " fill-opacity="1" fill-rule="evenodd"/></g></svg>