<svg xmlns="http://www.w3.org/2000/svg" xmlns:xlink="http://www.w3.org/1999/xlink" width="500" zoomAndPan="magnify" viewBox="0 0 375 374.999991" height="500" preserveAspectRatio="xMidYMid meet" version="1.0"><defs><clipPath id="826f1a746c"><path d="M 94.328125 94.328125 L 280.328125 94.328125 L 280.328125 280.328125 L 94.328125 280.328125 Z M 94.328125 94.328125 " clip-rule="nonzero"/></clipPath></defs><rect x="-37.5" width="450" fill="#ffffff" y="-37.499999" height="449.999989" fill-opacity="1"/><rect x="-37.5" width="450" fill="#ffffff" y="-37.499999" height="449.999989" fill-opacity="1"/><rect x="-37.5" width="450" fill="#ffffff" y="-37.499999" height="449.999989" fill-opacity="1"/><g clip-path="url(#826f1a746c)"><path fill="#3fa796" d="M 225.300781 150.128906 C 225.300781 129.609375 208.269531 112.925781 187.328125 112.925781 C 166.382812 112.925781 149.355469 129.609375 149.355469 150.128906 C 149.355469 170.644531 166.382812 187.328125 187.328125 187.328125 C 208.269531 187.328125 225.300781 170.644531 225.300781 150.128906 M 261.222656 280.328125 L 244.285156 280.328125 C 239.046875 280.328125 234.792969 276.160156 234.792969 271.027344 C 234.792969 265.894531 239.046875 261.726562 244.285156 261.726562 L 248.359375 261.726562 C 254.929688 261.726562 259.78125 255.246094 257.292969 249.285156 C 245.796875 221.71875 218.796875 205.925781 187.328125 205.925781 C 155.855469 205.925781 128.859375 221.71875 117.363281 249.285156 C 114.875 255.246094 119.726562 261.726562 126.292969 261.726562 L 130.367188 261.726562 C 135.609375 261.726562 139.859375 265.894531 139.859375 271.027344 C 139.859375 276.160156 135.609375 280.328125 130.367188 280.328125 L 113.429688 280.328125 C 101.566406 280.328125 92.222656 269.699219 94.738281 258.34375 C 101.648438 227.105469 123.226562 204.046875 151.652344 193.585938 C 138.683594 183.367188 130.367188 167.703125 130.367188 150.128906 C 130.367188 117.101562 159.644531 90.785156 194.152344 94.71875 C 219.15625 97.5625 239.871094 117.085938 243.621094 141.476562 C 246.847656 162.503906 238.066406 181.710938 223 193.585938 C 251.425781 204.046875 273.003906 227.105469 279.914062 258.34375 C 282.429688 269.695312 273.089844 280.328125 261.222656 280.328125 M 215.804688 271.027344 C 215.804688 276.160156 211.554688 280.328125 206.3125 280.328125 L 168.339844 280.328125 C 163.097656 280.328125 158.847656 276.160156 158.847656 271.027344 C 158.847656 265.894531 163.097656 261.726562 168.339844 261.726562 L 206.3125 261.726562 C 211.554688 261.726562 215.804688 265.894531 215.804688 271.027344 " fill-opacity="1" fill-rule="evenodd"/></g></svg>