<svg xmlns="http://www.w3.org/2000/svg" xmlns:xlink="http://www.w3.org/1999/xlink" width="500" zoomAndPan="magnify" viewBox="0 0 375 374.999991" height="500" preserveAspectRatio="xMidYMid meet" version="1.0"><defs><clipPath id="eb2ff95f8a"><path d="M 77.257812 77.257812 L 297.757812 77.257812 L 297.757812 297.757812 L 77.257812 297.757812 Z M 77.257812 77.257812 " clip-rule="nonzero"/></clipPath></defs><rect x="-37.5" width="450" fill="#ffffff" y="-37.499999" height="449.999989" fill-opacity="1"/><rect x="-37.5" width="450" fill="#ffffff" y="-37.499999" height="449.999989" fill-opacity="1"/><g clip-path="url(#eb2ff95f8a)"><path fill="#3fa796" d="M 187.523438 184.597656 C 187.523438 172.234375 177.5625 162.175781 165.316406 162.175781 C 153.070312 162.175781 143.109375 172.234375 143.109375 184.597656 C 143.109375 196.796875 152.824219 206.71875 164.851562 206.972656 C 165.003906 206.972656 165.160156 206.953125 165.316406 206.953125 C 165.472656 206.953125 165.628906 206.972656 165.78125 206.972656 C 177.808594 206.714844 187.523438 196.792969 187.523438 184.597656 M 253.269531 285.070312 C 254.203125 291.773438 248.882812 297.761719 242.175781 297.761719 C 236.679688 297.761719 232.039062 293.691406 231.273438 288.207031 C 226.699219 255.605469 199.105469 229.632812 165.78125 229.398438 C 165.628906 229.398438 165.484375 229.445312 165.316406 229.445312 C 165.148438 229.445312 165.003906 229.398438 164.851562 229.398438 C 131.527344 229.632812 103.933594 255.597656 99.359375 288.195312 C 98.59375 293.691406 93.953125 297.761719 88.457031 297.761719 C 81.75 297.761719 76.429688 291.761719 77.363281 285.058594 C 81.835938 252.882812 103.035156 225.441406 131.714844 213.625 C 125.066406 205.789062 120.902344 195.734375 120.902344 184.601562 C 120.902344 156.429688 146.628906 134.332031 175.652344 140.9375 C 190.832031 144.390625 203.378906 156.28125 207.789062 171.339844 C 212.5625 187.671875 208.121094 202.773438 198.917969 213.625 C 227.597656 225.460938 248.792969 252.882812 253.269531 285.070312 M 281.152344 134.207031 C 253.292969 160.027344 249.226562 156.976562 224.167969 133.457031 C 185.390625 97.066406 227.441406 57.605469 251.347656 88.234375 C 252.203125 89.34375 253.925781 89.308594 254.789062 88.210938 C 278.375 57.796875 321.601562 96.765625 281.152344 134.207031 " fill-opacity="1" fill-rule="evenodd"/></g></svg>