<svg xmlns="http://www.w3.org/2000/svg" xmlns:xlink="http://www.w3.org/1999/xlink" width="500" zoomAndPan="magnify" viewBox="0 0 375 374.999991" height="500" preserveAspectRatio="xMidYMid meet" version="1.0"><defs><clipPath id="2baeed66c3"><path d="M 95.0625 95.0625 L 280.3125 95.0625 L 280.3125 280.3125 L 95.0625 280.3125 Z M 95.0625 95.0625 " clip-rule="nonzero"/></clipPath></defs><rect x="-37.5" width="450" fill="#ffffff" y="-37.499999" height="449.999989" fill-opacity="1"/><rect x="-37.5" width="450" fill="#ffffff" y="-37.499999" height="449.999989" fill-opacity="1"/><g clip-path="url(#2baeed66c3)"><path fill="#3fa796" d="M 251.34375 187.128906 C 251.34375 197.363281 243.054688 205.65625 232.820312 205.65625 C 222.585938 205.65625 214.292969 197.363281 214.292969 187.128906 C 214.292969 176.894531 222.585938 168.605469 232.820312 168.605469 C 243.054688 168.605469 251.34375 176.894531 251.34375 187.128906 M 205.03125 187.128906 C 205.03125 197.363281 196.742188 205.65625 186.507812 205.65625 C 176.273438 205.65625 167.980469 197.363281 167.980469 187.128906 C 167.980469 176.894531 176.273438 168.605469 186.507812 168.605469 C 196.742188 168.605469 205.03125 176.894531 205.03125 187.128906 M 158.71875 187.128906 C 158.71875 197.363281 150.429688 205.65625 140.195312 205.65625 C 129.960938 205.65625 121.667969 197.363281 121.667969 187.128906 C 121.667969 176.894531 129.960938 168.605469 140.195312 168.605469 C 150.429688 168.605469 158.71875 176.894531 158.71875 187.128906 M 256.613281 261.785156 C 256.613281 261.785156 232.382812 254.902344 215.648438 254.902344 C 201.992188 254.902344 198.882812 257.320312 187.292969 257.320312 C 149.503906 257.320312 118.972656 229.441406 114.285156 195.570312 C 108.0625 150.609375 143.863281 113.578125 187.292969 113.585938 C 223.816406 113.585938 252.546875 138.621094 259.308594 169.929688 C 261.792969 181.367188 261.542969 192.726562 258.585938 203.671875 C 255.066406 216.6875 255.226562 231.320312 259.042969 245.984375 C 260.996094 253.476562 264.589844 261.785156 256.613281 261.785156 M 279.546875 251.21875 C 279.546875 251.21875 276.984375 241.351562 276.972656 241.316406 C 274.167969 230.570312 273.566406 219.226562 276.464844 208.507812 C 280.039062 195.300781 280.640625 180.90625 277.417969 166.011719 C 268.898438 126.601562 232.71875 95.0625 187.292969 95.0625 C 132.109375 95.050781 88.25 142.550781 95.9375 198.105469 C 101.882812 241.09375 140.175781 275.847656 187.292969 275.847656 C 200.902344 275.847656 203.640625 273.429688 215.65625 273.429688 C 230.140625 273.429688 250.632812 279.5625 250.632812 279.5625 C 268.117188 283.941406 284.011719 268.363281 279.546875 251.21875 " fill-opacity="1" fill-rule="evenodd"/></g></svg>