<svg xmlns="http://www.w3.org/2000/svg" xmlns:xlink="http://www.w3.org/1999/xlink" width="500" zoomAndPan="magnify" viewBox="0 0 375 374.999991" height="500" preserveAspectRatio="xMidYMid meet" version="1.0"><defs><clipPath id="f627be05db"><path d="M 82.894531 103.816406 L 292.144531 103.816406 L 292.144531 271.066406 L 82.894531 271.066406 Z M 82.894531 103.816406 " clip-rule="nonzero"/></clipPath></defs><rect x="-37.5" width="450" fill="#ffffff" y="-37.499999" height="449.999989" fill-opacity="1"/><rect x="-37.5" width="450" fill="#ffffff" y="-37.499999" height="449.999989" fill-opacity="1"/><rect x="-37.5" width="450" fill="#ffffff" y="-37.499999" height="449.999989" fill-opacity="1"/><g clip-path="url(#f627be05db)"><path fill="#3fa796" d="M 166.382812 250.15625 C 166.382812 260.609375 175.839844 271.0625 187.519531 271.0625 C 199.199219 271.0625 208.65625 260.609375 208.65625 250.15625 C 208.65625 218.796875 166.382812 218.796875 166.382812 250.15625 M 142.675781 205.804688 L 157.628906 220.597656 C 174.105469 204.289062 200.933594 204.289062 217.410156 220.597656 L 232.363281 205.804688 C 207.589844 181.316406 167.449219 181.316406 142.675781 205.804688 M 82.894531 146.675781 L 97.839844 161.464844 C 147.292969 112.558594 227.746094 112.558594 277.199219 161.464844 L 292.144531 146.675781 C 234.363281 89.527344 140.675781 89.527344 82.894531 146.675781 M 262.253906 176.246094 L 247.308594 191.023438 C 214.34375 158.421875 160.695312 158.421875 127.730469 191.023438 L 112.785156 176.246094 C 154.058594 135.425781 220.980469 135.425781 262.253906 176.246094 " fill-opacity="1" fill-rule="evenodd"/></g></svg>