<svg xmlns="http://www.w3.org/2000/svg" xmlns:xlink="http://www.w3.org/1999/xlink" width="500" zoomAndPan="magnify" viewBox="0 0 375 374.999991" height="500" preserveAspectRatio="xMidYMid meet" version="1.0"><defs><clipPath id="86744cfad2"><path d="M 82.441406 82.441406 L 292.441406 82.441406 L 292.441406 292.441406 L 82.441406 292.441406 Z M 82.441406 82.441406 " clip-rule="nonzero"/></clipPath></defs><rect x="-37.5" width="450" fill="#ffffff" y="-37.499999" height="449.999989" fill-opacity="1"/><rect x="-37.5" width="450" fill="#ffffff" y="-37.499999" height="449.999989" fill-opacity="1"/><g clip-path="url(#86744cfad2)"><path fill="#3fa796" d="M 144.074219 83.726562 C 126.980469 84.496094 112.167969 88.679688 100.203125 100.589844 C 88.199219 112.566406 84.074219 127.433594 83.300781 144.351562 C 82.820312 154.910156 80.007812 234.667969 88.15625 255.585938 C 93.652344 269.695312 104.476562 280.550781 118.71875 286.0625 C 125.363281 288.644531 132.949219 290.398438 144.074219 290.90625 C 237.113281 295.117188 271.601562 292.824219 286.144531 255.585938 C 288.726562 248.957031 290.5 241.378906 290.992188 230.28125 C 295.246094 137.007812 290.304688 116.785156 274.089844 100.589844 C 261.226562 87.761719 246.097656 79.027344 144.074219 83.726562 M 144.929688 272.148438 C 134.746094 271.691406 129.21875 269.988281 125.53125 268.5625 C 116.25 264.960938 109.28125 258.019531 105.699219 248.792969 C 99.492188 232.902344 101.550781 157.410156 102.105469 145.199219 C 102.648438 133.234375 105.074219 122.300781 113.515625 113.859375 C 123.960938 103.433594 137.460938 98.328125 229.371094 102.476562 C 241.367188 103.019531 252.324219 105.433594 260.789062 113.859375 C 271.234375 124.28125 276.417969 137.882812 272.195312 229.441406 C 271.738281 239.601562 270.035156 245.113281 268.601562 248.792969 C 259.148438 273.023438 237.394531 276.394531 144.929688 272.148438 M 230.382812 131.679688 C 230.382812 138.582031 235.996094 144.183594 242.921875 144.183594 C 249.847656 144.183594 255.46875 138.574219 255.46875 131.679688 C 255.46875 124.777344 249.847656 119.175781 242.921875 119.175781 C 235.996094 119.175781 230.382812 124.785156 230.382812 131.679688 M 133.5 187.3125 C 133.5 216.867188 157.519531 240.828125 187.152344 240.828125 C 216.78125 240.828125 240.800781 216.867188 240.800781 187.3125 C 240.800781 157.753906 216.78125 133.808594 187.152344 133.808594 C 157.519531 133.808594 133.5 157.753906 133.5 187.3125 M 152.328125 187.3125 C 152.328125 168.136719 167.917969 152.578125 187.152344 152.578125 C 206.386719 152.578125 221.972656 168.136719 221.972656 187.3125 C 221.972656 206.496094 206.386719 222.058594 187.152344 222.058594 C 167.917969 222.058594 152.328125 206.496094 152.328125 187.3125 " fill-opacity="1" fill-rule="evenodd"/></g></svg>