<svg xmlns="http://www.w3.org/2000/svg" xmlns:xlink="http://www.w3.org/1999/xlink" width="500" zoomAndPan="magnify" viewBox="0 0 375 374.999991" height="500" preserveAspectRatio="xMidYMid meet" version="1.0"><defs><clipPath id="9343cf190f"><path d="M 115.941406 85.273438 L 259.191406 85.273438 L 259.191406 290.023438 L 115.941406 290.023438 Z M 115.941406 85.273438 " clip-rule="nonzero"/></clipPath></defs><rect x="-37.5" width="450" fill="#ffffff" y="-37.499999" height="449.999989" fill-opacity="1"/><rect x="-37.5" width="450" fill="#ffffff" y="-37.499999" height="449.999989" fill-opacity="1"/><g clip-path="url(#9343cf190f)"><path fill="#3fa796" d="M 218.261719 163.4375 C 218.261719 146.472656 204.519531 132.726562 187.566406 132.726562 C 170.613281 132.726562 156.871094 146.472656 156.871094 163.4375 C 156.871094 180.402344 170.613281 194.152344 187.566406 194.152344 C 204.519531 194.152344 218.261719 180.402344 218.261719 163.4375 M 259.191406 156.941406 C 259.191406 196.519531 227.125 290.023438 187.566406 290.023438 C 148.007812 290.023438 115.941406 196.519531 115.941406 156.941406 C 115.941406 117.359375 148.007812 85.277344 187.566406 85.277344 C 227.125 85.277344 259.191406 117.359375 259.191406 156.941406 M 197.796875 163.4375 C 197.796875 169.078125 193.203125 173.675781 187.566406 173.675781 C 181.929688 173.675781 177.335938 169.078125 177.335938 163.4375 C 177.335938 157.800781 181.929688 153.203125 187.566406 153.203125 C 193.203125 153.203125 197.796875 157.800781 197.796875 163.4375 " fill-opacity="1" fill-rule="evenodd"/></g></svg>