<svg xmlns="http://www.w3.org/2000/svg" xmlns:xlink="http://www.w3.org/1999/xlink" width="500" zoomAndPan="magnify" viewBox="0 0 375 374.999991" height="500" preserveAspectRatio="xMidYMid meet" version="1.0"><defs><clipPath id="ecc21b0f76"><path d="M 115.941406 85.273438 L 259.191406 85.273438 L 259.191406 290.023438 L 115.941406 290.023438 Z M 115.941406 85.273438 " clip-rule="nonzero"/></clipPath></defs><rect x="-37.5" width="450" fill="#ffffff" y="-37.499999" height="449.999989" fill-opacity="1"/><rect x="-37.5" width="450" fill="#ffffff" y="-37.499999" height="449.999989" fill-opacity="1"/><g clip-path="url(#ecc21b0f76)"><path fill="#3fa796" d="M 187.566406 179.660156 C 176.261719 179.660156 167.101562 170.496094 167.101562 159.183594 C 167.101562 147.871094 176.261719 138.710938 187.566406 138.710938 C 198.875 138.710938 208.03125 147.871094 208.03125 159.183594 C 208.03125 170.496094 198.875 179.660156 187.566406 179.660156 M 187.566406 85.277344 C 148.007812 85.277344 115.941406 117.359375 115.941406 156.941406 C 115.941406 196.519531 148.007812 290.023438 187.566406 290.023438 C 227.125 290.023438 259.191406 196.519531 259.191406 156.941406 C 259.191406 117.359375 227.125 85.277344 187.566406 85.277344 " fill-opacity="1" fill-rule="evenodd"/></g></svg>