<svg xmlns="http://www.w3.org/2000/svg" xmlns:xlink="http://www.w3.org/1999/xlink" width="500" zoomAndPan="magnify" viewBox="0 0 375 374.999991" height="500" preserveAspectRatio="xMidYMid meet" version="1.0"><defs><clipPath id="941fb79dbd"><path d="M 115.941406 85.273438 L 259.191406 85.273438 L 259.191406 290.023438 L 115.941406 290.023438 Z M 115.941406 85.273438 " clip-rule="nonzero"/></clipPath></defs><rect x="-37.5" width="450" fill="#ffffff" y="-37.499999" height="449.999989" fill-opacity="1"/><rect x="-37.5" width="450" fill="#ffffff" y="-37.499999" height="449.999989" fill-opacity="1"/><g clip-path="url(#941fb79dbd)"><path fill="#3fa796" d="M 187.566406 269.554688 C 168.921875 269.554688 136.40625 197.980469 136.40625 156.941406 C 136.40625 128.71875 159.355469 105.757812 187.566406 105.757812 C 215.777344 105.757812 238.726562 128.71875 238.726562 156.941406 C 238.726562 197.980469 206.210938 269.554688 187.566406 269.554688 M 187.566406 85.28125 C 148.007812 85.28125 115.941406 117.363281 115.941406 156.941406 C 115.941406 196.523438 148.007812 290.027344 187.566406 290.027344 C 227.125 290.027344 259.191406 196.523438 259.191406 156.941406 C 259.191406 117.363281 227.125 85.28125 187.566406 85.28125 M 187.566406 173.679688 C 181.929688 173.679688 177.335938 169.089844 177.335938 163.441406 C 177.335938 157.804688 181.929688 153.203125 187.566406 153.203125 C 193.203125 153.203125 197.796875 157.804688 197.796875 163.441406 C 197.796875 169.089844 193.203125 173.679688 187.566406 173.679688 M 187.566406 132.730469 C 170.613281 132.730469 156.871094 146.492188 156.871094 163.441406 C 156.871094 180.40625 170.613281 194.152344 187.566406 194.152344 C 204.519531 194.152344 218.261719 180.40625 218.261719 163.441406 C 218.261719 146.492188 204.519531 132.730469 187.566406 132.730469 " fill-opacity="1" fill-rule="evenodd"/></g></svg>