<svg xmlns="http://www.w3.org/2000/svg" xmlns:xlink="http://www.w3.org/1999/xlink" width="500" zoomAndPan="magnify" viewBox="0 0 375 374.999991" height="500" preserveAspectRatio="xMidYMid meet" version="1.0"><defs><clipPath id="7ebaa7a852"><path d="M 115.941406 85.273438 L 259.191406 85.273438 L 259.191406 290.023438 L 115.941406 290.023438 Z M 115.941406 85.273438 " clip-rule="nonzero"/></clipPath></defs><rect x="-37.5" width="450" fill="#ffffff" y="-37.499999" height="449.999989" fill-opacity="1"/><rect x="-37.5" width="450" fill="#ffffff" y="-37.499999" height="449.999989" fill-opacity="1"/><rect x="-37.5" width="450" fill="#ffffff" y="-37.499999" height="449.999989" fill-opacity="1"/><g clip-path="url(#7ebaa7a852)"><path fill="#3fa796" d="M 208.03125 159.1875 C 208.03125 170.5 198.875 179.660156 187.566406 179.660156 C 176.261719 179.660156 167.101562 170.5 167.101562 159.1875 C 167.101562 147.875 176.261719 138.710938 187.566406 138.710938 C 198.875 138.710938 208.03125 147.875 208.03125 159.1875 M 187.566406 269.554688 C 168.921875 269.554688 136.40625 197.992188 136.40625 156.941406 C 136.40625 128.71875 159.355469 105.757812 187.566406 105.757812 C 215.777344 105.757812 238.726562 128.71875 238.726562 156.941406 C 238.726562 197.992188 206.210938 269.554688 187.566406 269.554688 M 187.566406 85.28125 C 148.007812 85.28125 115.941406 117.363281 115.941406 156.941406 C 115.941406 196.523438 148.007812 290.027344 187.566406 290.027344 C 227.125 290.027344 259.191406 196.523438 259.191406 156.941406 C 259.191406 117.363281 227.125 85.28125 187.566406 85.28125 " fill-opacity="1" fill-rule="evenodd"/></g></svg>