<svg xmlns="http://www.w3.org/2000/svg" xmlns:xlink="http://www.w3.org/1999/xlink" width="500" zoomAndPan="magnify" viewBox="0 0 375 374.999991" height="500" preserveAspectRatio="xMidYMid meet" version="1.0"><defs><clipPath id="72e63999aa"><path d="M 80.203125 85.273438 L 294.703125 85.273438 L 294.703125 290 L 80.203125 290 Z M 80.203125 85.273438 " clip-rule="nonzero"/></clipPath></defs><rect x="-37.5" width="450" fill="#ffffff" y="-37.499999" height="449.999989" fill-opacity="1"/><rect x="-37.5" width="450" fill="#ffffff" y="-37.499999" height="449.999989" fill-opacity="1"/><g clip-path="url(#72e63999aa)"><path fill="#3fa796" d="M 80.203125 187.863281 L 80.203125 269.738281 C 80.203125 281.046875 89.800781 289.988281 101.652344 289.988281 L 123.101562 289.988281 L 123.101562 167.183594 L 101.652344 167.183594 C 89.800781 167.183594 80.203125 176.554688 80.203125 187.863281 M 293.941406 201.515625 L 275.300781 268.394531 C 272.234375 281.097656 260.382812 289.988281 246.71875 289.988281 L 144.550781 289.988281 L 144.550781 167.394531 L 162.988281 103.996094 C 165.164062 90.519531 179.835938 81.472656 194.703125 86.917969 C 203.59375 90.179688 208.902344 99.011719 208.902344 108.109375 L 208.902344 157.164062 C 208.902344 162.8125 213.707031 167.179688 219.625 167.179688 L 265.359375 167.179688 C 284.222656 167.179688 298.175781 183.984375 293.941406 201.515625 " fill-opacity="1" fill-rule="evenodd"/></g></svg>