<svg xmlns="http://www.w3.org/2000/svg" xmlns:xlink="http://www.w3.org/1999/xlink" width="500" zoomAndPan="magnify" viewBox="0 0 375 374.999991" height="500" preserveAspectRatio="xMidYMid meet" version="1.0"><defs><clipPath id="bb02f5cddf"><path d="M 82.441406 103.453125 L 292.441406 103.453125 L 292.441406 271.453125 L 82.441406 271.453125 Z M 82.441406 103.453125 " clip-rule="nonzero"/></clipPath></defs><rect x="-37.5" width="450" fill="#ffffff" y="-37.499999" height="449.999989" fill-opacity="1"/><rect x="-37.5" width="450" fill="#ffffff" y="-37.499999" height="449.999989" fill-opacity="1"/><g clip-path="url(#bb02f5cddf)"><path fill="#3fa796" d="M 148.488281 271.453125 C 227.730469 271.453125 271.074219 206.8125 271.074219 150.761719 C 271.074219 148.921875 271.074219 147.089844 270.949219 145.269531 C 279.378906 139.277344 286.65625 131.832031 292.441406 123.3125 C 284.589844 126.742188 276.242188 128.996094 267.703125 129.992188 C 276.691406 124.691406 283.421875 116.355469 286.644531 106.527344 C 278.183594 111.46875 268.933594 114.949219 259.285156 116.820312 C 242.964844 99.742188 215.675781 98.917969 198.320312 114.980469 C 187.140625 125.335938 182.382812 140.785156 185.859375 155.511719 C 151.21875 153.796875 118.941406 137.691406 97.0625 111.195312 C 85.625 130.582031 91.476562 155.371094 110.40625 167.816406 C 103.550781 167.621094 96.839844 165.804688 90.84375 162.515625 L 90.84375 163.054688 C 90.855469 183.246094 105.3125 200.628906 125.410156 204.632812 C 119.066406 206.339844 112.410156 206.589844 105.964844 205.359375 C 111.601562 222.640625 127.78125 234.480469 146.210938 234.820312 C 130.953125 246.628906 112.105469 253.039062 92.703125 253.015625 C 89.28125 253.007812 85.855469 252.8125 82.445312 252.40625 C 102.152344 264.855469 125.074219 271.460938 148.488281 271.429688 " fill-opacity="1" fill-rule="evenodd"/></g></svg>