<svg xmlns="http://www.w3.org/2000/svg" xmlns:xlink="http://www.w3.org/1999/xlink" width="500" zoomAndPan="magnify" viewBox="0 0 375 374.999991" height="500" preserveAspectRatio="xMidYMid meet" version="1.0"><defs><clipPath id="8a2c692b14"><path d="M 51.03125 85.273438 L 324 85.273438 L 324 286 L 51.03125 286 Z M 51.03125 85.273438 " clip-rule="nonzero"/></clipPath></defs><rect x="-37.5" width="450" fill="#ffffff" y="-37.499999" height="449.999989" fill-opacity="1"/><rect x="-37.5" width="450" fill="#ffffff" y="-37.499999" height="449.999989" fill-opacity="1"/><rect x="-37.5" width="450" fill="#ffffff" y="-37.499999" height="449.999989" fill-opacity="1"/><g clip-path="url(#8a2c692b14)"><path fill="#3fa796" d="M 312.503906 121.535156 C 318.773438 121.535156 323.863281 126.628906 323.863281 132.910156 L 323.863281 246.660156 C 323.863281 252.9375 318.773438 258.035156 312.503906 258.035156 C 306.234375 258.035156 301.144531 252.9375 301.144531 246.660156 L 301.144531 132.910156 C 301.144531 126.628906 306.234375 121.535156 312.503906 121.535156 Z M 255.699219 223.910156 L 255.699219 155.660156 C 255.699219 149.378906 260.789062 144.285156 267.058594 144.285156 C 273.332031 144.285156 278.421875 149.378906 278.421875 155.660156 L 278.421875 223.910156 C 278.421875 230.1875 273.332031 235.285156 267.058594 235.285156 C 260.789062 235.285156 255.699219 230.1875 255.699219 223.910156 Z M 96.644531 212.535156 L 85.285156 212.535156 C 79.011719 212.535156 73.921875 207.4375 73.921875 201.160156 L 73.921875 178.410156 C 73.921875 172.128906 79.011719 167.035156 85.285156 167.035156 L 96.644531 167.035156 Z M 119.367188 152.65625 C 149.667969 137.484375 173.535156 125.539062 201.972656 111.296875 C 205.753906 109.410156 210.253906 112.128906 210.253906 116.359375 L 210.253906 251.835938 C 210.253906 256.066406 205.753906 258.785156 201.972656 256.898438 C 173.546875 242.65625 149.667969 230.703125 119.367188 215.539062 Z M 51.199219 167.035156 L 51.199219 212.535156 C 51.199219 225.101562 61.367188 235.285156 73.921875 235.285156 L 92.863281 235.285156 L 200.996094 283.570312 C 216.027344 290.285156 232.976562 279.273438 232.976562 262.789062 L 232.976562 108.058594 C 232.976562 90.925781 214.789062 79.949219 199.667969 87.933594 L 92.863281 144.285156 L 73.921875 144.285156 C 61.367188 144.285156 51.199219 154.46875 51.199219 167.035156 Z M 51.199219 167.035156 " fill-opacity="1" fill-rule="evenodd"/></g></svg>