<svg xmlns="http://www.w3.org/2000/svg" xmlns:xlink="http://www.w3.org/1999/xlink" width="500" zoomAndPan="magnify" viewBox="0 0 375 374.999991" height="500" preserveAspectRatio="xMidYMid meet" version="1.0"><defs><clipPath id="1486d48413"><path d="M 62.65625 104.195312 L 312.40625 104.195312 L 312.40625 270.695312 L 62.65625 270.695312 Z M 62.65625 104.195312 " clip-rule="nonzero"/></clipPath></defs><rect x="-37.5" width="450" fill="#ffffff" y="-37.499999" height="449.999989" fill-opacity="1"/><rect x="-37.5" width="450" fill="#ffffff" y="-37.499999" height="449.999989" fill-opacity="1"/><g clip-path="url(#1486d48413)"><path fill="#3fa796" d="M 305.828125 201.867188 L 212.648438 266.972656 C 199.414062 275.890625 187.53125 267.410156 187.53125 252.558594 L 187.53125 211.160156 L 99.699219 266.972656 C 86.484375 275.890625 62.65625 267.410156 62.65625 252.558594 L 62.65625 122.332031 C 62.65625 107.480469 86.484375 99 99.699219 107.898438 L 187.53125 163.730469 L 187.53125 122.332031 C 187.53125 107.480469 199.414062 99 212.648438 107.898438 L 302.332031 173.023438 C 313.027344 180.242188 316.523438 194.652344 305.828125 201.867188 " fill-opacity="1" fill-rule="evenodd"/></g></svg>