<svg xmlns="http://www.w3.org/2000/svg" xmlns:xlink="http://www.w3.org/1999/xlink" width="500" zoomAndPan="magnify" viewBox="0 0 375 374.999991" height="500" preserveAspectRatio="xMidYMid meet" version="1.0"><defs><clipPath id="1a1a0826b7"><path d="M 68.492188 104.195312 L 306.242188 104.195312 L 306.242188 270.695312 L 68.492188 270.695312 Z M 68.492188 104.195312 " clip-rule="nonzero"/></clipPath></defs><rect x="-37.5" width="450" fill="#ffffff" y="-37.499999" height="449.999989" fill-opacity="1"/><rect x="-37.5" width="450" fill="#ffffff" y="-37.499999" height="449.999989" fill-opacity="1"/><rect x="-37.5" width="450" fill="#ffffff" y="-37.499999" height="449.999989" fill-opacity="1"/><g clip-path="url(#1a1a0826b7)"><path fill="#3fa796" d="M 190.835938 188.253906 C 190.835938 207.960938 174.871094 223.933594 155.175781 223.933594 C 135.476562 223.933594 119.511719 207.960938 119.511719 188.253906 C 119.511719 168.546875 135.476562 152.574219 155.175781 152.574219 C 174.871094 152.574219 190.835938 168.546875 190.835938 188.253906 Z M 224.40625 246.910156 L 153.082031 246.910156 C 120.308594 246.910156 93.644531 220.234375 93.644531 187.445312 C 93.644531 154.65625 120.308594 127.980469 153.082031 127.980469 L 224.40625 127.980469 C 257.183594 127.980469 283.84375 154.65625 283.84375 187.445312 C 283.84375 220.234375 257.183594 246.910156 224.40625 246.910156 Z M 306.242188 187.445312 C 306.242188 141.464844 268.984375 104.195312 223.027344 104.195312 L 151.703125 104.195312 C 105.746094 104.195312 68.492188 141.464844 68.492188 187.445312 C 68.492188 233.421875 105.746094 270.695312 151.703125 270.695312 L 223.027344 270.695312 C 268.984375 270.695312 306.242188 233.421875 306.242188 187.445312 Z M 306.242188 187.445312 " fill-opacity="1" fill-rule="evenodd"/></g></svg>