<svg xmlns="http://www.w3.org/2000/svg" xmlns:xlink="http://www.w3.org/1999/xlink" width="500" zoomAndPan="magnify" viewBox="0 0 375 374.999991" height="500" preserveAspectRatio="xMidYMid meet" version="1.0"><defs><clipPath id="e2818dbe9a"><path d="M 82.441406 113.960938 L 292.441406 113.960938 L 292.441406 260.960938 L 82.441406 260.960938 Z M 82.441406 113.960938 " clip-rule="nonzero"/></clipPath></defs><rect x="-37.5" width="450" fill="#ffffff" y="-37.499999" height="449.999989" fill-opacity="1"/><rect x="-37.5" width="450" fill="#ffffff" y="-37.499999" height="449.999989" fill-opacity="1"/><g clip-path="url(#e2818dbe9a)"><path fill="#3fa796" d="M 166.324219 214.613281 L 166.324219 155.691406 C 187.238281 165.535156 203.441406 175.039062 222.601562 185.292969 C 206.796875 194.054688 187.238281 203.890625 166.320312 214.613281 M 282.894531 126.382812 C 279.289062 121.632812 273.136719 117.933594 266.589844 116.710938 C 247.347656 113.054688 127.289062 113.042969 108.054688 116.710938 C 102.804688 117.695312 98.128906 120.074219 94.113281 123.769531 C 77.191406 139.480469 82.496094 223.707031 86.574219 237.351562 C 88.289062 243.257812 90.507812 247.519531 93.296875 250.316406 C 96.894531 254.015625 101.824219 256.558594 107.480469 257.703125 C 123.324219 260.976562 204.957031 262.8125 266.257812 258.191406 C 271.90625 257.207031 276.902344 254.578125 280.847656 250.726562 C 296.492188 235.085938 295.425781 146.117188 282.894531 126.390625 " fill-opacity="1" fill-rule="evenodd"/></g></svg>