<svg xmlns="http://www.w3.org/2000/svg" xmlns:xlink="http://www.w3.org/1999/xlink" width="500" zoomAndPan="magnify" viewBox="0 0 375 374.999991" height="500" preserveAspectRatio="xMidYMid meet" version="1.0"><defs><clipPath id="5de4b7b98a"><path d="M 85.273438 90.105469 L 290.023438 90.105469 L 290.023438 285.105469 L 85.273438 285.105469 Z M 85.273438 90.105469 " clip-rule="nonzero"/></clipPath></defs><rect x="-37.5" width="450" fill="#ffffff" y="-37.499999" height="449.999989" fill-opacity="1"/><rect x="-37.5" width="450" fill="#ffffff" y="-37.499999" height="449.999989" fill-opacity="1"/><g clip-path="url(#5de4b7b98a)"><path fill="#3fa796" d="M 118.425781 177.359375 C 100.09375 159.910156 102.382812 130.167969 125.269531 115.785156 C 141.921875 105.320312 164.285156 108.464844 178.394531 121.894531 L 184.9375 128.121094 C 189.027344 132.011719 195.640625 132.011719 199.71875 128.121094 C 203.804688 124.242188 203.804688 117.945312 199.71875 114.054688 L 194.1875 108.792969 C 169.910156 85.683594 130.027344 83.335938 105.027344 105.738281 C 79.15625 128.925781 78.699219 167.691406 103.644531 191.425781 L 111.035156 198.457031 C 115.113281 202.347656 121.738281 202.347656 125.8125 198.457031 C 129.902344 194.578125 129.902344 188.28125 125.8125 184.390625 Z M 270.296875 181.230469 L 264.96875 176.15625 C 260.882812 172.265625 254.265625 172.265625 250.1875 176.15625 C 246.101562 180.035156 246.101562 186.332031 250.1875 190.222656 L 256.730469 196.449219 C 270.839844 209.875 274.132812 231.164062 263.148438 247.007812 C 248.035156 268.792969 216.773438 270.960938 198.453125 253.523438 L 191.0625 246.492188 C 186.976562 242.601562 180.363281 242.601562 176.285156 246.492188 C 172.199219 250.371094 172.199219 256.667969 176.285156 260.558594 L 183.675781 267.589844 C 208.550781 291.265625 249.132812 290.898438 273.507812 266.464844 C 297.261719 242.664062 294.691406 204.445312 270.296875 181.230469 Z M 228.011719 239.460938 L 133.203125 149.226562 C 129.128906 145.339844 129.128906 139.042969 133.203125 135.152344 C 137.289062 131.273438 143.90625 131.273438 147.980469 135.152344 L 242.800781 225.382812 C 246.875 229.273438 246.875 235.570312 242.800781 239.460938 C 238.714844 243.339844 232.097656 243.339844 228.011719 239.460938 Z M 228.011719 239.460938 " fill-opacity="1" fill-rule="evenodd"/></g></svg>