<svg xmlns="http://www.w3.org/2000/svg" xmlns:xlink="http://www.w3.org/1999/xlink" width="500" zoomAndPan="magnify" viewBox="0 0 375 374.999991" height="500" preserveAspectRatio="xMidYMid meet" version="1.0"><defs><clipPath id="42087be203"><path d="M 98.808594 94.230469 L 276.558594 94.230469 L 276.558594 280.980469 L 98.808594 280.980469 Z M 98.808594 94.230469 " clip-rule="nonzero"/></clipPath></defs><rect x="-37.5" width="450" fill="#ffffff" y="-37.499999" height="449.999989" fill-opacity="1"/><rect x="-37.5" width="450" fill="#ffffff" y="-37.499999" height="449.999989" fill-opacity="1"/><rect x="-37.5" width="450" fill="#ffffff" y="-37.499999" height="449.999989" fill-opacity="1"/><g clip-path="url(#42087be203)"><path fill="#3fa796" d="M 148.214844 131.582031 C 153.660156 131.582031 158.078125 127.398438 158.078125 122.242188 L 158.078125 103.570312 C 158.078125 98.414062 153.660156 94.230469 148.214844 94.230469 C 142.773438 94.230469 138.355469 98.414062 138.355469 103.570312 L 138.355469 122.242188 C 138.355469 127.398438 142.773438 131.582031 148.214844 131.582031 M 185.785156 229.289062 L 167.890625 245.003906 C 164.78125 247.945312 158.078125 245.863281 158.078125 241.699219 L 158.078125 193.742188 C 158.078125 188.578125 153.660156 184.402344 148.214844 184.402344 C 142.773438 184.402344 138.355469 188.578125 138.355469 193.742188 L 138.355469 241.679688 C 138.355469 245.84375 134.441406 247.925781 131.335938 244.984375 L 115.023438 229.289062 C 111.179688 225.636719 105.5 225.636719 101.644531 229.289062 C 97.789062 232.929688 98.074219 238.847656 101.929688 242.5 L 133.433594 272.195312 L 137.023438 275.519531 C 144.726562 282.800781 157.269531 282.800781 164.960938 275.519531 L 199.90625 242.492188 C 203.761719 238.847656 203.871094 232.9375 200.027344 229.289062 C 196.171875 225.644531 189.640625 225.644531 185.785156 229.289062 M 274.386719 172.292969 L 235.859375 192.421875 C 231.984375 194.953125 226.75 194.429688 223.425781 191.285156 C 219.144531 187.230469 219.757812 180.351562 224.707031 177.054688 L 236.472656 168.929688 L 152.703125 168.929688 C 147.261719 168.929688 142.804688 165.066406 142.804688 159.902344 C 142.804688 153.273438 149.144531 150.871094 152.625 150.871094 L 202.285156 150.804688 L 206.058594 110.488281 C 209.207031 101.550781 218.0625 96.238281 227.8125 98.085938 L 262.800781 101.1875 C 272.019531 102.933594 276.40625 110.597656 276.40625 119.496094 L 276.40625 164.644531 C 276.40625 167.714844 277.058594 170.554688 274.386719 172.292969 " fill-opacity="1" fill-rule="evenodd"/></g></svg>