<svg xmlns="http://www.w3.org/2000/svg" xmlns:xlink="http://www.w3.org/1999/xlink" width="500" zoomAndPan="magnify" viewBox="0 0 375 374.999991" height="500" preserveAspectRatio="xMidYMid meet" version="1.0"><defs><clipPath id="096860633f"><path d="M 90.105469 90.105469 L 285.105469 90.105469 L 285.105469 285.105469 L 90.105469 285.105469 Z M 90.105469 90.105469 " clip-rule="nonzero"/></clipPath></defs><rect x="-37.5" width="450" fill="#ffffff" y="-37.499999" height="449.999989" fill-opacity="1"/><rect x="-37.5" width="450" fill="#ffffff" y="-37.499999" height="449.999989" fill-opacity="1"/><g clip-path="url(#096860633f)"><path fill="#3fa796" d="M 246.105469 205.886719 C 235.351562 205.886719 226.605469 197.140625 226.605469 186.386719 C 226.605469 175.632812 235.351562 166.886719 246.105469 166.886719 C 256.859375 166.886719 265.605469 175.632812 265.605469 186.386719 C 265.605469 197.140625 256.859375 205.886719 246.105469 205.886719 M 129.105469 265.605469 C 118.351562 265.605469 109.605469 256.859375 109.605469 246.105469 C 109.605469 235.351562 118.351562 226.605469 129.105469 226.605469 C 154.875 226.605469 154.886719 265.605469 129.105469 265.605469 M 129.105469 148.605469 C 118.351562 148.605469 109.605469 139.859375 109.605469 129.105469 C 109.605469 118.351562 118.351562 109.605469 129.105469 109.605469 C 154.875 109.605469 154.886719 148.605469 129.105469 148.605469 M 246.105469 147.386719 C 234.203125 147.386719 223.679688 152.839844 216.523438 161.242188 L 167.707031 133.054688 C 170.171875 108.8125 151.230469 90.105469 129.105469 90.105469 C 107.566406 90.105469 90.105469 107.566406 90.105469 129.105469 C 90.105469 150.640625 107.566406 168.105469 129.105469 168.105469 C 142.238281 168.105469 153.792969 161.5625 160.863281 151.617188 L 207.875 178.761719 C 206.824219 184.066406 206.851562 189.175781 207.964844 194.46875 L 159.730469 222.226562 C 152.59375 213.082031 141.597656 207.105469 129.105469 207.105469 C 107.566406 207.105469 90.105469 224.566406 90.105469 246.105469 C 90.105469 267.640625 107.566406 285.105469 129.105469 285.105469 C 152.136719 285.105469 171.265625 264.902344 167.511719 240.242188 L 216.808594 211.882812 C 223.953125 220.09375 234.367188 225.386719 246.105469 225.386719 C 267.644531 225.386719 285.105469 207.921875 285.105469 186.386719 C 285.105469 164.847656 267.644531 147.386719 246.105469 147.386719 " fill-opacity="1" fill-rule="evenodd"/></g></svg>