<svg xmlns="http://www.w3.org/2000/svg" xmlns:xlink="http://www.w3.org/1999/xlink" width="500" zoomAndPan="magnify" viewBox="0 0 375 374.999991" height="500" preserveAspectRatio="xMidYMid meet" version="1.0"><defs><clipPath id="ff12f98f19"><path d="M 90.105469 90.105469 L 285.105469 90.105469 L 285.105469 285.105469 L 90.105469 285.105469 Z M 90.105469 90.105469 " clip-rule="nonzero"/></clipPath></defs><rect x="-37.5" width="450" fill="#ffffff" y="-37.499999" height="449.999989" fill-opacity="1"/><rect x="-37.5" width="450" fill="#ffffff" y="-37.499999" height="449.999989" fill-opacity="1"/><g clip-path="url(#ff12f98f19)"><path fill="#3fa796" d="M 204.492188 188.941406 L 261.1875 132.246094 C 264.230469 129.203125 269.4375 131.269531 269.566406 135.570312 L 269.933594 148.890625 C 270.089844 154.269531 274.574219 158.355469 279.957031 158.355469 L 277.792969 158.355469 C 283.175781 158.355469 285.105469 153.714844 285.105469 148.332031 L 285.105469 109.605469 C 285.105469 98.882812 276.332031 90.105469 265.605469 90.105469 L 231.316406 90.105469 C 225.921875 90.105469 216.855469 94.25 216.855469 99.632812 L 216.855469 99.660156 C 216.855469 105.042969 223.164062 109.546875 228.546875 109.695312 L 243.503906 110.09375 C 247.800781 110.199219 249.878906 115.40625 246.847656 118.449219 L 190.425781 175.15625 C 186.621094 178.957031 186.757812 185.128906 190.570312 188.941406 C 194.371094 192.746094 200.679688 192.753906 204.492188 188.941406 M 285.105469 216.964844 L 285.105469 265.753906 C 285.105469 276.496094 280.71875 285.105469 269.972656 285.105469 L 113.894531 285.105469 C 103.152344 285.105469 90.105469 276.496094 90.105469 265.753906 L 90.105469 109.675781 C 90.105469 98.921875 103.152344 90.105469 113.894531 90.105469 L 162.683594 90.105469 C 168.066406 90.105469 172.433594 94.472656 172.433594 99.855469 C 172.433594 105.246094 168.066406 109.605469 162.683594 109.605469 L 123.683594 109.605469 C 118.304688 109.605469 109.605469 114.070312 109.605469 119.464844 L 109.605469 246.253906 C 109.605469 256.996094 122.652344 265.605469 133.394531 265.605469 L 260.183594 265.605469 C 265.566406 265.605469 265.605469 261.34375 265.605469 255.964844 L 265.605469 216.964844 C 265.605469 211.570312 269.964844 207.214844 275.355469 207.214844 C 280.738281 207.214844 285.105469 211.570312 285.105469 216.964844 " fill-opacity="1" fill-rule="evenodd"/></g></svg>